STARTFONT 2.1
FONT -DIGITAL-VT220-medium-r-Normal-136col-60-600-150-75-c-510-iso10646-1
SIZE 60 75 75
FONTBOUNDINGBOX 51 60 0 -12
STARTPROPERTIES 21
FOUNDRY "DIGITAL"
FAMILY_NAME "vt220"
WEIGHT_NAME "medium"
RELATIVE_SETWIDTH 50
SLANT "r"
SETWIDTH_NAME "Normal"
ADD_STYLE_NAME "136col"
PIXEL_SIZE 60
POINT_SIZE 600
RESOLUTION_X 75
RESOLUTION_Y 75
SPACING "c"
CHARSET_REGISTRY "ISO10646"
CHARSET_ENCODING "1"
CAP_HEIGHT 42
X_HEIGHT 30
WEIGHT 10
QUAD_WIDTH 51
FONT_ASCENT 48
FONT_DESCENT 12
AVERAGE_WIDTH 510
ENDPROPERTIES
CHARS 237
STARTCHAR U+00FD
ENCODING 253
SWIDTH 1000 0
DWIDTH 51 0
BBX 51 60 0 -12
BITMAP
00000000000000
00000000000000
00000000000000
00000000000000
00000000000000
00000000000000
00000000000000
00000000000000
00000000000000
00000000000000
00000000000000
00000000000000
00000000000000
00000000000000
00000000000000
00000000000000
00000000000000
00000000000000
00000000000000
00000000000000
00000000000000
00000000000000
00000000000000
00000000000000
00000000000000
00000000000000
00000000000000
00000000000000
00000000000000
00000000000000
00000000000000
00000000000000
00000000000000
00000000000000
00000000000000
00000000000000
00000000000000
00000000000000
00000000000000
00000000000000
00000000000000
00000000000000
00000000000000
00000000000000
00000000000000
00000000000000
00000000000000
00000000000000
00000000000000
00000000000000
00000000000000
00000000000000
00000000000000
00000000000000
00000000000000
00000000000000
00000000000000
00000000000000
00000000000000
00000000000000
ENDCHAR
STARTCHAR U+25A1
ENCODING 9633
SWIDTH 1000 0
DWIDTH 51 0
BBX 51 60 0 -12
BITMAP
00000000000000
00000000000000
00000000000000
00000000000000
00000000000000
00000000000000
FFFFFFFFFFF800
FFFFFFFFFFF800
FFFFFFFFFFF800
FFFFFFFFFFF800
FFFFFFFFFFF800
FFFFFFFFFFF800
FF8000000FF800
FF8000000FF800
FF8000000FF800
FF8000000FF800
FF8000000FF800
FF8000000FF800
FF8000000FF800
FF8000000FF800
FF8000000FF800
FF8000000FF800
FF8000000FF800
FF8000000FF800
FF8000000FF800
FF8000000FF800
FF8000000FF800
FF8000000FF800
FF8000000FF800
FF8000000FF800
FF8000000FF800
FF8000000FF800
FF8000000FF800
FF8000000FF800
FF8000000FF800
FF8000000FF800
FF8000000FF800
FF8000000FF800
FF8000000FF800
FF8000000FF800
FF8000000FF800
FF8000000FF800
FFFFFFFFFFF800
FFFFFFFFFFF800
FFFFFFFFFFF800
FFFFFFFFFFF800
FFFFFFFFFFF800
FFFFFFFFFFF800
00000000000000
00000000000000
00000000000000
00000000000000
00000000000000
00000000000000
00000000000000
00000000000000
00000000000000
00000000000000
00000000000000
00000000000000
ENDCHAR
STARTCHAR U+00FE
ENCODING 254
SWIDTH 1000 0
DWIDTH 51 0
BBX 51 60 0 -12
BITMAP
00000000000000
00000000000000
00000000000000
00000000000000
00000000000000
00000000000000
FF800000000000
FF800000000000
FF800000000000
FF800000000000
FF800000000000
FF800000000000
FF800000000000
FF800000000000
FF800000000000
FF800000000000
FF800000000000
FF800000000000
FF8FFFFFFE0000
FF8FFFFFFE0000
FF8FFFFFFE0000
FF8FFFFFFE0000
FF8FFFFFFE0000
FF8FFFFFFE0000
FFFE00000FF800
FFFE00000FF800
FFFE00000FF800
FFFE00000FF800
FFFE00000FF800
FFFE00000FF800
FFFE00000FF800
FFFE00000FF800
FFFE00000FF800
FFFE00000FF800
FFFE00000FF800
FFFE00000FF800
FF8FFFFFFE0000
FF8FFFFFFE0000
FF8FFFFFFE0000
FF8FFFFFFE0000
FF8FFFFFFE0000
FF8FFFFFFE0000
FF800000000000
FF800000000000
FF800000000000
FF800000000000
FF800000000000
FF800000000000
FF800000000000
FF800000000000
FF800000000000
FF800000000000
FF800000000000
FF800000000000
FF800000000000
FF800000000000
FF800000000000
FF800000000000
FF800000000000
FF800000000000
ENDCHAR
STARTCHAR U+00FF
ENCODING 255
SWIDTH 1000 0
DWIDTH 51 0
BBX 51 60 0 -12
BITMAP
00000000000000
00000000000000
00000000000000
00000000000000
00000000000000
00000000000000
03FE0003FE0000
03FE0003FE0000
03FE0003FE0000
03FE0003FE0000
03FE0003FE0000
03FE0003FE0000
00000000000000
00000000000000
00000000000000
00000000000000
00000000000000
00000000000000
FF800003FE0000
FF800003FE0000
FF800003FE0000
FF800003FE0000
FF800003FE0000
FF800003FE0000
FF800003FE0000
FF800003FE0000
FF800003FE0000
FF800003FE0000
FF800003FE0000
FF800003FE0000
FF8000FFFE0000
FF8000FFFE0000
FF8000FFFE0000
FF8000FFFE0000
FF8000FFFE0000
FF8000FFFE0000
03FFFFE3FE0000
03FFFFE3FE0000
03FFFFE3FE0000
03FFFFE3FE0000
03FFFFE3FE0000
03FFFFE3FE0000
00000003FE0000
00000003FE0000
00000003FE0000
00000003FE0000
00000003FE0000
00000003FE0000
FF800003FE0000
FF800003FE0000
FF800003FE0000
FF800003FE0000
FF800003FE0000
FF800003FE0000
03FFFFFF800000
03FFFFFF800000
03FFFFFF800000
03FFFFFF800000
03FFFFFF800000
03FFFFFF800000
ENDCHAR
STARTCHAR U+00FC
ENCODING 252
SWIDTH 1000 0
DWIDTH 51 0
BBX 51 60 0 -12
BITMAP
00000000000000
00000000000000
00000000000000
00000000000000
00000000000000
00000000000000
03FE0003FE0000
03FE0003FE0000
03FE0003FE0000
03FE0003FE0000
03FE0003FE0000
03FE0003FE0000
00000000000000
00000000000000
00000000000000
00000000000000
00000000000000
00000000000000
FF800003FE0000
FF800003FE0000
FF800003FE0000
FF800003FE0000
FF800003FE0000
FF800003FE0000
FF800003FE0000
FF800003FE0000
FF800003FE0000
FF800003FE0000
FF800003FE0000
FF800003FE0000
FF800003FE0000
FF800003FE0000
FF800003FE0000
FF800003FE0000
FF800003FE0000
FF800003FE0000
FF800003FE0000
FF800003FE0000
FF800003FE0000
FF800003FE0000
FF800003FE0000
FF800003FE0000
03FFFFFF8FF800
03FFFFFF8FF800
03FFFFFF8FF800
03FFFFFF8FF800
03FFFFFF8FF800
03FFFFFF8FF800
00000000000000
00000000000000
00000000000000
00000000000000
00000000000000
00000000000000
00000000000000
00000000000000
00000000000000
00000000000000
00000000000000
00000000000000
ENDCHAR
STARTCHAR U+00FB
ENCODING 251
SWIDTH 1000 0
DWIDTH 51 0
BBX 51 60 0 -12
BITMAP
000FFFFF800000
000FFFFF800000
000FFFFF800000
000FFFFF800000
000FFFFF800000
000FFFFF800000
03FE0003FE0000
03FE0003FE0000
03FE0003FE0000
03FE0003FE0000
03FE0003FE0000
03FE0003FE0000
00000000000000
00000000000000
00000000000000
00000000000000
00000000000000
00000000000000
FF800003FE0000
FF800003FE0000
FF800003FE0000
FF800003FE0000
FF800003FE0000
FF800003FE0000
FF800003FE0000
FF800003FE0000
FF800003FE0000
FF800003FE0000
FF800003FE0000
FF800003FE0000
FF800003FE0000
FF800003FE0000
FF800003FE0000
FF800003FE0000
FF800003FE0000
FF800003FE0000
FF800003FE0000
FF800003FE0000
FF800003FE0000
FF800003FE0000
FF800003FE0000
FF800003FE0000
03FFFFFF8FF800
03FFFFFF8FF800
03FFFFFF8FF800
03FFFFFF8FF800
03FFFFFF8FF800
03FFFFFF8FF800
00000000000000
00000000000000
00000000000000
00000000000000
00000000000000
00000000000000
00000000000000
00000000000000
00000000000000
00000000000000
00000000000000
00000000000000
ENDCHAR
STARTCHAR U+00FA
ENCODING 250
SWIDTH 1000 0
DWIDTH 51 0
BBX 51 60 0 -12
BITMAP
00000000000000
00000000000000
00000000000000
00000000000000
00000000000000
00000000000000
00003FFF800000
00003FFF800000
00003FFF800000
00003FFF800000
00003FFF800000
00003FFF800000
03FFF800000000
03FFF800000000
03FFF800000000
03FFF800000000
03FFF800000000
03FFF800000000
FF800003FE0000
FF800003FE0000
FF800003FE0000
FF800003FE0000
FF800003FE0000
FF800003FE0000
FF800003FE0000
FF800003FE0000
FF800003FE0000
FF800003FE0000
FF800003FE0000
FF800003FE0000
FF800003FE0000
FF800003FE0000
FF800003FE0000
FF800003FE0000
FF800003FE0000
FF800003FE0000
FF800003FE0000
FF800003FE0000
FF800003FE0000
FF800003FE0000
FF800003FE0000
FF800003FE0000
03FFFFFF8FF800
03FFFFFF8FF800
03FFFFFF8FF800
03FFFFFF8FF800
03FFFFFF8FF800
03FFFFFF8FF800
00000000000000
00000000000000
00000000000000
00000000000000
00000000000000
00000000000000
00000000000000
00000000000000
00000000000000
00000000000000
00000000000000
00000000000000
ENDCHAR
STARTCHAR U+00F9
ENCODING 249
SWIDTH 1000 0
DWIDTH 51 0
BBX 51 60 0 -12
BITMAP
00000000000000
00000000000000
00000000000000
00000000000000
00000000000000
00000000000000
03FFF800000000
03FFF800000000
03FFF800000000
03FFF800000000
03FFF800000000
03FFF800000000
00003FFF800000
00003FFF800000
00003FFF800000
00003FFF800000
00003FFF800000
00003FFF800000
FF800003FE0000
FF800003FE0000
FF800003FE0000
FF800003FE0000
FF800003FE0000
FF800003FE0000
FF800003FE0000
FF800003FE0000
FF800003FE0000
FF800003FE0000
FF800003FE0000
FF800003FE0000
FF800003FE0000
FF800003FE0000
FF800003FE0000
FF800003FE0000
FF800003FE0000
FF800003FE0000
FF800003FE0000
FF800003FE0000
FF800003FE0000
FF800003FE0000
FF800003FE0000
FF800003FE0000
03FFFFFF8FF800
03FFFFFF8FF800
03FFFFFF8FF800
03FFFFFF8FF800
03FFFFFF8FF800
03FFFFFF8FF800
00000000000000
00000000000000
00000000000000
00000000000000
00000000000000
00000000000000
00000000000000
00000000000000
00000000000000
00000000000000
00000000000000
00000000000000
ENDCHAR
STARTCHAR U+00F8
ENCODING 248
SWIDTH 1000 0
DWIDTH 51 0
BBX 51 60 0 -12
BITMAP
00000000000000
00000000000000
00000000000000
00000000000000
00000000000000
00000000000000
00000000000000
00000000000000
00000000000000
00000000000000
00000000000000
00000000000000
000000000FF800
000000000FF800
000000000FF800
000000000FF800
000000000FF800
000000000FF800
03FFFFFFFE0000
03FFFFFFFE0000
03FFFFFFFE0000
03FFFFFFFE0000
03FFFFFFFE0000
03FFFFFFFE0000
FF8000FF8FF800
FF8000FF8FF800
FF8000FF8FF800
FF8000FF8FF800
FF8000FF8FF800
FF8000FF8FF800
FF803FE00FF800
FF803FE00FF800
FF803FE00FF800
FF803FE00FF800
FF803FE00FF800
FF803FE00FF800
FF8FF8000FF800
FF8FF8000FF800
FF8FF8000FF800
FF8FF8000FF800
FF8FF8000FF800
FF8FF8000FF800
03FFFFFFFE0000
03FFFFFFFE0000
03FFFFFFFE0000
03FFFFFFFE0000
03FFFFFFFE0000
03FFFFFFFE0000
FF800000000000
FF800000000000
FF800000000000
FF800000000000
FF800000000000
FF800000000000
00000000000000
00000000000000
00000000000000
00000000000000
00000000000000
00000000000000
ENDCHAR
STARTCHAR U+0153
ENCODING 339
SWIDTH 1000 0
DWIDTH 51 0
BBX 51 60 0 -12
BITMAP
00000000000000
00000000000000
00000000000000
00000000000000
00000000000000
00000000000000
00000000000000
00000000000000
00000000000000
00000000000000
00000000000000
00000000000000
00000000000000
00000000000000
00000000000000
00000000000000
00000000000000
00000000000000
03FFF8FFFE0000
03FFF8FFFE0000
03FFF8FFFE0000
03FFF8FFFE0000
03FFF8FFFE0000
03FFF8FFFE0000
FF803FE00FF800
FF803FE00FF800
FF803FE00FF800
FF803FE00FF800
FF803FE00FF800
FF803FE00FF800
FF803FFFFFF800
FF803FFFFFF800
FF803FFFFFF800
FF803FFFFFF800
FF803FFFFFF800
FF803FFFFFF800
FF803FE0000000
FF803FE0000000
FF803FE0000000
FF803FE0000000
FF803FE0000000
FF803FE0000000
03FFF8FFFFF800
03FFF8FFFFF800
03FFF8FFFFF800
03FFF8FFFFF800
03FFF8FFFFF800
03FFF8FFFFF800
00000000000000
00000000000000
00000000000000
00000000000000
00000000000000
00000000000000
00000000000000
00000000000000
00000000000000
00000000000000
00000000000000
00000000000000
ENDCHAR
STARTCHAR U+00F6
ENCODING 246
SWIDTH 1000 0
DWIDTH 51 0
BBX 51 60 0 -12
BITMAP
00000000000000
00000000000000
00000000000000
00000000000000
00000000000000
00000000000000
03FE0003FE0000
03FE0003FE0000
03FE0003FE0000
03FE0003FE0000
03FE0003FE0000
03FE0003FE0000
00000000000000
00000000000000
00000000000000
00000000000000
00000000000000
00000000000000
03FFFFFFFE0000
03FFFFFFFE0000
03FFFFFFFE0000
03FFFFFFFE0000
03FFFFFFFE0000
03FFFFFFFE0000
FF8000000FF800
FF8000000FF800
FF8000000FF800
FF8000000FF800
FF8000000FF800
FF8000000FF800
FF8000000FF800
FF8000000FF800
FF8000000FF800
FF8000000FF800
FF8000000FF800
FF8000000FF800
FF8000000FF800
FF8000000FF800
FF8000000FF800
FF8000000FF800
FF8000000FF800
FF8000000FF800
03FFFFFFFE0000
03FFFFFFFE0000
03FFFFFFFE0000
03FFFFFFFE0000
03FFFFFFFE0000
03FFFFFFFE0000
00000000000000
00000000000000
00000000000000
00000000000000
00000000000000
00000000000000
00000000000000
00000000000000
00000000000000
00000000000000
00000000000000
00000000000000
ENDCHAR
STARTCHAR U+00F5
ENCODING 245
SWIDTH 1000 0
DWIDTH 51 0
BBX 51 60 0 -12
BITMAP
03FFF803FE0000
03FFF803FE0000
03FFF803FE0000
03FFF803FE0000
03FFF803FE0000
03FFF803FE0000
FF803FFF800000
FF803FFF800000
FF803FFF800000
FF803FFF800000
FF803FFF800000
FF803FFF800000
00000000000000
00000000000000
00000000000000
00000000000000
00000000000000
00000000000000
03FFFFFFFE0000
03FFFFFFFE0000
03FFFFFFFE0000
03FFFFFFFE0000
03FFFFFFFE0000
03FFFFFFFE0000
FF8000000FF800
FF8000000FF800
FF8000000FF800
FF8000000FF800
FF8000000FF800
FF8000000FF800
FF8000000FF800
FF8000000FF800
FF8000000FF800
FF8000000FF800
FF8000000FF800
FF8000000FF800
FF8000000FF800
FF8000000FF800
FF8000000FF800
FF8000000FF800
FF8000000FF800
FF8000000FF800
03FFFFFFFE0000
03FFFFFFFE0000
03FFFFFFFE0000
03FFFFFFFE0000
03FFFFFFFE0000
03FFFFFFFE0000
00000000000000
00000000000000
00000000000000
00000000000000
00000000000000
00000000000000
00000000000000
00000000000000
00000000000000
00000000000000
00000000000000
00000000000000
ENDCHAR
STARTCHAR U+00F4
ENCODING 244
SWIDTH 1000 0
DWIDTH 51 0
BBX 51 60 0 -12
BITMAP
000FFFFF800000
000FFFFF800000
000FFFFF800000
000FFFFF800000
000FFFFF800000
000FFFFF800000
03FE0003FE0000
03FE0003FE0000
03FE0003FE0000
03FE0003FE0000
03FE0003FE0000
03FE0003FE0000
00000000000000
00000000000000
00000000000000
00000000000000
00000000000000
00000000000000
03FFFFFFFE0000
03FFFFFFFE0000
03FFFFFFFE0000
03FFFFFFFE0000
03FFFFFFFE0000
03FFFFFFFE0000
FF8000000FF800
FF8000000FF800
FF8000000FF800
FF8000000FF800
FF8000000FF800
FF8000000FF800
FF8000000FF800
FF8000000FF800
FF8000000FF800
FF8000000FF800
FF8000000FF800
FF8000000FF800
FF8000000FF800
FF8000000FF800
FF8000000FF800
FF8000000FF800
FF8000000FF800
FF8000000FF800
03FFFFFFFE0000
03FFFFFFFE0000
03FFFFFFFE0000
03FFFFFFFE0000
03FFFFFFFE0000
03FFFFFFFE0000
00000000000000
00000000000000
00000000000000
00000000000000
00000000000000
00000000000000
00000000000000
00000000000000
00000000000000
00000000000000
00000000000000
00000000000000
ENDCHAR
STARTCHAR U+00F3
ENCODING 243
SWIDTH 1000 0
DWIDTH 51 0
BBX 51 60 0 -12
BITMAP
00000000000000
00000000000000
00000000000000
00000000000000
00000000000000
00000000000000
00003FFF800000
00003FFF800000
00003FFF800000
00003FFF800000
00003FFF800000
00003FFF800000
03FFF800000000
03FFF800000000
03FFF800000000
03FFF800000000
03FFF800000000
03FFF800000000
03FFFFFFFE0000
03FFFFFFFE0000
03FFFFFFFE0000
03FFFFFFFE0000
03FFFFFFFE0000
03FFFFFFFE0000
FF8000000FF800
FF8000000FF800
FF8000000FF800
FF8000000FF800
FF8000000FF800
FF8000000FF800
FF8000000FF800
FF8000000FF800
FF8000000FF800
FF8000000FF800
FF8000000FF800
FF8000000FF800
FF8000000FF800
FF8000000FF800
FF8000000FF800
FF8000000FF800
FF8000000FF800
FF8000000FF800
03FFFFFFFE0000
03FFFFFFFE0000
03FFFFFFFE0000
03FFFFFFFE0000
03FFFFFFFE0000
03FFFFFFFE0000
00000000000000
00000000000000
00000000000000
00000000000000
00000000000000
00000000000000
00000000000000
00000000000000
00000000000000
00000000000000
00000000000000
00000000000000
ENDCHAR
STARTCHAR U+00F2
ENCODING 242
SWIDTH 1000 0
DWIDTH 51 0
BBX 51 60 0 -12
BITMAP
00000000000000
00000000000000
00000000000000
00000000000000
00000000000000
00000000000000
000FFFE0000000
000FFFE0000000
000FFFE0000000
000FFFE0000000
000FFFE0000000
000FFFE0000000
000000FFFE0000
000000FFFE0000
000000FFFE0000
000000FFFE0000
000000FFFE0000
000000FFFE0000
03FFFFFFFE0000
03FFFFFFFE0000
03FFFFFFFE0000
03FFFFFFFE0000
03FFFFFFFE0000
03FFFFFFFE0000
FF8000000FF800
FF8000000FF800
FF8000000FF800
FF8000000FF800
FF8000000FF800
FF8000000FF800
FF8000000FF800
FF8000000FF800
FF8000000FF800
FF8000000FF800
FF8000000FF800
FF8000000FF800
FF8000000FF800
FF8000000FF800
FF8000000FF800
FF8000000FF800
FF8000000FF800
FF8000000FF800
03FFFFFFFE0000
03FFFFFFFE0000
03FFFFFFFE0000
03FFFFFFFE0000
03FFFFFFFE0000
03FFFFFFFE0000
00000000000000
00000000000000
00000000000000
00000000000000
00000000000000
00000000000000
00000000000000
00000000000000
00000000000000
00000000000000
00000000000000
00000000000000
ENDCHAR
STARTCHAR U+00F1
ENCODING 241
SWIDTH 1000 0
DWIDTH 51 0
BBX 51 60 0 -12
BITMAP
03FFF803FE0000
03FFF803FE0000
03FFF803FE0000
03FFF803FE0000
03FFF803FE0000
03FFF803FE0000
FF803FFF800000
FF803FFF800000
FF803FFF800000
FF803FFF800000
FF803FFF800000
FF803FFF800000
00000000000000
00000000000000
00000000000000
00000000000000
00000000000000
00000000000000
FF8FFFFFFE0000
FF8FFFFFFE0000
FF8FFFFFFE0000
FF8FFFFFFE0000
FF8FFFFFFE0000
FF8FFFFFFE0000
FFFE00000FF800
FFFE00000FF800
FFFE00000FF800
FFFE00000FF800
FFFE00000FF800
FFFE00000FF800
FF8000000FF800
FF8000000FF800
FF8000000FF800
FF8000000FF800
FF8000000FF800
FF8000000FF800
FF8000000FF800
FF8000000FF800
FF8000000FF800
FF8000000FF800
FF8000000FF800
FF8000000FF800
FF8000000FF800
FF8000000FF800
FF8000000FF800
FF8000000FF800
FF8000000FF800
FF8000000FF800
00000000000000
00000000000000
00000000000000
00000000000000
00000000000000
00000000000000
00000000000000
00000000000000
00000000000000
00000000000000
00000000000000
00000000000000
ENDCHAR
STARTCHAR U+00F0
ENCODING 240
SWIDTH 1000 0
DWIDTH 51 0
BBX 51 60 0 -12
BITMAP
00003FE00FF800
00003FE00FF800
00003FE00FF800
00003FE00FF800
00003FE00FF800
00003FE00FF800
000000FFFE0000
000000FFFE0000
000000FFFE0000
000000FFFE0000
000000FFFE0000
000000FFFE0000
00003FE00FF800
00003FE00FF800
00003FE00FF800
00003FE00FF800
00003FE00FF800
00003FE00FF800
03FFFFFF8FF800
03FFFFFF8FF800
03FFFFFF8FF800
03FFFFFF8FF800
03FFFFFF8FF800
03FFFFFF8FF800
FF800003FFF800
FF800003FFF800
FF800003FFF800
FF800003FFF800
FF800003FFF800
FF800003FFF800
FF8000000FF800
FF8000000FF800
FF8000000FF800
FF8000000FF800
FF8000000FF800
FF8000000FF800
FF800003FE0000
FF800003FE0000
FF800003FE0000
FF800003FE0000
FF800003FE0000
FF800003FE0000
03FFFFFF800000
03FFFFFF800000
03FFFFFF800000
03FFFFFF800000
03FFFFFF800000
03FFFFFF800000
00000000000000
00000000000000
00000000000000
00000000000000
00000000000000
00000000000000
00000000000000
00000000000000
00000000000000
00000000000000
00000000000000
00000000000000
ENDCHAR
STARTCHAR U+00EF
ENCODING 239
SWIDTH 1000 0
DWIDTH 51 0
BBX 51 60 0 -12
BITMAP
00000000000000
00000000000000
00000000000000
00000000000000
00000000000000
00000000000000
03FE0003FE0000
03FE0003FE0000
03FE0003FE0000
03FE0003FE0000
03FE0003FE0000
03FE0003FE0000
00000000000000
00000000000000
00000000000000
00000000000000
00000000000000
00000000000000
000FFFE0000000
000FFFE0000000
000FFFE0000000
000FFFE0000000
000FFFE0000000
000FFFE0000000
00003FE0000000
00003FE0000000
00003FE0000000
00003FE0000000
00003FE0000000
00003FE0000000
00003FE0000000
00003FE0000000
00003FE0000000
00003FE0000000
00003FE0000000
00003FE0000000
00003FE0000000
00003FE0000000
00003FE0000000
00003FE0000000
00003FE0000000
00003FE0000000
03FFFFFFFE0000
03FFFFFFFE0000
03FFFFFFFE0000
03FFFFFFFE0000
03FFFFFFFE0000
03FFFFFFFE0000
00000000000000
00000000000000
00000000000000
00000000000000
00000000000000
00000000000000
00000000000000
00000000000000
00000000000000
00000000000000
00000000000000
00000000000000
ENDCHAR
STARTCHAR U+00EE
ENCODING 238
SWIDTH 1000 0
DWIDTH 51 0
BBX 51 60 0 -12
BITMAP
000FFFFF800000
000FFFFF800000
000FFFFF800000
000FFFFF800000
000FFFFF800000
000FFFFF800000
03FE0003FE0000
03FE0003FE0000
03FE0003FE0000
03FE0003FE0000
03FE0003FE0000
03FE0003FE0000
00000000000000
00000000000000
00000000000000
00000000000000
00000000000000
00000000000000
000FFFE0000000
000FFFE0000000
000FFFE0000000
000FFFE0000000
000FFFE0000000
000FFFE0000000
00003FE0000000
00003FE0000000
00003FE0000000
00003FE0000000
00003FE0000000
00003FE0000000
00003FE0000000
00003FE0000000
00003FE0000000
00003FE0000000
00003FE0000000
00003FE0000000
00003FE0000000
00003FE0000000
00003FE0000000
00003FE0000000
00003FE0000000
00003FE0000000
03FFFFFFFE0000
03FFFFFFFE0000
03FFFFFFFE0000
03FFFFFFFE0000
03FFFFFFFE0000
03FFFFFFFE0000
00000000000000
00000000000000
00000000000000
00000000000000
00000000000000
00000000000000
00000000000000
00000000000000
00000000000000
00000000000000
00000000000000
00000000000000
ENDCHAR
STARTCHAR U+00ED
ENCODING 237
SWIDTH 1000 0
DWIDTH 51 0
BBX 51 60 0 -12
BITMAP
00000000000000
00000000000000
00000000000000
00000000000000
00000000000000
00000000000000
00003FFF800000
00003FFF800000
00003FFF800000
00003FFF800000
00003FFF800000
00003FFF800000
03FFF800000000
03FFF800000000
03FFF800000000
03FFF800000000
03FFF800000000
03FFF800000000
000FFFE0000000
000FFFE0000000
000FFFE0000000
000FFFE0000000
000FFFE0000000
000FFFE0000000
00003FE0000000
00003FE0000000
00003FE0000000
00003FE0000000
00003FE0000000
00003FE0000000
00003FE0000000
00003FE0000000
00003FE0000000
00003FE0000000
00003FE0000000
00003FE0000000
00003FE0000000
00003FE0000000
00003FE0000000
00003FE0000000
00003FE0000000
00003FE0000000
03FFFFFFFE0000
03FFFFFFFE0000
03FFFFFFFE0000
03FFFFFFFE0000
03FFFFFFFE0000
03FFFFFFFE0000
00000000000000
00000000000000
00000000000000
00000000000000
00000000000000
00000000000000
00000000000000
00000000000000
00000000000000
00000000000000
00000000000000
00000000000000
ENDCHAR
STARTCHAR U+00EC
ENCODING 236
SWIDTH 1000 0
DWIDTH 51 0
BBX 51 60 0 -12
BITMAP
00000000000000
00000000000000
00000000000000
00000000000000
00000000000000
00000000000000
03FFF800000000
03FFF800000000
03FFF800000000
03FFF800000000
03FFF800000000
03FFF800000000
00003FFF800000
00003FFF800000
00003FFF800000
00003FFF800000
00003FFF800000
00003FFF800000
000FFFE0000000
000FFFE0000000
000FFFE0000000
000FFFE0000000
000FFFE0000000
000FFFE0000000
00003FE0000000
00003FE0000000
00003FE0000000
00003FE0000000
00003FE0000000
00003FE0000000
00003FE0000000
00003FE0000000
00003FE0000000
00003FE0000000
00003FE0000000
00003FE0000000
00003FE0000000
00003FE0000000
00003FE0000000
00003FE0000000
00003FE0000000
00003FE0000000
03FFFFFFFE0000
03FFFFFFFE0000
03FFFFFFFE0000
03FFFFFFFE0000
03FFFFFFFE0000
03FFFFFFFE0000
00000000000000
00000000000000
00000000000000
00000000000000
00000000000000
00000000000000
00000000000000
00000000000000
00000000000000
00000000000000
00000000000000
00000000000000
ENDCHAR
STARTCHAR U+00EB
ENCODING 235
SWIDTH 1000 0
DWIDTH 51 0
BBX 51 60 0 -12
BITMAP
00000000000000
00000000000000
00000000000000
00000000000000
00000000000000
00000000000000
03FE0003FE0000
03FE0003FE0000
03FE0003FE0000
03FE0003FE0000
03FE0003FE0000
03FE0003FE0000
00000000000000
00000000000000
00000000000000
00000000000000
00000000000000
00000000000000
03FFFFFFFE0000
03FFFFFFFE0000
03FFFFFFFE0000
03FFFFFFFE0000
03FFFFFFFE0000
03FFFFFFFE0000
FF8000000FF800
FF8000000FF800
FF8000000FF800
FF8000000FF800
FF8000000FF800
FF8000000FF800
FFFFFFFFFFF800
FFFFFFFFFFF800
FFFFFFFFFFF800
FFFFFFFFFFF800
FFFFFFFFFFF800
FFFFFFFFFFF800
FF800000000000
FF800000000000
FF800000000000
FF800000000000
FF800000000000
FF800000000000
03FFFFFFFE0000
03FFFFFFFE0000
03FFFFFFFE0000
03FFFFFFFE0000
03FFFFFFFE0000
03FFFFFFFE0000
00000000000000
00000000000000
00000000000000
00000000000000
00000000000000
00000000000000
00000000000000
00000000000000
00000000000000
00000000000000
00000000000000
00000000000000
ENDCHAR
STARTCHAR U+00EA
ENCODING 234
SWIDTH 1000 0
DWIDTH 51 0
BBX 51 60 0 -12
BITMAP
000FFFFF800000
000FFFFF800000
000FFFFF800000
000FFFFF800000
000FFFFF800000
000FFFFF800000
03FE0003FE0000
03FE0003FE0000
03FE0003FE0000
03FE0003FE0000
03FE0003FE0000
03FE0003FE0000
00000000000000
00000000000000
00000000000000
00000000000000
00000000000000
00000000000000
03FFFFFFFE0000
03FFFFFFFE0000
03FFFFFFFE0000
03FFFFFFFE0000
03FFFFFFFE0000
03FFFFFFFE0000
FF8000000FF800
FF8000000FF800
FF8000000FF800
FF8000000FF800
FF8000000FF800
FF8000000FF800
FFFFFFFFFFF800
FFFFFFFFFFF800
FFFFFFFFFFF800
FFFFFFFFFFF800
FFFFFFFFFFF800
FFFFFFFFFFF800
FF800000000000
FF800000000000
FF800000000000
FF800000000000
FF800000000000
FF800000000000
03FFFFFFFE0000
03FFFFFFFE0000
03FFFFFFFE0000
03FFFFFFFE0000
03FFFFFFFE0000
03FFFFFFFE0000
00000000000000
00000000000000
00000000000000
00000000000000
00000000000000
00000000000000
00000000000000
00000000000000
00000000000000
00000000000000
00000000000000
00000000000000
ENDCHAR
STARTCHAR U+00E9
ENCODING 233
SWIDTH 1000 0
DWIDTH 51 0
BBX 51 60 0 -12
BITMAP
00000000000000
00000000000000
00000000000000
00000000000000
00000000000000
00000000000000
00003FFF800000
00003FFF800000
00003FFF800000
00003FFF800000
00003FFF800000
00003FFF800000
03FFF800000000
03FFF800000000
03FFF800000000
03FFF800000000
03FFF800000000
03FFF800000000
03FFFFFFFE0000
03FFFFFFFE0000
03FFFFFFFE0000
03FFFFFFFE0000
03FFFFFFFE0000
03FFFFFFFE0000
FF8000000FF800
FF8000000FF800
FF8000000FF800
FF8000000FF800
FF8000000FF800
FF8000000FF800
FFFFFFFFFFF800
FFFFFFFFFFF800
FFFFFFFFFFF800
FFFFFFFFFFF800
FFFFFFFFFFF800
FFFFFFFFFFF800
FF800000000000
FF800000000000
FF800000000000
FF800000000000
FF800000000000
FF800000000000
03FFFFFFFE0000
03FFFFFFFE0000
03FFFFFFFE0000
03FFFFFFFE0000
03FFFFFFFE0000
03FFFFFFFE0000
00000000000000
00000000000000
00000000000000
00000000000000
00000000000000
00000000000000
00000000000000
00000000000000
00000000000000
00000000000000
00000000000000
00000000000000
ENDCHAR
STARTCHAR U+00E8
ENCODING 232
SWIDTH 1000 0
DWIDTH 51 0
BBX 51 60 0 -12
BITMAP
00000000000000
00000000000000
00000000000000
00000000000000
00000000000000
00000000000000
000FFFE0000000
000FFFE0000000
000FFFE0000000
000FFFE0000000
000FFFE0000000
000FFFE0000000
000000FFFE0000
000000FFFE0000
000000FFFE0000
000000FFFE0000
000000FFFE0000
000000FFFE0000
03FFFFFFFE0000
03FFFFFFFE0000
03FFFFFFFE0000
03FFFFFFFE0000
03FFFFFFFE0000
03FFFFFFFE0000
FF8000000FF800
FF8000000FF800
FF8000000FF800
FF8000000FF800
FF8000000FF800
FF8000000FF800
FFFFFFFFFFF800
FFFFFFFFFFF800
FFFFFFFFFFF800
FFFFFFFFFFF800
FFFFFFFFFFF800
FFFFFFFFFFF800
FF800000000000
FF800000000000
FF800000000000
FF800000000000
FF800000000000
FF800000000000
03FFFFFFFE0000
03FFFFFFFE0000
03FFFFFFFE0000
03FFFFFFFE0000
03FFFFFFFE0000
03FFFFFFFE0000
00000000000000
00000000000000
00000000000000
00000000000000
00000000000000
00000000000000
00000000000000
00000000000000
00000000000000
00000000000000
00000000000000
00000000000000
ENDCHAR
STARTCHAR U+00E7
ENCODING 231
SWIDTH 1000 0
DWIDTH 51 0
BBX 51 60 0 -12
BITMAP
00000000000000
00000000000000
00000000000000
00000000000000
00000000000000
00000000000000
00000000000000
00000000000000
00000000000000
00000000000000
00000000000000
00000000000000
00000000000000
00000000000000
00000000000000
00000000000000
00000000000000
00000000000000
03FFFFFFFE0000
03FFFFFFFE0000
03FFFFFFFE0000
03FFFFFFFE0000
03FFFFFFFE0000
03FFFFFFFE0000
FF8000000FF800
FF8000000FF800
FF8000000FF800
FF8000000FF800
FF8000000FF800
FF8000000FF800
FF800000000000
FF800000000000
FF800000000000
FF800000000000
FF800000000000
FF800000000000
FF8000000FF800
FF8000000FF800
FF8000000FF800
FF8000000FF800
FF8000000FF800
FF8000000FF800
03FFFFFFFE0000
03FFFFFFFE0000
03FFFFFFFE0000
03FFFFFFFE0000
03FFFFFFFE0000
03FFFFFFFE0000
000000FF800000
000000FF800000
000000FF800000
000000FF800000
000000FF800000
000000FF800000
000FFFFF800000
000FFFFF800000
000FFFFF800000
000FFFFF800000
000FFFFF800000
000FFFFF800000
ENDCHAR
STARTCHAR U+00E6
ENCODING 230
SWIDTH 1000 0
DWIDTH 51 0
BBX 51 60 0 -12
BITMAP
00000000000000
00000000000000
00000000000000
00000000000000
00000000000000
00000000000000
00000000000000
00000000000000
00000000000000
00000000000000
00000000000000
00000000000000
00000000000000
00000000000000
00000000000000
00000000000000
00000000000000
00000000000000
03FFF8FFFE0000
03FFF8FFFE0000
03FFF8FFFE0000
03FFF8FFFE0000
03FFF8FFFE0000
03FFF8FFFE0000
00003FE00FF800
00003FE00FF800
00003FE00FF800
00003FE00FF800
00003FE00FF800
00003FE00FF800
03FFFFFFFFF800
03FFFFFFFFF800
03FFFFFFFFF800
03FFFFFFFFF800
03FFFFFFFFF800
03FFFFFFFFF800
FF803FE0000000
FF803FE0000000
FF803FE0000000
FF803FE0000000
FF803FE0000000
FF803FE0000000
03FFFFFFFFF800
03FFFFFFFFF800
03FFFFFFFFF800
03FFFFFFFFF800
03FFFFFFFFF800
03FFFFFFFFF800
00000000000000
00000000000000
00000000000000
00000000000000
00000000000000
00000000000000
00000000000000
00000000000000
00000000000000
00000000000000
00000000000000
00000000000000
ENDCHAR
STARTCHAR U+00E5
ENCODING 229
SWIDTH 1000 0
DWIDTH 51 0
BBX 51 60 0 -12
BITMAP
000FFFFF800000
000FFFFF800000
000FFFFF800000
000FFFFF800000
000FFFFF800000
000FFFFF800000
03FE0003FE0000
03FE0003FE0000
03FE0003FE0000
03FE0003FE0000
03FE0003FE0000
03FE0003FE0000
000FFFFF800000
000FFFFF800000
000FFFFF800000
000FFFFF800000
000FFFFF800000
000FFFFF800000
03FFFFFFFE0000
03FFFFFFFE0000
03FFFFFFFE0000
03FFFFFFFE0000
03FFFFFFFE0000
03FFFFFFFE0000
000000000FF800
000000000FF800
000000000FF800
000000000FF800
000000000FF800
000000000FF800
03FFFFFFFFF800
03FFFFFFFFF800
03FFFFFFFFF800
03FFFFFFFFF800
03FFFFFFFFF800
03FFFFFFFFF800
FF800003FFF800
FF800003FFF800
FF800003FFF800
FF800003FFF800
FF800003FFF800
FF800003FFF800
03FFFFFF8FF800
03FFFFFF8FF800
03FFFFFF8FF800
03FFFFFF8FF800
03FFFFFF8FF800
03FFFFFF8FF800
00000000000000
00000000000000
00000000000000
00000000000000
00000000000000
00000000000000
00000000000000
00000000000000
00000000000000
00000000000000
00000000000000
00000000000000
ENDCHAR
STARTCHAR U+00E4
ENCODING 228
SWIDTH 1000 0
DWIDTH 51 0
BBX 51 60 0 -12
BITMAP
00000000000000
00000000000000
00000000000000
00000000000000
00000000000000
00000000000000
03FE0003FE0000
03FE0003FE0000
03FE0003FE0000
03FE0003FE0000
03FE0003FE0000
03FE0003FE0000
00000000000000
00000000000000
00000000000000
00000000000000
00000000000000
00000000000000
03FFFFFFFE0000
03FFFFFFFE0000
03FFFFFFFE0000
03FFFFFFFE0000
03FFFFFFFE0000
03FFFFFFFE0000
000000000FF800
000000000FF800
000000000FF800
000000000FF800
000000000FF800
000000000FF800
03FFFFFFFFF800
03FFFFFFFFF800
03FFFFFFFFF800
03FFFFFFFFF800
03FFFFFFFFF800
03FFFFFFFFF800
FF800003FFF800
FF800003FFF800
FF800003FFF800
FF800003FFF800
FF800003FFF800
FF800003FFF800
03FFFFFF8FF800
03FFFFFF8FF800
03FFFFFF8FF800
03FFFFFF8FF800
03FFFFFF8FF800
03FFFFFF8FF800
00000000000000
00000000000000
00000000000000
00000000000000
00000000000000
00000000000000
00000000000000
00000000000000
00000000000000
00000000000000
00000000000000
00000000000000
ENDCHAR
STARTCHAR U+00E3
ENCODING 227
SWIDTH 1000 0
DWIDTH 51 0
BBX 51 60 0 -12
BITMAP
000FFFE00FF800
000FFFE00FF800
000FFFE00FF800
000FFFE00FF800
000FFFE00FF800
000FFFE00FF800
03FE00FFFE0000
03FE00FFFE0000
03FE00FFFE0000
03FE00FFFE0000
03FE00FFFE0000
03FE00FFFE0000
00000000000000
00000000000000
00000000000000
00000000000000
00000000000000
00000000000000
03FFFFFFFE0000
03FFFFFFFE0000
03FFFFFFFE0000
03FFFFFFFE0000
03FFFFFFFE0000
03FFFFFFFE0000
000000000FF800
000000000FF800
000000000FF800
000000000FF800
000000000FF800
000000000FF800
03FFFFFFFFF800
03FFFFFFFFF800
03FFFFFFFFF800
03FFFFFFFFF800
03FFFFFFFFF800
03FFFFFFFFF800
FF800003FFF800
FF800003FFF800
FF800003FFF800
FF800003FFF800
FF800003FFF800
FF800003FFF800
03FFFFFF8FF800
03FFFFFF8FF800
03FFFFFF8FF800
03FFFFFF8FF800
03FFFFFF8FF800
03FFFFFF8FF800
00000000000000
00000000000000
00000000000000
00000000000000
00000000000000
00000000000000
00000000000000
00000000000000
00000000000000
00000000000000
00000000000000
00000000000000
ENDCHAR
STARTCHAR U+00E2
ENCODING 226
SWIDTH 1000 0
DWIDTH 51 0
BBX 51 60 0 -12
BITMAP
000FFFFF800000
000FFFFF800000
000FFFFF800000
000FFFFF800000
000FFFFF800000
000FFFFF800000
03FE0003FE0000
03FE0003FE0000
03FE0003FE0000
03FE0003FE0000
03FE0003FE0000
03FE0003FE0000
00000000000000
00000000000000
00000000000000
00000000000000
00000000000000
00000000000000
03FFFFFFFE0000
03FFFFFFFE0000
03FFFFFFFE0000
03FFFFFFFE0000
03FFFFFFFE0000
03FFFFFFFE0000
000000000FF800
000000000FF800
000000000FF800
000000000FF800
000000000FF800
000000000FF800
03FFFFFFFFF800
03FFFFFFFFF800
03FFFFFFFFF800
03FFFFFFFFF800
03FFFFFFFFF800
03FFFFFFFFF800
FF800003FFF800
FF800003FFF800
FF800003FFF800
FF800003FFF800
FF800003FFF800
FF800003FFF800
03FFFFFF8FF800
03FFFFFF8FF800
03FFFFFF8FF800
03FFFFFF8FF800
03FFFFFF8FF800
03FFFFFF8FF800
00000000000000
00000000000000
00000000000000
00000000000000
00000000000000
00000000000000
00000000000000
00000000000000
00000000000000
00000000000000
00000000000000
00000000000000
ENDCHAR
STARTCHAR U+00E1
ENCODING 225
SWIDTH 1000 0
DWIDTH 51 0
BBX 51 60 0 -12
BITMAP
00000000000000
00000000000000
00000000000000
00000000000000
00000000000000
00000000000000
00003FFF800000
00003FFF800000
00003FFF800000
00003FFF800000
00003FFF800000
00003FFF800000
03FFF800000000
03FFF800000000
03FFF800000000
03FFF800000000
03FFF800000000
03FFF800000000
03FFFFFFFE0000
03FFFFFFFE0000
03FFFFFFFE0000
03FFFFFFFE0000
03FFFFFFFE0000
03FFFFFFFE0000
000000000FF800
000000000FF800
000000000FF800
000000000FF800
000000000FF800
000000000FF800
03FFFFFFFFF800
03FFFFFFFFF800
03FFFFFFFFF800
03FFFFFFFFF800
03FFFFFFFFF800
03FFFFFFFFF800
FF800003FFF800
FF800003FFF800
FF800003FFF800
FF800003FFF800
FF800003FFF800
FF800003FFF800
03FFFFFF8FF800
03FFFFFF8FF800
03FFFFFF8FF800
03FFFFFF8FF800
03FFFFFF8FF800
03FFFFFF8FF800
00000000000000
00000000000000
00000000000000
00000000000000
00000000000000
00000000000000
00000000000000
00000000000000
00000000000000
00000000000000
00000000000000
00000000000000
ENDCHAR
STARTCHAR U+00E0
ENCODING 224
SWIDTH 1000 0
DWIDTH 51 0
BBX 51 60 0 -12
BITMAP
00000000000000
00000000000000
00000000000000
00000000000000
00000000000000
00000000000000
000FFFE0000000
000FFFE0000000
000FFFE0000000
000FFFE0000000
000FFFE0000000
000FFFE0000000
000000FFFE0000
000000FFFE0000
000000FFFE0000
000000FFFE0000
000000FFFE0000
000000FFFE0000
03FFFFFFFE0000
03FFFFFFFE0000
03FFFFFFFE0000
03FFFFFFFE0000
03FFFFFFFE0000
03FFFFFFFE0000
000000000FF800
000000000FF800
000000000FF800
000000000FF800
000000000FF800
000000000FF800
03FFFFFFFFF800
03FFFFFFFFF800
03FFFFFFFFF800
03FFFFFFFFF800
03FFFFFFFFF800
03FFFFFFFFF800
FF800003FFF800
FF800003FFF800
FF800003FFF800
FF800003FFF800
FF800003FFF800
FF800003FFF800
03FFFFFF8FF800
03FFFFFF8FF800
03FFFFFF8FF800
03FFFFFF8FF800
03FFFFFF8FF800
03FFFFFF8FF800
00000000000000
00000000000000
00000000000000
00000000000000
00000000000000
00000000000000
00000000000000
00000000000000
00000000000000
00000000000000
00000000000000
00000000000000
ENDCHAR
STARTCHAR U+00DF
ENCODING 223
SWIDTH 1000 0
DWIDTH 51 0
BBX 51 60 0 -12
BITMAP
00000000000000
00000000000000
00000000000000
00000000000000
00000000000000
00000000000000
000FFFFF800000
000FFFFF800000
000FFFFF800000
000FFFFF800000
000FFFFF800000
000FFFFF800000
03FE0003FE0000
03FE0003FE0000
03FE0003FE0000
03FE0003FE0000
03FE0003FE0000
03FE0003FE0000
FF800003FE0000
FF800003FE0000
FF800003FE0000
FF800003FE0000
FF800003FE0000
FF800003FE0000
FF8FFFFF800000
FF8FFFFF800000
FF8FFFFF800000
FF8FFFFF800000
FF8FFFFF800000
FF8FFFFF800000
FF800003FE0000
FF800003FE0000
FF800003FE0000
FF800003FE0000
FF800003FE0000
FF800003FE0000
FF8FF8000FF800
FF8FF8000FF800
FF8FF8000FF800
FF8FF8000FF800
FF8FF8000FF800
FF8FF8000FF800
FF803FFFFE0000
FF803FFFFE0000
FF803FFFFE0000
FF803FFFFE0000
FF803FFFFE0000
FF803FFFFE0000
FF800000000000
FF800000000000
FF800000000000
FF800000000000
FF800000000000
FF800000000000
00000000000000
00000000000000
00000000000000
00000000000000
00000000000000
00000000000000
ENDCHAR
STARTCHAR U+00DE
ENCODING 222
SWIDTH 1000 0
DWIDTH 51 0
BBX 51 60 0 -12
BITMAP
00000000000000
00000000000000
00000000000000
00000000000000
00000000000000
00000000000000
FFFE0000000000
FFFE0000000000
FFFE0000000000
FFFE0000000000
FFFE0000000000
FFFE0000000000
03FFFFFFFE0000
03FFFFFFFE0000
03FFFFFFFE0000
03FFFFFFFE0000
03FFFFFFFE0000
03FFFFFFFE0000
03FE00000FF800
03FE00000FF800
03FE00000FF800
03FE00000FF800
03FE00000FF800
03FE00000FF800
03FE00000FF800
03FE00000FF800
03FE00000FF800
03FE00000FF800
03FE00000FF800
03FE00000FF800
03FE00000FF800
03FE00000FF800
03FE00000FF800
03FE00000FF800
03FE00000FF800
03FE00000FF800
03FFFFFFFE0000
03FFFFFFFE0000
03FFFFFFFE0000
03FFFFFFFE0000
03FFFFFFFE0000
03FFFFFFFE0000
FFFE0000000000
FFFE0000000000
FFFE0000000000
FFFE0000000000
FFFE0000000000
FFFE0000000000
00000000000000
00000000000000
00000000000000
00000000000000
00000000000000
00000000000000
00000000000000
00000000000000
00000000000000
00000000000000
00000000000000
00000000000000
ENDCHAR
STARTCHAR U+0178
ENCODING 376
SWIDTH 1000 0
DWIDTH 51 0
BBX 51 60 0 -12
BITMAP
03FE0003FE0000
03FE0003FE0000
03FE0003FE0000
03FE0003FE0000
03FE0003FE0000
03FE0003FE0000
00000000000000
00000000000000
00000000000000
00000000000000
00000000000000
00000000000000
FF8000000FF800
FF8000000FF800
FF8000000FF800
FF8000000FF800
FF8000000FF800
FF8000000FF800
03FE0003FE0000
03FE0003FE0000
03FE0003FE0000
03FE0003FE0000
03FE0003FE0000
03FE0003FE0000
000FF8FF800000
000FF8FF800000
000FF8FF800000
000FF8FF800000
000FF8FF800000
000FF8FF800000
00003FE0000000
00003FE0000000
00003FE0000000
00003FE0000000
00003FE0000000
00003FE0000000
00003FE0000000
00003FE0000000
00003FE0000000
00003FE0000000
00003FE0000000
00003FE0000000
00003FE0000000
00003FE0000000
00003FE0000000
00003FE0000000
00003FE0000000
00003FE0000000
00000000000000
00000000000000
00000000000000
00000000000000
00000000000000
00000000000000
00000000000000
00000000000000
00000000000000
00000000000000
00000000000000
00000000000000
ENDCHAR
STARTCHAR U+00DC
ENCODING 220
SWIDTH 1000 0
DWIDTH 51 0
BBX 51 60 0 -12
BITMAP
03FE0003FE0000
03FE0003FE0000
03FE0003FE0000
03FE0003FE0000
03FE0003FE0000
03FE0003FE0000
00000000000000
00000000000000
00000000000000
00000000000000
00000000000000
00000000000000
FF8000000FF800
FF8000000FF800
FF8000000FF800
FF8000000FF800
FF8000000FF800
FF8000000FF800
FF8000000FF800
FF8000000FF800
FF8000000FF800
FF8000000FF800
FF8000000FF800
FF8000000FF800
FF8000000FF800
FF8000000FF800
FF8000000FF800
FF8000000FF800
FF8000000FF800
FF8000000FF800
FF8000000FF800
FF8000000FF800
FF8000000FF800
FF8000000FF800
FF8000000FF800
FF8000000FF800
FF8000000FF800
FF8000000FF800
FF8000000FF800
FF8000000FF800
FF8000000FF800
FF8000000FF800
03FFFFFFFE0000
03FFFFFFFE0000
03FFFFFFFE0000
03FFFFFFFE0000
03FFFFFFFE0000
03FFFFFFFE0000
00000000000000
00000000000000
00000000000000
00000000000000
00000000000000
00000000000000
00000000000000
00000000000000
00000000000000
00000000000000
00000000000000
00000000000000
ENDCHAR
STARTCHAR U+00DB
ENCODING 219
SWIDTH 1000 0
DWIDTH 51 0
BBX 51 60 0 -12
BITMAP
00003FE0000000
00003FE0000000
00003FE0000000
00003FE0000000
00003FE0000000
00003FE0000000
000FF8FF800000
000FF8FF800000
000FF8FF800000
000FF8FF800000
000FF8FF800000
000FF8FF800000
FF8000000FF800
FF8000000FF800
FF8000000FF800
FF8000000FF800
FF8000000FF800
FF8000000FF800
FF8000000FF800
FF8000000FF800
FF8000000FF800
FF8000000FF800
FF8000000FF800
FF8000000FF800
FF8000000FF800
FF8000000FF800
FF8000000FF800
FF8000000FF800
FF8000000FF800
FF8000000FF800
FF8000000FF800
FF8000000FF800
FF8000000FF800
FF8000000FF800
FF8000000FF800
FF8000000FF800
FF8000000FF800
FF8000000FF800
FF8000000FF800
FF8000000FF800
FF8000000FF800
FF8000000FF800
03FFFFFFFE0000
03FFFFFFFE0000
03FFFFFFFE0000
03FFFFFFFE0000
03FFFFFFFE0000
03FFFFFFFE0000
00000000000000
00000000000000
00000000000000
00000000000000
00000000000000
00000000000000
00000000000000
00000000000000
00000000000000
00000000000000
00000000000000
00000000000000
ENDCHAR
STARTCHAR U+00DA
ENCODING 218
SWIDTH 1000 0
DWIDTH 51 0
BBX 51 60 0 -12
BITMAP
000000FFFE0000
000000FFFE0000
000000FFFE0000
000000FFFE0000
000000FFFE0000
000000FFFE0000
000FFFE0000000
000FFFE0000000
000FFFE0000000
000FFFE0000000
000FFFE0000000
000FFFE0000000
FF8000000FF800
FF8000000FF800
FF8000000FF800
FF8000000FF800
FF8000000FF800
FF8000000FF800
FF8000000FF800
FF8000000FF800
FF8000000FF800
FF8000000FF800
FF8000000FF800
FF8000000FF800
FF8000000FF800
FF8000000FF800
FF8000000FF800
FF8000000FF800
FF8000000FF800
FF8000000FF800
FF8000000FF800
FF8000000FF800
FF8000000FF800
FF8000000FF800
FF8000000FF800
FF8000000FF800
FF8000000FF800
FF8000000FF800
FF8000000FF800
FF8000000FF800
FF8000000FF800
FF8000000FF800
03FFFFFFFE0000
03FFFFFFFE0000
03FFFFFFFE0000
03FFFFFFFE0000
03FFFFFFFE0000
03FFFFFFFE0000
00000000000000
00000000000000
00000000000000
00000000000000
00000000000000
00000000000000
00000000000000
00000000000000
00000000000000
00000000000000
00000000000000
00000000000000
ENDCHAR
STARTCHAR U+00D9
ENCODING 217
SWIDTH 1000 0
DWIDTH 51 0
BBX 51 60 0 -12
BITMAP
03FFF800000000
03FFF800000000
03FFF800000000
03FFF800000000
03FFF800000000
03FFF800000000
00003FFF800000
00003FFF800000
00003FFF800000
00003FFF800000
00003FFF800000
00003FFF800000
FF8000000FF800
FF8000000FF800
FF8000000FF800
FF8000000FF800
FF8000000FF800
FF8000000FF800
FF8000000FF800
FF8000000FF800
FF8000000FF800
FF8000000FF800
FF8000000FF800
FF8000000FF800
FF8000000FF800
FF8000000FF800
FF8000000FF800
FF8000000FF800
FF8000000FF800
FF8000000FF800
FF8000000FF800
FF8000000FF800
FF8000000FF800
FF8000000FF800
FF8000000FF800
FF8000000FF800
FF8000000FF800
FF8000000FF800
FF8000000FF800
FF8000000FF800
FF8000000FF800
FF8000000FF800
03FFFFFFFE0000
03FFFFFFFE0000
03FFFFFFFE0000
03FFFFFFFE0000
03FFFFFFFE0000
03FFFFFFFE0000
00000000000000
00000000000000
00000000000000
00000000000000
00000000000000
00000000000000
00000000000000
00000000000000
00000000000000
00000000000000
00000000000000
00000000000000
ENDCHAR
STARTCHAR U+00D8
ENCODING 216
SWIDTH 1000 0
DWIDTH 51 0
BBX 51 60 0 -12
BITMAP
000000000FF800
000000000FF800
000000000FF800
000000000FF800
000000000FF800
000000000FF800
03FFFFFFFE0000
03FFFFFFFE0000
03FFFFFFFE0000
03FFFFFFFE0000
03FFFFFFFE0000
03FFFFFFFE0000
FF800003FFF800
FF800003FFF800
FF800003FFF800
FF800003FFF800
FF800003FFF800
FF800003FFF800
FF8000FF8FF800
FF8000FF8FF800
FF8000FF8FF800
FF8000FF8FF800
FF8000FF8FF800
FF8000FF8FF800
FF803FE00FF800
FF803FE00FF800
FF803FE00FF800
FF803FE00FF800
FF803FE00FF800
FF803FE00FF800
FF8FF8000FF800
FF8FF8000FF800
FF8FF8000FF800
FF8FF8000FF800
FF8FF8000FF800
FF8FF8000FF800
FFFE00000FF800
FFFE00000FF800
FFFE00000FF800
FFFE00000FF800
FFFE00000FF800
FFFE00000FF800
03FFFFFFFE0000
03FFFFFFFE0000
03FFFFFFFE0000
03FFFFFFFE0000
03FFFFFFFE0000
03FFFFFFFE0000
FF800000000000
FF800000000000
FF800000000000
FF800000000000
FF800000000000
FF800000000000
00000000000000
00000000000000
00000000000000
00000000000000
00000000000000
00000000000000
ENDCHAR
STARTCHAR U+0152
ENCODING 338
SWIDTH 1000 0
DWIDTH 51 0
BBX 51 60 0 -12
BITMAP
00000000000000
00000000000000
00000000000000
00000000000000
00000000000000
00000000000000
03FFF8FFFFF800
03FFF8FFFFF800
03FFF8FFFFF800
03FFF8FFFFF800
03FFF8FFFFF800
03FFF8FFFFF800
FF803FE0000000
FF803FE0000000
FF803FE0000000
FF803FE0000000
FF803FE0000000
FF803FE0000000
FF803FE0000000
FF803FE0000000
FF803FE0000000
FF803FE0000000
FF803FE0000000
FF803FE0000000
FF803FFFFE0000
FF803FFFFE0000
FF803FFFFE0000
FF803FFFFE0000
FF803FFFFE0000
FF803FFFFE0000
FF803FE0000000
FF803FE0000000
FF803FE0000000
FF803FE0000000
FF803FE0000000
FF803FE0000000
FF803FE0000000
FF803FE0000000
FF803FE0000000
FF803FE0000000
FF803FE0000000
FF803FE0000000
03FFF8FFFFF800
03FFF8FFFFF800
03FFF8FFFFF800
03FFF8FFFFF800
03FFF8FFFFF800
03FFF8FFFFF800
00000000000000
00000000000000
00000000000000
00000000000000
00000000000000
00000000000000
00000000000000
00000000000000
00000000000000
00000000000000
00000000000000
00000000000000
ENDCHAR
STARTCHAR U+00D6
ENCODING 214
SWIDTH 1000 0
DWIDTH 51 0
BBX 51 60 0 -12
BITMAP
03FE0003FE0000
03FE0003FE0000
03FE0003FE0000
03FE0003FE0000
03FE0003FE0000
03FE0003FE0000
00000000000000
00000000000000
00000000000000
00000000000000
00000000000000
00000000000000
03FFFFFFFE0000
03FFFFFFFE0000
03FFFFFFFE0000
03FFFFFFFE0000
03FFFFFFFE0000
03FFFFFFFE0000
FF8000000FF800
FF8000000FF800
FF8000000FF800
FF8000000FF800
FF8000000FF800
FF8000000FF800
FF8000000FF800
FF8000000FF800
FF8000000FF800
FF8000000FF800
FF8000000FF800
FF8000000FF800
FF8000000FF800
FF8000000FF800
FF8000000FF800
FF8000000FF800
FF8000000FF800
FF8000000FF800
FF8000000FF800
FF8000000FF800
FF8000000FF800
FF8000000FF800
FF8000000FF800
FF8000000FF800
03FFFFFFFE0000
03FFFFFFFE0000
03FFFFFFFE0000
03FFFFFFFE0000
03FFFFFFFE0000
03FFFFFFFE0000
00000000000000
00000000000000
00000000000000
00000000000000
00000000000000
00000000000000
00000000000000
00000000000000
00000000000000
00000000000000
00000000000000
00000000000000
ENDCHAR
STARTCHAR U+00D5
ENCODING 213
SWIDTH 1000 0
DWIDTH 51 0
BBX 51 60 0 -12
BITMAP
03FFF803FE0000
03FFF803FE0000
03FFF803FE0000
03FFF803FE0000
03FFF803FE0000
03FFF803FE0000
FF803FFF800000
FF803FFF800000
FF803FFF800000
FF803FFF800000
FF803FFF800000
FF803FFF800000
03FFFFFFFE0000
03FFFFFFFE0000
03FFFFFFFE0000
03FFFFFFFE0000
03FFFFFFFE0000
03FFFFFFFE0000
FF8000000FF800
FF8000000FF800
FF8000000FF800
FF8000000FF800
FF8000000FF800
FF8000000FF800
FF8000000FF800
FF8000000FF800
FF8000000FF800
FF8000000FF800
FF8000000FF800
FF8000000FF800
FF8000000FF800
FF8000000FF800
FF8000000FF800
FF8000000FF800
FF8000000FF800
FF8000000FF800
FF8000000FF800
FF8000000FF800
FF8000000FF800
FF8000000FF800
FF8000000FF800
FF8000000FF800
03FFFFFFFE0000
03FFFFFFFE0000
03FFFFFFFE0000
03FFFFFFFE0000
03FFFFFFFE0000
03FFFFFFFE0000
00000000000000
00000000000000
00000000000000
00000000000000
00000000000000
00000000000000
00000000000000
00000000000000
00000000000000
00000000000000
00000000000000
00000000000000
ENDCHAR
STARTCHAR U+00D4
ENCODING 212
SWIDTH 1000 0
DWIDTH 51 0
BBX 51 60 0 -12
BITMAP
000FFFFF800000
000FFFFF800000
000FFFFF800000
000FFFFF800000
000FFFFF800000
000FFFFF800000
03FE0003FE0000
03FE0003FE0000
03FE0003FE0000
03FE0003FE0000
03FE0003FE0000
03FE0003FE0000
03FFFFFFFE0000
03FFFFFFFE0000
03FFFFFFFE0000
03FFFFFFFE0000
03FFFFFFFE0000
03FFFFFFFE0000
FF8000000FF800
FF8000000FF800
FF8000000FF800
FF8000000FF800
FF8000000FF800
FF8000000FF800
FF8000000FF800
FF8000000FF800
FF8000000FF800
FF8000000FF800
FF8000000FF800
FF8000000FF800
FF8000000FF800
FF8000000FF800
FF8000000FF800
FF8000000FF800
FF8000000FF800
FF8000000FF800
FF8000000FF800
FF8000000FF800
FF8000000FF800
FF8000000FF800
FF8000000FF800
FF8000000FF800
03FFFFFFFE0000
03FFFFFFFE0000
03FFFFFFFE0000
03FFFFFFFE0000
03FFFFFFFE0000
03FFFFFFFE0000
00000000000000
00000000000000
00000000000000
00000000000000
00000000000000
00000000000000
00000000000000
00000000000000
00000000000000
00000000000000
00000000000000
00000000000000
ENDCHAR
STARTCHAR U+00D3
ENCODING 211
SWIDTH 1000 0
DWIDTH 51 0
BBX 51 60 0 -12
BITMAP
00003FFF800000
00003FFF800000
00003FFF800000
00003FFF800000
00003FFF800000
00003FFF800000
03FFF800000000
03FFF800000000
03FFF800000000
03FFF800000000
03FFF800000000
03FFF800000000
03FFFFFFFE0000
03FFFFFFFE0000
03FFFFFFFE0000
03FFFFFFFE0000
03FFFFFFFE0000
03FFFFFFFE0000
FF8000000FF800
FF8000000FF800
FF8000000FF800
FF8000000FF800
FF8000000FF800
FF8000000FF800
FF8000000FF800
FF8000000FF800
FF8000000FF800
FF8000000FF800
FF8000000FF800
FF8000000FF800
FF8000000FF800
FF8000000FF800
FF8000000FF800
FF8000000FF800
FF8000000FF800
FF8000000FF800
FF8000000FF800
FF8000000FF800
FF8000000FF800
FF8000000FF800
FF8000000FF800
FF8000000FF800
03FFFFFFFE0000
03FFFFFFFE0000
03FFFFFFFE0000
03FFFFFFFE0000
03FFFFFFFE0000
03FFFFFFFE0000
00000000000000
00000000000000
00000000000000
00000000000000
00000000000000
00000000000000
00000000000000
00000000000000
00000000000000
00000000000000
00000000000000
00000000000000
ENDCHAR
STARTCHAR U+00D2
ENCODING 210
SWIDTH 1000 0
DWIDTH 51 0
BBX 51 60 0 -12
BITMAP
000FFFE0000000
000FFFE0000000
000FFFE0000000
000FFFE0000000
000FFFE0000000
000FFFE0000000
000000FFFE0000
000000FFFE0000
000000FFFE0000
000000FFFE0000
000000FFFE0000
000000FFFE0000
03FFFFFFFE0000
03FFFFFFFE0000
03FFFFFFFE0000
03FFFFFFFE0000
03FFFFFFFE0000
03FFFFFFFE0000
FF8000000FF800
FF8000000FF800
FF8000000FF800
FF8000000FF800
FF8000000FF800
FF8000000FF800
FF8000000FF800
FF8000000FF800
FF8000000FF800
FF8000000FF800
FF8000000FF800
FF8000000FF800
FF8000000FF800
FF8000000FF800
FF8000000FF800
FF8000000FF800
FF8000000FF800
FF8000000FF800
FF8000000FF800
FF8000000FF800
FF8000000FF800
FF8000000FF800
FF8000000FF800
FF8000000FF800
03FFFFFFFE0000
03FFFFFFFE0000
03FFFFFFFE0000
03FFFFFFFE0000
03FFFFFFFE0000
03FFFFFFFE0000
00000000000000
00000000000000
00000000000000
00000000000000
00000000000000
00000000000000
00000000000000
00000000000000
00000000000000
00000000000000
00000000000000
00000000000000
ENDCHAR
STARTCHAR U+00D1
ENCODING 209
SWIDTH 1000 0
DWIDTH 51 0
BBX 51 60 0 -12
BITMAP
000FFFE00FF800
000FFFE00FF800
000FFFE00FF800
000FFFE00FF800
000FFFE00FF800
000FFFE00FF800
03FE00FFFE0000
03FE00FFFE0000
03FE00FFFE0000
03FE00FFFE0000
03FE00FFFE0000
03FE00FFFE0000
FFFE00000FF800
FFFE00000FF800
FFFE00000FF800
FFFE00000FF800
FFFE00000FF800
FFFE00000FF800
FF8FF8000FF800
FF8FF8000FF800
FF8FF8000FF800
FF8FF8000FF800
FF8FF8000FF800
FF8FF8000FF800
FF803FE00FF800
FF803FE00FF800
FF803FE00FF800
FF803FE00FF800
FF803FE00FF800
FF803FE00FF800
FF8000FF8FF800
FF8000FF8FF800
FF8000FF8FF800
FF8000FF8FF800
FF8000FF8FF800
FF8000FF8FF800
FF800003FFF800
FF800003FFF800
FF800003FFF800
FF800003FFF800
FF800003FFF800
FF800003FFF800
FF8000000FF800
FF8000000FF800
FF8000000FF800
FF8000000FF800
FF8000000FF800
FF8000000FF800
00000000000000
00000000000000
00000000000000
00000000000000
00000000000000
00000000000000
00000000000000
00000000000000
00000000000000
00000000000000
00000000000000
00000000000000
ENDCHAR
STARTCHAR U+00D0
ENCODING 208
SWIDTH 1000 0
DWIDTH 51 0
BBX 51 60 0 -12
BITMAP
00000000000000
00000000000000
00000000000000
00000000000000
00000000000000
00000000000000
FFFFFFFF800000
FFFFFFFF800000
FFFFFFFF800000
FFFFFFFF800000
FFFFFFFF800000
FFFFFFFF800000
03FE0003FE0000
03FE0003FE0000
03FE0003FE0000
03FE0003FE0000
03FE0003FE0000
03FE0003FE0000
03FE00000FF800
03FE00000FF800
03FE00000FF800
03FE00000FF800
03FE00000FF800
03FE00000FF800
FFFFFFE00FF800
FFFFFFE00FF800
FFFFFFE00FF800
FFFFFFE00FF800
FFFFFFE00FF800
FFFFFFE00FF800
03FE00000FF800
03FE00000FF800
03FE00000FF800
03FE00000FF800
03FE00000FF800
03FE00000FF800
03FE0003FE0000
03FE0003FE0000
03FE0003FE0000
03FE0003FE0000
03FE0003FE0000
03FE0003FE0000
FFFFFFFF800000
FFFFFFFF800000
FFFFFFFF800000
FFFFFFFF800000
FFFFFFFF800000
FFFFFFFF800000
00000000000000
00000000000000
00000000000000
00000000000000
00000000000000
00000000000000
00000000000000
00000000000000
00000000000000
00000000000000
00000000000000
00000000000000
ENDCHAR
STARTCHAR U+00CF
ENCODING 207
SWIDTH 1000 0
DWIDTH 51 0
BBX 51 60 0 -12
BITMAP
03FE0003FE0000
03FE0003FE0000
03FE0003FE0000
03FE0003FE0000
03FE0003FE0000
03FE0003FE0000
00000000000000
00000000000000
00000000000000
00000000000000
00000000000000
00000000000000
03FFFFFFFE0000
03FFFFFFFE0000
03FFFFFFFE0000
03FFFFFFFE0000
03FFFFFFFE0000
03FFFFFFFE0000
00003FE0000000
00003FE0000000
00003FE0000000
00003FE0000000
00003FE0000000
00003FE0000000
00003FE0000000
00003FE0000000
00003FE0000000
00003FE0000000
00003FE0000000
00003FE0000000
00003FE0000000
00003FE0000000
00003FE0000000
00003FE0000000
00003FE0000000
00003FE0000000
00003FE0000000
00003FE0000000
00003FE0000000
00003FE0000000
00003FE0000000
00003FE0000000
03FFFFFFFE0000
03FFFFFFFE0000
03FFFFFFFE0000
03FFFFFFFE0000
03FFFFFFFE0000
03FFFFFFFE0000
00000000000000
00000000000000
00000000000000
00000000000000
00000000000000
00000000000000
00000000000000
00000000000000
00000000000000
00000000000000
00000000000000
00000000000000
ENDCHAR
STARTCHAR U+00CE
ENCODING 206
SWIDTH 1000 0
DWIDTH 51 0
BBX 51 60 0 -12
BITMAP
000FFFFF800000
000FFFFF800000
000FFFFF800000
000FFFFF800000
000FFFFF800000
000FFFFF800000
03FE0003FE0000
03FE0003FE0000
03FE0003FE0000
03FE0003FE0000
03FE0003FE0000
03FE0003FE0000
03FFFFFFFE0000
03FFFFFFFE0000
03FFFFFFFE0000
03FFFFFFFE0000
03FFFFFFFE0000
03FFFFFFFE0000
00003FE0000000
00003FE0000000
00003FE0000000
00003FE0000000
00003FE0000000
00003FE0000000
00003FE0000000
00003FE0000000
00003FE0000000
00003FE0000000
00003FE0000000
00003FE0000000
00003FE0000000
00003FE0000000
00003FE0000000
00003FE0000000
00003FE0000000
00003FE0000000
00003FE0000000
00003FE0000000
00003FE0000000
00003FE0000000
00003FE0000000
00003FE0000000
03FFFFFFFE0000
03FFFFFFFE0000
03FFFFFFFE0000
03FFFFFFFE0000
03FFFFFFFE0000
03FFFFFFFE0000
00000000000000
00000000000000
00000000000000
00000000000000
00000000000000
00000000000000
00000000000000
00000000000000
00000000000000
00000000000000
00000000000000
00000000000000
ENDCHAR
STARTCHAR U+00CD
ENCODING 205
SWIDTH 1000 0
DWIDTH 51 0
BBX 51 60 0 -12
BITMAP
00003FFF800000
00003FFF800000
00003FFF800000
00003FFF800000
00003FFF800000
00003FFF800000
03FFF800000000
03FFF800000000
03FFF800000000
03FFF800000000
03FFF800000000
03FFF800000000
03FFFFFFFE0000
03FFFFFFFE0000
03FFFFFFFE0000
03FFFFFFFE0000
03FFFFFFFE0000
03FFFFFFFE0000
00003FE0000000
00003FE0000000
00003FE0000000
00003FE0000000
00003FE0000000
00003FE0000000
00003FE0000000
00003FE0000000
00003FE0000000
00003FE0000000
00003FE0000000
00003FE0000000
00003FE0000000
00003FE0000000
00003FE0000000
00003FE0000000
00003FE0000000
00003FE0000000
00003FE0000000
00003FE0000000
00003FE0000000
00003FE0000000
00003FE0000000
00003FE0000000
03FFFFFFFE0000
03FFFFFFFE0000
03FFFFFFFE0000
03FFFFFFFE0000
03FFFFFFFE0000
03FFFFFFFE0000
00000000000000
00000000000000
00000000000000
00000000000000
00000000000000
00000000000000
00000000000000
00000000000000
00000000000000
00000000000000
00000000000000
00000000000000
ENDCHAR
STARTCHAR U+00CC
ENCODING 204
SWIDTH 1000 0
DWIDTH 51 0
BBX 51 60 0 -12
BITMAP
000FFFE0000000
000FFFE0000000
000FFFE0000000
000FFFE0000000
000FFFE0000000
000FFFE0000000
000000FFFE0000
000000FFFE0000
000000FFFE0000
000000FFFE0000
000000FFFE0000
000000FFFE0000
03FFFFFFFE0000
03FFFFFFFE0000
03FFFFFFFE0000
03FFFFFFFE0000
03FFFFFFFE0000
03FFFFFFFE0000
00003FE0000000
00003FE0000000
00003FE0000000
00003FE0000000
00003FE0000000
00003FE0000000
00003FE0000000
00003FE0000000
00003FE0000000
00003FE0000000
00003FE0000000
00003FE0000000
00003FE0000000
00003FE0000000
00003FE0000000
00003FE0000000
00003FE0000000
00003FE0000000
00003FE0000000
00003FE0000000
00003FE0000000
00003FE0000000
00003FE0000000
00003FE0000000
03FFFFFFFE0000
03FFFFFFFE0000
03FFFFFFFE0000
03FFFFFFFE0000
03FFFFFFFE0000
03FFFFFFFE0000
00000000000000
00000000000000
00000000000000
00000000000000
00000000000000
00000000000000
00000000000000
00000000000000
00000000000000
00000000000000
00000000000000
00000000000000
ENDCHAR
STARTCHAR U+00CB
ENCODING 203
SWIDTH 1000 0
DWIDTH 51 0
BBX 51 60 0 -12
BITMAP
03FE0003FE0000
03FE0003FE0000
03FE0003FE0000
03FE0003FE0000
03FE0003FE0000
03FE0003FE0000
00000000000000
00000000000000
00000000000000
00000000000000
00000000000000
00000000000000
FFFFFFFFFFF800
FFFFFFFFFFF800
FFFFFFFFFFF800
FFFFFFFFFFF800
FFFFFFFFFFF800
FFFFFFFFFFF800
FF800000000000
FF800000000000
FF800000000000
FF800000000000
FF800000000000
FF800000000000
FFFFFFFF800000
FFFFFFFF800000
FFFFFFFF800000
FFFFFFFF800000
FFFFFFFF800000
FFFFFFFF800000
FF800000000000
FF800000000000
FF800000000000
FF800000000000
FF800000000000
FF800000000000
FF800000000000
FF800000000000
FF800000000000
FF800000000000
FF800000000000
FF800000000000
FFFFFFFFFFF800
FFFFFFFFFFF800
FFFFFFFFFFF800
FFFFFFFFFFF800
FFFFFFFFFFF800
FFFFFFFFFFF800
00000000000000
00000000000000
00000000000000
00000000000000
00000000000000
00000000000000
00000000000000
00000000000000
00000000000000
00000000000000
00000000000000
00000000000000
ENDCHAR
STARTCHAR U+00CA
ENCODING 202
SWIDTH 1000 0
DWIDTH 51 0
BBX 51 60 0 -12
BITMAP
000FFFFF800000
000FFFFF800000
000FFFFF800000
000FFFFF800000
000FFFFF800000
000FFFFF800000
03FE0003FE0000
03FE0003FE0000
03FE0003FE0000
03FE0003FE0000
03FE0003FE0000
03FE0003FE0000
FFFFFFFFFFF800
FFFFFFFFFFF800
FFFFFFFFFFF800
FFFFFFFFFFF800
FFFFFFFFFFF800
FFFFFFFFFFF800
FF800000000000
FF800000000000
FF800000000000
FF800000000000
FF800000000000
FF800000000000
FFFFFFE0000000
FFFFFFE0000000
FFFFFFE0000000
FFFFFFE0000000
FFFFFFE0000000
FFFFFFE0000000
FF800000000000
FF800000000000
FF800000000000
FF800000000000
FF800000000000
FF800000000000
FF800000000000
FF800000000000
FF800000000000
FF800000000000
FF800000000000
FF800000000000
FFFFFFFFFFF800
FFFFFFFFFFF800
FFFFFFFFFFF800
FFFFFFFFFFF800
FFFFFFFFFFF800
FFFFFFFFFFF800
00000000000000
00000000000000
00000000000000
00000000000000
00000000000000
00000000000000
00000000000000
00000000000000
00000000000000
00000000000000
00000000000000
00000000000000
ENDCHAR
STARTCHAR U+00C9
ENCODING 201
SWIDTH 1000 0
DWIDTH 51 0
BBX 51 60 0 -12
BITMAP
000000FFFE0000
000000FFFE0000
000000FFFE0000
000000FFFE0000
000000FFFE0000
000000FFFE0000
000FFFE0000000
000FFFE0000000
000FFFE0000000
000FFFE0000000
000FFFE0000000
000FFFE0000000
FFFFFFFFFFF800
FFFFFFFFFFF800
FFFFFFFFFFF800
FFFFFFFFFFF800
FFFFFFFFFFF800
FFFFFFFFFFF800
FF800000000000
FF800000000000
FF800000000000
FF800000000000
FF800000000000
FF800000000000
FFFFFFFF800000
FFFFFFFF800000
FFFFFFFF800000
FFFFFFFF800000
FFFFFFFF800000
FFFFFFFF800000
FF800000000000
FF800000000000
FF800000000000
FF800000000000
FF800000000000
FF800000000000
FF800000000000
FF800000000000
FF800000000000
FF800000000000
FF800000000000
FF800000000000
FFFFFFFFFFF800
FFFFFFFFFFF800
FFFFFFFFFFF800
FFFFFFFFFFF800
FFFFFFFFFFF800
FFFFFFFFFFF800
00000000000000
00000000000000
00000000000000
00000000000000
00000000000000
00000000000000
00000000000000
00000000000000
00000000000000
00000000000000
00000000000000
00000000000000
ENDCHAR
STARTCHAR U+00C8
ENCODING 200
SWIDTH 1000 0
DWIDTH 51 0
BBX 51 60 0 -12
BITMAP
03FFF800000000
03FFF800000000
03FFF800000000
03FFF800000000
03FFF800000000
03FFF800000000
00003FFF800000
00003FFF800000
00003FFF800000
00003FFF800000
00003FFF800000
00003FFF800000
FFFFFFFFFFF800
FFFFFFFFFFF800
FFFFFFFFFFF800
FFFFFFFFFFF800
FFFFFFFFFFF800
FFFFFFFFFFF800
FF800000000000
FF800000000000
FF800000000000
FF800000000000
FF800000000000
FF800000000000
FFFFFFFF800000
FFFFFFFF800000
FFFFFFFF800000
FFFFFFFF800000
FFFFFFFF800000
FFFFFFFF800000
FF800000000000
FF800000000000
FF800000000000
FF800000000000
FF800000000000
FF800000000000
FF800000000000
FF800000000000
FF800000000000
FF800000000000
FF800000000000
FF800000000000
FFFFFFFFFFF800
FFFFFFFFFFF800
FFFFFFFFFFF800
FFFFFFFFFFF800
FFFFFFFFFFF800
FFFFFFFFFFF800
00000000000000
00000000000000
00000000000000
00000000000000
00000000000000
00000000000000
00000000000000
00000000000000
00000000000000
00000000000000
00000000000000
00000000000000
ENDCHAR
STARTCHAR U+00C7
ENCODING 199
SWIDTH 1000 0
DWIDTH 51 0
BBX 51 60 0 -12
BITMAP
00000000000000
00000000000000
00000000000000
00000000000000
00000000000000
00000000000000
000FFFFFFE0000
000FFFFFFE0000
000FFFFFFE0000
000FFFFFFE0000
000FFFFFFE0000
000FFFFFFE0000
03FE00000FF800
03FE00000FF800
03FE00000FF800
03FE00000FF800
03FE00000FF800
03FE00000FF800
FF800000000000
FF800000000000
FF800000000000
FF800000000000
FF800000000000
FF800000000000
FF800000000000
FF800000000000
FF800000000000
FF800000000000
FF800000000000
FF800000000000
FF800000000000
FF800000000000
FF800000000000
FF800000000000
FF800000000000
FF800000000000
03FE00000FF800
03FE00000FF800
03FE00000FF800
03FE00000FF800
03FE00000FF800
03FE00000FF800
000FFFFFFE0000
000FFFFFFE0000
000FFFFFFE0000
000FFFFFFE0000
000FFFFFFE0000
000FFFFFFE0000
000000FF800000
000000FF800000
000000FF800000
000000FF800000
000000FF800000
000000FF800000
000FFFFF800000
000FFFFF800000
000FFFFF800000
000FFFFF800000
000FFFFF800000
000FFFFF800000
ENDCHAR
STARTCHAR U+00C6
ENCODING 198
SWIDTH 1000 0
DWIDTH 51 0
BBX 51 60 0 -12
BITMAP
00000000000000
00000000000000
00000000000000
00000000000000
00000000000000
00000000000000
000FFFFFFFF800
000FFFFFFFF800
000FFFFFFFF800
000FFFFFFFF800
000FFFFFFFF800
000FFFFFFFF800
03FE3FE0000000
03FE3FE0000000
03FE3FE0000000
03FE3FE0000000
03FE3FE0000000
03FE3FE0000000
FF803FE0000000
FF803FE0000000
FF803FE0000000
FF803FE0000000
FF803FE0000000
FF803FE0000000
FF803FFFFE0000
FF803FFFFE0000
FF803FFFFE0000
FF803FFFFE0000
FF803FFFFE0000
FF803FFFFE0000
FFFFFFE0000000
FFFFFFE0000000
FFFFFFE0000000
FFFFFFE0000000
FFFFFFE0000000
FFFFFFE0000000
FF803FE0000000
FF803FE0000000
FF803FE0000000
FF803FE0000000
FF803FE0000000
FF803FE0000000
FF803FFFFFF800
FF803FFFFFF800
FF803FFFFFF800
FF803FFFFFF800
FF803FFFFFF800
FF803FFFFFF800
00000000000000
00000000000000
00000000000000
00000000000000
00000000000000
00000000000000
00000000000000
00000000000000
00000000000000
00000000000000
00000000000000
00000000000000
ENDCHAR
STARTCHAR U+00C5
ENCODING 197
SWIDTH 1000 0
DWIDTH 51 0
BBX 51 60 0 -12
BITMAP
000FFFFF800000
000FFFFF800000
000FFFFF800000
000FFFFF800000
000FFFFF800000
000FFFFF800000
03FE0003FE0000
03FE0003FE0000
03FE0003FE0000
03FE0003FE0000
03FE0003FE0000
03FE0003FE0000
000FFFFF800000
000FFFFF800000
000FFFFF800000
000FFFFF800000
000FFFFF800000
000FFFFF800000
000FFFFF800000
000FFFFF800000
000FFFFF800000
000FFFFF800000
000FFFFF800000
000FFFFF800000
03FE0003FE0000
03FE0003FE0000
03FE0003FE0000
03FE0003FE0000
03FE0003FE0000
03FE0003FE0000
FFFFFFFFFFF800
FFFFFFFFFFF800
FFFFFFFFFFF800
FFFFFFFFFFF800
FFFFFFFFFFF800
FFFFFFFFFFF800
FF8000000FF800
FF8000000FF800
FF8000000FF800
FF8000000FF800
FF8000000FF800
FF8000000FF800
FF8000000FF800
FF8000000FF800
FF8000000FF800
FF8000000FF800
FF8000000FF800
FF8000000FF800
00000000000000
00000000000000
00000000000000
00000000000000
00000000000000
00000000000000
00000000000000
00000000000000
00000000000000
00000000000000
00000000000000
00000000000000
ENDCHAR
STARTCHAR U+00C4
ENCODING 196
SWIDTH 1000 0
DWIDTH 51 0
BBX 51 60 0 -12
BITMAP
03FE0003FE0000
03FE0003FE0000
03FE0003FE0000
03FE0003FE0000
03FE0003FE0000
03FE0003FE0000
00000000000000
00000000000000
00000000000000
00000000000000
00000000000000
00000000000000
00003FE0000000
00003FE0000000
00003FE0000000
00003FE0000000
00003FE0000000
00003FE0000000
000FF8FF800000
000FF8FF800000
000FF8FF800000
000FF8FF800000
000FF8FF800000
000FF8FF800000
03FE0003FE0000
03FE0003FE0000
03FE0003FE0000
03FE0003FE0000
03FE0003FE0000
03FE0003FE0000
FFFFFFFFFFF800
FFFFFFFFFFF800
FFFFFFFFFFF800
FFFFFFFFFFF800
FFFFFFFFFFF800
FFFFFFFFFFF800
FF8000000FF800
FF8000000FF800
FF8000000FF800
FF8000000FF800
FF8000000FF800
FF8000000FF800
FF8000000FF800
FF8000000FF800
FF8000000FF800
FF8000000FF800
FF8000000FF800
FF8000000FF800
00000000000000
00000000000000
00000000000000
00000000000000
00000000000000
00000000000000
00000000000000
00000000000000
00000000000000
00000000000000
00000000000000
00000000000000
ENDCHAR
STARTCHAR U+00C3
ENCODING 195
SWIDTH 1000 0
DWIDTH 51 0
BBX 51 60 0 -12
BITMAP
000FFFE00FF800
000FFFE00FF800
000FFFE00FF800
000FFFE00FF800
000FFFE00FF800
000FFFE00FF800
03FE00FFFE0000
03FE00FFFE0000
03FE00FFFE0000
03FE00FFFE0000
03FE00FFFE0000
03FE00FFFE0000
00003FE0000000
00003FE0000000
00003FE0000000
00003FE0000000
00003FE0000000
00003FE0000000
000FF8FF800000
000FF8FF800000
000FF8FF800000
000FF8FF800000
000FF8FF800000
000FF8FF800000
03FE0003FE0000
03FE0003FE0000
03FE0003FE0000
03FE0003FE0000
03FE0003FE0000
03FE0003FE0000
FFFFFFFFFFF800
FFFFFFFFFFF800
FFFFFFFFFFF800
FFFFFFFFFFF800
FFFFFFFFFFF800
FFFFFFFFFFF800
FF8000000FF800
FF8000000FF800
FF8000000FF800
FF8000000FF800
FF8000000FF800
FF8000000FF800
FF8000000FF800
FF8000000FF800
FF8000000FF800
FF8000000FF800
FF8000000FF800
FF8000000FF800
00000000000000
00000000000000
00000000000000
00000000000000
00000000000000
00000000000000
00000000000000
00000000000000
00000000000000
00000000000000
00000000000000
00000000000000
ENDCHAR
STARTCHAR U+00C2
ENCODING 194
SWIDTH 1000 0
DWIDTH 51 0
BBX 51 60 0 -12
BITMAP
000FFFFF800000
000FFFFF800000
000FFFFF800000
000FFFFF800000
000FFFFF800000
000FFFFF800000
03FE0003FE0000
03FE0003FE0000
03FE0003FE0000
03FE0003FE0000
03FE0003FE0000
03FE0003FE0000
00003FE0000000
00003FE0000000
00003FE0000000
00003FE0000000
00003FE0000000
00003FE0000000
000FF8FF800000
000FF8FF800000
000FF8FF800000
000FF8FF800000
000FF8FF800000
000FF8FF800000
03FE0003FE0000
03FE0003FE0000
03FE0003FE0000
03FE0003FE0000
03FE0003FE0000
03FE0003FE0000
FFFFFFFFFFF800
FFFFFFFFFFF800
FFFFFFFFFFF800
FFFFFFFFFFF800
FFFFFFFFFFF800
FFFFFFFFFFF800
FF8000000FF800
FF8000000FF800
FF8000000FF800
FF8000000FF800
FF8000000FF800
FF8000000FF800
FF8000000FF800
FF8000000FF800
FF8000000FF800
FF8000000FF800
FF8000000FF800
FF8000000FF800
00000000000000
00000000000000
00000000000000
00000000000000
00000000000000
00000000000000
00000000000000
00000000000000
00000000000000
00000000000000
00000000000000
00000000000000
ENDCHAR
STARTCHAR U+00C1
ENCODING 193
SWIDTH 1000 0
DWIDTH 51 0
BBX 51 60 0 -12
BITMAP
00003FFF800000
00003FFF800000
00003FFF800000
00003FFF800000
00003FFF800000
00003FFF800000
03FFF800000000
03FFF800000000
03FFF800000000
03FFF800000000
03FFF800000000
03FFF800000000
00003FE0000000
00003FE0000000
00003FE0000000
00003FE0000000
00003FE0000000
00003FE0000000
000FF8FF800000
000FF8FF800000
000FF8FF800000
000FF8FF800000
000FF8FF800000
000FF8FF800000
03FE0003FE0000
03FE0003FE0000
03FE0003FE0000
03FE0003FE0000
03FE0003FE0000
03FE0003FE0000
FFFFFFFFFFF800
FFFFFFFFFFF800
FFFFFFFFFFF800
FFFFFFFFFFF800
FFFFFFFFFFF800
FFFFFFFFFFF800
FF8000000FF800
FF8000000FF800
FF8000000FF800
FF8000000FF800
FF8000000FF800
FF8000000FF800
FF8000000FF800
FF8000000FF800
FF8000000FF800
FF8000000FF800
FF8000000FF800
FF8000000FF800
00000000000000
00000000000000
00000000000000
00000000000000
00000000000000
00000000000000
00000000000000
00000000000000
00000000000000
00000000000000
00000000000000
00000000000000
ENDCHAR
STARTCHAR U+00C0
ENCODING 192
SWIDTH 1000 0
DWIDTH 51 0
BBX 51 60 0 -12
BITMAP
000FFFE0000000
000FFFE0000000
000FFFE0000000
000FFFE0000000
000FFFE0000000
000FFFE0000000
000000FFFE0000
000000FFFE0000
000000FFFE0000
000000FFFE0000
000000FFFE0000
000000FFFE0000
00003FE0000000
00003FE0000000
00003FE0000000
00003FE0000000
00003FE0000000
00003FE0000000
000FF8FF800000
000FF8FF800000
000FF8FF800000
000FF8FF800000
000FF8FF800000
000FF8FF800000
03FE0003FE0000
03FE0003FE0000
03FE0003FE0000
03FE0003FE0000
03FE0003FE0000
03FE0003FE0000
FFFFFFFFFFF800
FFFFFFFFFFF800
FFFFFFFFFFF800
FFFFFFFFFFF800
FFFFFFFFFFF800
FFFFFFFFFFF800
FF8000000FF800
FF8000000FF800
FF8000000FF800
FF8000000FF800
FF8000000FF800
FF8000000FF800
FF8000000FF800
FF8000000FF800
FF8000000FF800
FF8000000FF800
FF8000000FF800
FF8000000FF800
00000000000000
00000000000000
00000000000000
00000000000000
00000000000000
00000000000000
00000000000000
00000000000000
00000000000000
00000000000000
00000000000000
00000000000000
ENDCHAR
STARTCHAR U+00BF
ENCODING 191
SWIDTH 1000 0
DWIDTH 51 0
BBX 51 60 0 -12
BITMAP
00000000000000
00000000000000
00000000000000
00000000000000
00000000000000
00000000000000
00003FE0000000
00003FE0000000
00003FE0000000
00003FE0000000
00003FE0000000
00003FE0000000
00000000000000
00000000000000
00000000000000
00000000000000
00000000000000
00000000000000
00003FE0000000
00003FE0000000
00003FE0000000
00003FE0000000
00003FE0000000
00003FE0000000
00003FE0000000
00003FE0000000
00003FE0000000
00003FE0000000
00003FE0000000
00003FE0000000
03FFF800000000
03FFF800000000
03FFF800000000
03FFF800000000
03FFF800000000
03FFF800000000
FF8000000FF800
FF8000000FF800
FF8000000FF800
FF8000000FF800
FF8000000FF800
FF8000000FF800
03FFFFFFFE0000
03FFFFFFFE0000
03FFFFFFFE0000
03FFFFFFFE0000
03FFFFFFFE0000
03FFFFFFFE0000
00000000000000
00000000000000
00000000000000
00000000000000
00000000000000
00000000000000
00000000000000
00000000000000
00000000000000
00000000000000
00000000000000
00000000000000
ENDCHAR
STARTCHAR U+00BE
ENCODING 190
SWIDTH 1000 0
DWIDTH 51 0
BBX 51 60 0 -12
BITMAP
FFFFFFE0000000
FFFFFFE0000000
FFFFFFE0000000
FFFFFFE0000000
FFFFFFE0000000
FFFFFFE0000000
00003FE0000000
00003FE0000000
00003FE0000000
00003FE0000000
00003FE0000000
00003FE0000000
03FFF803FE0000
03FFF803FE0000
03FFF803FE0000
03FFF803FE0000
03FFF803FE0000
03FFF803FE0000
00003FFF800000
00003FFF800000
00003FFF800000
00003FFF800000
00003FFF800000
00003FFF800000
FFFFFFE0000000
FFFFFFE0000000
FFFFFFE0000000
FFFFFFE0000000
FFFFFFE0000000
FFFFFFE0000000
000FF803FE0000
000FF803FE0000
000FF803FE0000
000FF803FE0000
000FF803FE0000
000FF803FE0000
03FE00FFFE0000
03FE00FFFE0000
03FE00FFFE0000
03FE00FFFE0000
03FE00FFFE0000
03FE00FFFE0000
FF803FE3FE0000
FF803FE3FE0000
FF803FE3FE0000
FF803FE3FE0000
FF803FE3FE0000
FF803FE3FE0000
000FFFFFFFF800
000FFFFFFFF800
000FFFFFFFF800
000FFFFFFFF800
000FFFFFFFF800
000FFFFFFFF800
00000003FE0000
00000003FE0000
00000003FE0000
00000003FE0000
00000003FE0000
00000003FE0000
ENDCHAR
STARTCHAR U+00BD
ENCODING 189
SWIDTH 1000 0
DWIDTH 51 0
BBX 51 60 0 -12
BITMAP
00000000000000
00000000000000
00000000000000
00000000000000
00000000000000
00000000000000
03FE0000000000
03FE0000000000
03FE0000000000
03FE0000000000
03FE0000000000
03FE0000000000
FFFE0003FE0000
FFFE0003FE0000
FFFE0003FE0000
FFFE0003FE0000
FFFE0003FE0000
FFFE0003FE0000
03FE00FF800000
03FE00FF800000
03FE00FF800000
03FE00FF800000
03FE00FF800000
03FE00FF800000
03FE3FE0000000
03FE3FE0000000
03FE3FE0000000
03FE3FE0000000
03FE3FE0000000
03FE3FE0000000
000FF8FFFE0000
000FF8FFFE0000
000FF8FFFE0000
000FF8FFFE0000
000FF8FFFE0000
000FF8FFFE0000
03FE3FE00FF800
03FE3FE00FF800
03FE3FE00FF800
03FE3FE00FF800
03FE3FE00FF800
03FE3FE00FF800
FF800003FE0000
FF800003FE0000
FF800003FE0000
FF800003FE0000
FF800003FE0000
FF800003FE0000
000000FF800000
000000FF800000
000000FF800000
000000FF800000
000000FF800000
000000FF800000
00003FFFFFF800
00003FFFFFF800
00003FFFFFF800
00003FFFFFF800
00003FFFFFF800
00003FFFFFF800
ENDCHAR
STARTCHAR U+00BC
ENCODING 188
SWIDTH 1000 0
DWIDTH 51 0
BBX 51 60 0 -12
BITMAP
00000000000000
00000000000000
00000000000000
00000000000000
00000000000000
00000000000000
03FE0000000000
03FE0000000000
03FE0000000000
03FE0000000000
03FE0000000000
03FE0000000000
FFFE0003FE0000
FFFE0003FE0000
FFFE0003FE0000
FFFE0003FE0000
FFFE0003FE0000
FFFE0003FE0000
03FE00FF800000
03FE00FF800000
03FE00FF800000
03FE00FF800000
03FE00FF800000
03FE00FF800000
03FE3FE0000000
03FE3FE0000000
03FE3FE0000000
03FE3FE0000000
03FE3FE0000000
03FE3FE0000000
000FF803FE0000
000FF803FE0000
000FF803FE0000
000FF803FE0000
000FF803FE0000
000FF803FE0000
03FE00FFFE0000
03FE00FFFE0000
03FE00FFFE0000
03FE00FFFE0000
03FE00FFFE0000
03FE00FFFE0000
FF803FE3FE0000
FF803FE3FE0000
FF803FE3FE0000
FF803FE3FE0000
FF803FE3FE0000
FF803FE3FE0000
000FFFFFFFF800
000FFFFFFFF800
000FFFFFFFF800
000FFFFFFFF800
000FFFFFFFF800
000FFFFFFFF800
00000003FE0000
00000003FE0000
00000003FE0000
00000003FE0000
00000003FE0000
00000003FE0000
ENDCHAR
STARTCHAR U+00BB
ENCODING 187
SWIDTH 1000 0
DWIDTH 51 0
BBX 51 60 0 -12
BITMAP
00000000000000
00000000000000
00000000000000
00000000000000
00000000000000
00000000000000
FF803FE0000000
FF803FE0000000
FF803FE0000000
FF803FE0000000
FF803FE0000000
FF803FE0000000
03FE00FF800000
03FE00FF800000
03FE00FF800000
03FE00FF800000
03FE00FF800000
03FE00FF800000
000FF803FE0000
000FF803FE0000
000FF803FE0000
000FF803FE0000
000FF803FE0000
000FF803FE0000
00003FE00FF800
00003FE00FF800
00003FE00FF800
00003FE00FF800
00003FE00FF800
00003FE00FF800
000FF803FE0000
000FF803FE0000
000FF803FE0000
000FF803FE0000
000FF803FE0000
000FF803FE0000
03FE00FF800000
03FE00FF800000
03FE00FF800000
03FE00FF800000
03FE00FF800000
03FE00FF800000
FF803FE0000000
FF803FE0000000
FF803FE0000000
FF803FE0000000
FF803FE0000000
FF803FE0000000
00000000000000
00000000000000
00000000000000
00000000000000
00000000000000
00000000000000
00000000000000
00000000000000
00000000000000
00000000000000
00000000000000
00000000000000
ENDCHAR
STARTCHAR U+00BA
ENCODING 186
SWIDTH 1000 0
DWIDTH 51 0
BBX 51 60 0 -12
BITMAP
00000000000000
00000000000000
00000000000000
00000000000000
00000000000000
00000000000000
03FFFFFFFE0000
03FFFFFFFE0000
03FFFFFFFE0000
03FFFFFFFE0000
03FFFFFFFE0000
03FFFFFFFE0000
FF8000000FF800
FF8000000FF800
FF8000000FF800
FF8000000FF800
FF8000000FF800
FF8000000FF800
FF8000000FF800
FF8000000FF800
FF8000000FF800
FF8000000FF800
FF8000000FF800
FF8000000FF800
FF8000000FF800
FF8000000FF800
FF8000000FF800
FF8000000FF800
FF8000000FF800
FF8000000FF800
03FFFFFFFE0000
03FFFFFFFE0000
03FFFFFFFE0000
03FFFFFFFE0000
03FFFFFFFE0000
03FFFFFFFE0000
00000000000000
00000000000000
00000000000000
00000000000000
00000000000000
00000000000000
FFFFFFFFFFF800
FFFFFFFFFFF800
FFFFFFFFFFF800
FFFFFFFFFFF800
FFFFFFFFFFF800
FFFFFFFFFFF800
00000000000000
00000000000000
00000000000000
00000000000000
00000000000000
00000000000000
00000000000000
00000000000000
00000000000000
00000000000000
00000000000000
00000000000000
ENDCHAR
STARTCHAR U+00B9
ENCODING 185
SWIDTH 1000 0
DWIDTH 51 0
BBX 51 60 0 -12
BITMAP
00003FE0000000
00003FE0000000
00003FE0000000
00003FE0000000
00003FE0000000
00003FE0000000
000FFFE0000000
000FFFE0000000
000FFFE0000000
000FFFE0000000
000FFFE0000000
000FFFE0000000
00003FE0000000
00003FE0000000
00003FE0000000
00003FE0000000
00003FE0000000
00003FE0000000
00003FE0000000
00003FE0000000
00003FE0000000
00003FE0000000
00003FE0000000
00003FE0000000
000FFFFF800000
000FFFFF800000
000FFFFF800000
000FFFFF800000
000FFFFF800000
000FFFFF800000
00000000000000
00000000000000
00000000000000
00000000000000
00000000000000
00000000000000
00000000000000
00000000000000
00000000000000
00000000000000
00000000000000
00000000000000
00000000000000
00000000000000
00000000000000
00000000000000
00000000000000
00000000000000
00000000000000
00000000000000
00000000000000
00000000000000
00000000000000
00000000000000
00000000000000
00000000000000
00000000000000
00000000000000
00000000000000
00000000000000
ENDCHAR
STARTCHAR U+00B8
ENCODING 184
SWIDTH 1000 0
DWIDTH 51 0
BBX 51 60 0 -12
BITMAP
00000000000000
00000000000000
00000000000000
00000000000000
00000000000000
00000000000000
00000000000000
00000000000000
00000000000000
00000000000000
00000000000000
00000000000000
00000000000000
00000000000000
00000000000000
00000000000000
00000000000000
00000000000000
00000000000000
00000000000000
00000000000000
00000000000000
00000000000000
00000000000000
00000000000000
00000000000000
00000000000000
00000000000000
00000000000000
00000000000000
00000000000000
00000000000000
00000000000000
00000000000000
00000000000000
00000000000000
00000000000000
00000000000000
00000000000000
00000000000000
00000000000000
00000000000000
00000000000000
00000000000000
00000000000000
00000000000000
00000000000000
00000000000000
000000FF800000
000000FF800000
000000FF800000
000000FF800000
000000FF800000
000000FF800000
000FFFFF800000
000FFFFF800000
000FFFFF800000
000FFFFF800000
000FFFFF800000
000FFFFF800000
ENDCHAR
STARTCHAR U+2022
ENCODING 8226
SWIDTH 1000 0
DWIDTH 51 0
BBX 51 60 0 -12
BITMAP
00000000000000
00000000000000
00000000000000
00000000000000
00000000000000
00000000000000
00000000000000
00000000000000
00000000000000
00000000000000
00000000000000
00000000000000
00000000000000
00000000000000
00000000000000
00000000000000
00000000000000
00000000000000
000FFFE0000000
000FFFE0000000
000FFFE0000000
000FFFE0000000
000FFFE0000000
000FFFE0000000
000FFFE0000000
000FFFE0000000
000FFFE0000000
000FFFE0000000
000FFFE0000000
000FFFE0000000
00000000000000
00000000000000
00000000000000
00000000000000
00000000000000
00000000000000
00000000000000
00000000000000
00000000000000
00000000000000
00000000000000
00000000000000
00000000000000
00000000000000
00000000000000
00000000000000
00000000000000
00000000000000
00000000000000
00000000000000
00000000000000
00000000000000
00000000000000
00000000000000
00000000000000
00000000000000
00000000000000
00000000000000
00000000000000
00000000000000
ENDCHAR
STARTCHAR U+00B6
ENCODING 182
SWIDTH 1000 0
DWIDTH 51 0
BBX 51 60 0 -12
BITMAP
00000000000000
00000000000000
00000000000000
00000000000000
00000000000000
00000000000000
03FFFFFFFFF800
03FFFFFFFFF800
03FFFFFFFFF800
03FFFFFFFFF800
03FFFFFFFFF800
03FFFFFFFFF800
FFFE00FF8FF800
FFFE00FF8FF800
FFFE00FF8FF800
FFFE00FF8FF800
FFFE00FF8FF800
FFFE00FF8FF800
FFFE00FF8FF800
FFFE00FF8FF800
FFFE00FF8FF800
FFFE00FF8FF800
FFFE00FF8FF800
FFFE00FF8FF800
03FFFFFFFFF800
03FFFFFFFFF800
03FFFFFFFFF800
03FFFFFFFFF800
03FFFFFFFFF800
03FFFFFFFFF800
000000FF8FF800
000000FF8FF800
000000FF8FF800
000000FF8FF800
000000FF8FF800
000000FF8FF800
000000FF8FF800
000000FF8FF800
000000FF8FF800
000000FF8FF800
000000FF8FF800
000000FF8FF800
000000FF8FF800
000000FF8FF800
000000FF8FF800
000000FF8FF800
000000FF8FF800
000000FF8FF800
00000000000000
00000000000000
00000000000000
00000000000000
00000000000000
00000000000000
00000000000000
00000000000000
00000000000000
00000000000000
00000000000000
00000000000000
ENDCHAR
STARTCHAR U+00B5
ENCODING 181
SWIDTH 1000 0
DWIDTH 51 0
BBX 51 60 0 -12
BITMAP
00000000000000
00000000000000
00000000000000
00000000000000
00000000000000
00000000000000
00000000000000
00000000000000
00000000000000
00000000000000
00000000000000
00000000000000
00000000000000
00000000000000
00000000000000
00000000000000
00000000000000
00000000000000
03FE00000FF800
03FE00000FF800
03FE00000FF800
03FE00000FF800
03FE00000FF800
03FE00000FF800
03FE00000FF800
03FE00000FF800
03FE00000FF800
03FE00000FF800
03FE00000FF800
03FE00000FF800
03FE00000FF800
03FE00000FF800
03FE00000FF800
03FE00000FF800
03FE00000FF800
03FE00000FF800
03FFF803FFF800
03FFF803FFF800
03FFF803FFF800
03FFF803FFF800
03FFF803FFF800
03FFF803FFF800
03FE3FFF8FF800
03FE3FFF8FF800
03FE3FFF8FF800
03FE3FFF8FF800
03FE3FFF8FF800
03FE3FFF8FF800
03FE0000000000
03FE0000000000
03FE0000000000
03FE0000000000
03FE0000000000
03FE0000000000
FF800000000000
FF800000000000
FF800000000000
FF800000000000
FF800000000000
FF800000000000
ENDCHAR
STARTCHAR U+00B4
ENCODING 180
SWIDTH 1000 0
DWIDTH 51 0
BBX 51 60 0 -12
BITMAP
00000000000000
00000000000000
00000000000000
00000000000000
00000000000000
00000000000000
000000FFFE0000
000000FFFE0000
000000FFFE0000
000000FFFE0000
000000FFFE0000
000000FFFE0000
000000FF800000
000000FF800000
000000FF800000
000000FF800000
000000FF800000
000000FF800000
00003FE0000000
00003FE0000000
00003FE0000000
00003FE0000000
00003FE0000000
00003FE0000000
00000000000000
00000000000000
00000000000000
00000000000000
00000000000000
00000000000000
00000000000000
00000000000000
00000000000000
00000000000000
00000000000000
00000000000000
00000000000000
00000000000000
00000000000000
00000000000000
00000000000000
00000000000000
00000000000000
00000000000000
00000000000000
00000000000000
00000000000000
00000000000000
00000000000000
00000000000000
00000000000000
00000000000000
00000000000000
00000000000000
00000000000000
00000000000000
00000000000000
00000000000000
00000000000000
00000000000000
ENDCHAR
STARTCHAR U+00B3
ENCODING 179
SWIDTH 1000 0
DWIDTH 51 0
BBX 51 60 0 -12
BITMAP
03FFFFFFFE0000
03FFFFFFFE0000
03FFFFFFFE0000
03FFFFFFFE0000
03FFFFFFFE0000
03FFFFFFFE0000
00000003FE0000
00000003FE0000
00000003FE0000
00000003FE0000
00000003FE0000
00000003FE0000
00003FFF800000
00003FFF800000
00003FFF800000
00003FFF800000
00003FFF800000
00003FFF800000
00000003FE0000
00000003FE0000
00000003FE0000
00000003FE0000
00000003FE0000
00000003FE0000
03FFFFFF800000
03FFFFFF800000
03FFFFFF800000
03FFFFFF800000
03FFFFFF800000
03FFFFFF800000
00000000000000
00000000000000
00000000000000
00000000000000
00000000000000
00000000000000
00000000000000
00000000000000
00000000000000
00000000000000
00000000000000
00000000000000
00000000000000
00000000000000
00000000000000
00000000000000
00000000000000
00000000000000
00000000000000
00000000000000
00000000000000
00000000000000
00000000000000
00000000000000
00000000000000
00000000000000
00000000000000
00000000000000
00000000000000
00000000000000
ENDCHAR
STARTCHAR U+00B2
ENCODING 178
SWIDTH 1000 0
DWIDTH 51 0
BBX 51 60 0 -12
BITMAP
000FFFFF800000
000FFFFF800000
000FFFFF800000
000FFFFF800000
000FFFFF800000
000FFFFF800000
03FE0003FE0000
03FE0003FE0000
03FE0003FE0000
03FE0003FE0000
03FE0003FE0000
03FE0003FE0000
00003FFF800000
00003FFF800000
00003FFF800000
00003FFF800000
00003FFF800000
00003FFF800000
000FF800000000
000FF800000000
000FF800000000
000FF800000000
000FF800000000
000FF800000000
03FFFFFFFE0000
03FFFFFFFE0000
03FFFFFFFE0000
03FFFFFFFE0000
03FFFFFFFE0000
03FFFFFFFE0000
00000000000000
00000000000000
00000000000000
00000000000000
00000000000000
00000000000000
00000000000000
00000000000000
00000000000000
00000000000000
00000000000000
00000000000000
00000000000000
00000000000000
00000000000000
00000000000000
00000000000000
00000000000000
00000000000000
00000000000000
00000000000000
00000000000000
00000000000000
00000000000000
00000000000000
00000000000000
00000000000000
00000000000000
00000000000000
00000000000000
ENDCHAR
STARTCHAR U+00AF
ENCODING 175
SWIDTH 1000 0
DWIDTH 51 0
BBX 51 60 0 -12
BITMAP
03FFFFFFFE0000
03FFFFFFFE0000
03FFFFFFFE0000
03FFFFFFFE0000
03FFFFFFFE0000
03FFFFFFFE0000
00000000000000
00000000000000
00000000000000
00000000000000
00000000000000
00000000000000
00000000000000
00000000000000
00000000000000
00000000000000
00000000000000
00000000000000
00000000000000
00000000000000
00000000000000
00000000000000
00000000000000
00000000000000
00000000000000
00000000000000
00000000000000
00000000000000
00000000000000
00000000000000
00000000000000
00000000000000
00000000000000
00000000000000
00000000000000
00000000000000
00000000000000
00000000000000
00000000000000
00000000000000
00000000000000
00000000000000
00000000000000
00000000000000
00000000000000
00000000000000
00000000000000
00000000000000
00000000000000
00000000000000
00000000000000
00000000000000
00000000000000
00000000000000
00000000000000
00000000000000
00000000000000
00000000000000
00000000000000
00000000000000
ENDCHAR
STARTCHAR U+00AE
ENCODING 174
SWIDTH 1000 0
DWIDTH 51 0
BBX 51 60 0 -12
BITMAP
00000000000000
00000000000000
00000000000000
00000000000000
00000000000000
00000000000000
000FFFFF800000
000FFFFF800000
000FFFFF800000
000FFFFF800000
000FFFFF800000
000FFFFF800000
03FE0003FE0000
03FE0003FE0000
03FE0003FE0000
03FE0003FE0000
03FE0003FE0000
03FE0003FE0000
FF8FFFFF8FF800
FF8FFFFF8FF800
FF8FFFFF8FF800
FF8FFFFF8FF800
FF8FFFFF8FF800
FF8FFFFF8FF800
FF8FF803FFF800
FF8FF803FFF800
FF8FF803FFF800
FF8FF803FFF800
FF8FF803FFF800
FF8FF803FFF800
FF8FFFFF8FF800
FF8FFFFF8FF800
FF8FFFFF8FF800
FF8FFFFF8FF800
FF8FFFFF8FF800
FF8FFFFF8FF800
FF8FFFE00FF800
FF8FFFE00FF800
FF8FFFE00FF800
FF8FFFE00FF800
FF8FFFE00FF800
FF8FFFE00FF800
03FFF8FFFE0000
03FFF8FFFE0000
03FFF8FFFE0000
03FFF8FFFE0000
03FFF8FFFE0000
03FFF8FFFE0000
000FFFFF800000
000FFFFF800000
000FFFFF800000
000FFFFF800000
000FFFFF800000
000FFFFF800000
00000000000000
00000000000000
00000000000000
00000000000000
00000000000000
00000000000000
ENDCHAR
STARTCHAR U+00D7
ENCODING 215
SWIDTH 1000 0
DWIDTH 51 0
BBX 51 60 0 -12
BITMAP
00000000000000
00000000000000
00000000000000
00000000000000
00000000000000
00000000000000
00000000000000
00000000000000
00000000000000
00000000000000
00000000000000
00000000000000
03FE0003FE0000
03FE0003FE0000
03FE0003FE0000
03FE0003FE0000
03FE0003FE0000
03FE0003FE0000
000FF8FF800000
000FF8FF800000
000FF8FF800000
000FF8FF800000
000FF8FF800000
000FF8FF800000
00003FE0000000
00003FE0000000
00003FE0000000
00003FE0000000
00003FE0000000
00003FE0000000
000FF8FF800000
000FF8FF800000
000FF8FF800000
000FF8FF800000
000FF8FF800000
000FF8FF800000
03FE0003FE0000
03FE0003FE0000
03FE0003FE0000
03FE0003FE0000
03FE0003FE0000
03FE0003FE0000
00000000000000
00000000000000
00000000000000
00000000000000
00000000000000
00000000000000
00000000000000
00000000000000
00000000000000
00000000000000
00000000000000
00000000000000
00000000000000
00000000000000
00000000000000
00000000000000
00000000000000
00000000000000
ENDCHAR
STARTCHAR U+00AC
ENCODING 172
SWIDTH 1000 0
DWIDTH 51 0
BBX 51 60 0 -12
BITMAP
00000000000000
00000000000000
00000000000000
00000000000000
00000000000000
00000000000000
00000000000000
00000000000000
00000000000000
00000000000000
00000000000000
00000000000000
00000000000000
00000000000000
00000000000000
00000000000000
00000000000000
00000000000000
00000000000000
00000000000000
00000000000000
00000000000000
00000000000000
00000000000000
00000000000000
00000000000000
00000000000000
00000000000000
00000000000000
00000000000000
FFFFFFFFFFF800
FFFFFFFFFFF800
FFFFFFFFFFF800
FFFFFFFFFFF800
FFFFFFFFFFF800
FFFFFFFFFFF800
000000000FF800
000000000FF800
000000000FF800
000000000FF800
000000000FF800
000000000FF800
000000000FF800
000000000FF800
000000000FF800
000000000FF800
000000000FF800
000000000FF800
00000000000000
00000000000000
00000000000000
00000000000000
00000000000000
00000000000000
00000000000000
00000000000000
00000000000000
00000000000000
00000000000000
00000000000000
ENDCHAR
STARTCHAR U+00AB
ENCODING 171
SWIDTH 1000 0
DWIDTH 51 0
BBX 51 60 0 -12
BITMAP
00000000000000
00000000000000
00000000000000
00000000000000
00000000000000
00000000000000
00003FE00FF800
00003FE00FF800
00003FE00FF800
00003FE00FF800
00003FE00FF800
00003FE00FF800
000FF803FE0000
000FF803FE0000
000FF803FE0000
000FF803FE0000
000FF803FE0000
000FF803FE0000
03FE00FF800000
03FE00FF800000
03FE00FF800000
03FE00FF800000
03FE00FF800000
03FE00FF800000
FF803FE0000000
FF803FE0000000
FF803FE0000000
FF803FE0000000
FF803FE0000000
FF803FE0000000
03FE00FF800000
03FE00FF800000
03FE00FF800000
03FE00FF800000
03FE00FF800000
03FE00FF800000
000FF803FE0000
000FF803FE0000
000FF803FE0000
000FF803FE0000
000FF803FE0000
000FF803FE0000
00003FE00FF800
00003FE00FF800
00003FE00FF800
00003FE00FF800
00003FE00FF800
00003FE00FF800
00000000000000
00000000000000
00000000000000
00000000000000
00000000000000
00000000000000
00000000000000
00000000000000
00000000000000
00000000000000
00000000000000
00000000000000
ENDCHAR
STARTCHAR U+00AA
ENCODING 170
SWIDTH 1000 0
DWIDTH 51 0
BBX 51 60 0 -12
BITMAP
00000000000000
00000000000000
00000000000000
00000000000000
00000000000000
00000000000000
03FFFFFFFE0000
03FFFFFFFE0000
03FFFFFFFE0000
03FFFFFFFE0000
03FFFFFFFE0000
03FFFFFFFE0000
000000000FF800
000000000FF800
000000000FF800
000000000FF800
000000000FF800
000000000FF800
03FFFFFFFFF800
03FFFFFFFFF800
03FFFFFFFFF800
03FFFFFFFFF800
03FFFFFFFFF800
03FFFFFFFFF800
FF800003FFF800
FF800003FFF800
FF800003FFF800
FF800003FFF800
FF800003FFF800
FF800003FFF800
03FFFFFF8FF800
03FFFFFF8FF800
03FFFFFF8FF800
03FFFFFF8FF800
03FFFFFF8FF800
03FFFFFF8FF800
00000000000000
00000000000000
00000000000000
00000000000000
00000000000000
00000000000000
FFFFFFFFFFF800
FFFFFFFFFFF800
FFFFFFFFFFF800
FFFFFFFFFFF800
FFFFFFFFFFF800
FFFFFFFFFFF800
00000000000000
00000000000000
00000000000000
00000000000000
00000000000000
00000000000000
00000000000000
00000000000000
00000000000000
00000000000000
00000000000000
00000000000000
ENDCHAR
STARTCHAR U+00A9
ENCODING 169
SWIDTH 1000 0
DWIDTH 51 0
BBX 51 60 0 -12
BITMAP
00000000000000
00000000000000
00000000000000
00000000000000
00000000000000
00000000000000
000FFFFF800000
000FFFFF800000
000FFFFF800000
000FFFFF800000
000FFFFF800000
000FFFFF800000
03FE0003FE0000
03FE0003FE0000
03FE0003FE0000
03FE0003FE0000
03FE0003FE0000
03FE0003FE0000
FF803FFF8FF800
FF803FFF8FF800
FF803FFF8FF800
FF803FFF8FF800
FF803FFF8FF800
FF803FFF8FF800
FF8FF8000FF800
FF8FF8000FF800
FF8FF8000FF800
FF8FF8000FF800
FF8FF8000FF800
FF8FF8000FF800
FF8FF8000FF800
FF8FF8000FF800
FF8FF8000FF800
FF8FF8000FF800
FF8FF8000FF800
FF8FF8000FF800
FF803FFF8FF800
FF803FFF8FF800
FF803FFF8FF800
FF803FFF8FF800
FF803FFF8FF800
FF803FFF8FF800
03FE0003FE0000
03FE0003FE0000
03FE0003FE0000
03FE0003FE0000
03FE0003FE0000
03FE0003FE0000
000FFFFF800000
000FFFFF800000
000FFFFF800000
000FFFFF800000
000FFFFF800000
000FFFFF800000
00000000000000
00000000000000
00000000000000
00000000000000
00000000000000
00000000000000
ENDCHAR
STARTCHAR U+00A4
ENCODING 164
SWIDTH 1000 0
DWIDTH 51 0
BBX 51 60 0 -12
BITMAP
00000000000000
00000000000000
00000000000000
00000000000000
00000000000000
00000000000000
00000000000000
00000000000000
00000000000000
00000000000000
00000000000000
00000000000000
FF8000000FF800
FF8000000FF800
FF8000000FF800
FF8000000FF800
FF8000000FF800
FF8000000FF800
03FFFFFFFE0000
03FFFFFFFE0000
03FFFFFFFE0000
03FFFFFFFE0000
03FFFFFFFE0000
03FFFFFFFE0000
03FE0003FE0000
03FE0003FE0000
03FE0003FE0000
03FE0003FE0000
03FE0003FE0000
03FE0003FE0000
03FFFFFFFE0000
03FFFFFFFE0000
03FFFFFFFE0000
03FFFFFFFE0000
03FFFFFFFE0000
03FFFFFFFE0000
FF8000000FF800
FF8000000FF800
FF8000000FF800
FF8000000FF800
FF8000000FF800
FF8000000FF800
00000000000000
00000000000000
00000000000000
00000000000000
00000000000000
00000000000000
00000000000000
00000000000000
00000000000000
00000000000000
00000000000000
00000000000000
00000000000000
00000000000000
00000000000000
00000000000000
00000000000000
00000000000000
ENDCHAR
STARTCHAR U+00A7
ENCODING 167
SWIDTH 1000 0
DWIDTH 51 0
BBX 51 60 0 -12
BITMAP
00000000000000
00000000000000
00000000000000
00000000000000
00000000000000
00000000000000
000FFFFFFE0000
000FFFFFFE0000
000FFFFFFE0000
000FFFFFFE0000
000FFFFFFE0000
000FFFFFFE0000
03FE0000000000
03FE0000000000
03FE0000000000
03FE0000000000
03FE0000000000
03FE0000000000
000FFFFF800000
000FFFFF800000
000FFFFF800000
000FFFFF800000
000FFFFF800000
000FFFFF800000
03FE0003FE0000
03FE0003FE0000
03FE0003FE0000
03FE0003FE0000
03FE0003FE0000
03FE0003FE0000
000FFFFF800000
000FFFFF800000
000FFFFF800000
000FFFFF800000
000FFFFF800000
000FFFFF800000
00000003FE0000
00000003FE0000
00000003FE0000
00000003FE0000
00000003FE0000
00000003FE0000
03FFFFFF800000
03FFFFFF800000
03FFFFFF800000
03FFFFFF800000
03FFFFFF800000
03FFFFFF800000
00000000000000
00000000000000
00000000000000
00000000000000
00000000000000
00000000000000
00000000000000
00000000000000
00000000000000
00000000000000
00000000000000
00000000000000
ENDCHAR
STARTCHAR U+00A6
ENCODING 166
SWIDTH 1000 0
DWIDTH 51 0
BBX 51 60 0 -12
BITMAP
00000000000000
00000000000000
00000000000000
00000000000000
00000000000000
00000000000000
00003FE0000000
00003FE0000000
00003FE0000000
00003FE0000000
00003FE0000000
00003FE0000000
00003FE0000000
00003FE0000000
00003FE0000000
00003FE0000000
00003FE0000000
00003FE0000000
00003FE0000000
00003FE0000000
00003FE0000000
00003FE0000000
00003FE0000000
00003FE0000000
00000000000000
00000000000000
00000000000000
00000000000000
00000000000000
00000000000000
00003FE0000000
00003FE0000000
00003FE0000000
00003FE0000000
00003FE0000000
00003FE0000000
00003FE0000000
00003FE0000000
00003FE0000000
00003FE0000000
00003FE0000000
00003FE0000000
00003FE0000000
00003FE0000000
00003FE0000000
00003FE0000000
00003FE0000000
00003FE0000000
00000000000000
00000000000000
00000000000000
00000000000000
00000000000000
00000000000000
00000000000000
00000000000000
00000000000000
00000000000000
00000000000000
00000000000000
ENDCHAR
STARTCHAR U+00A5
ENCODING 165
SWIDTH 1000 0
DWIDTH 51 0
BBX 51 60 0 -12
BITMAP
00000000000000
00000000000000
00000000000000
00000000000000
00000000000000
00000000000000
FF8000000FF800
FF8000000FF800
FF8000000FF800
FF8000000FF800
FF8000000FF800
FF8000000FF800
03FE0003FE0000
03FE0003FE0000
03FE0003FE0000
03FE0003FE0000
03FE0003FE0000
03FE0003FE0000
000FF8FF800000
000FF8FF800000
000FF8FF800000
000FF8FF800000
000FF8FF800000
000FF8FF800000
00003FE0000000
00003FE0000000
00003FE0000000
00003FE0000000
00003FE0000000
00003FE0000000
FFFFFFFFFFF800
FFFFFFFFFFF800
FFFFFFFFFFF800
FFFFFFFFFFF800
FFFFFFFFFFF800
FFFFFFFFFFF800
00003FE0000000
00003FE0000000
00003FE0000000
00003FE0000000
00003FE0000000
00003FE0000000
00003FE0000000
00003FE0000000
00003FE0000000
00003FE0000000
00003FE0000000
00003FE0000000
00000000000000
00000000000000
00000000000000
00000000000000
00000000000000
00000000000000
00000000000000
00000000000000
00000000000000
00000000000000
00000000000000
00000000000000
ENDCHAR
STARTCHAR U+00A8
ENCODING 168
SWIDTH 1000 0
DWIDTH 51 0
BBX 51 60 0 -12
BITMAP
03FE0003FE0000
03FE0003FE0000
03FE0003FE0000
03FE0003FE0000
03FE0003FE0000
03FE0003FE0000
00000000000000
00000000000000
00000000000000
00000000000000
00000000000000
00000000000000
00000000000000
00000000000000
00000000000000
00000000000000
00000000000000
00000000000000
00000000000000
00000000000000
00000000000000
00000000000000
00000000000000
00000000000000
00000000000000
00000000000000
00000000000000
00000000000000
00000000000000
00000000000000
00000000000000
00000000000000
00000000000000
00000000000000
00000000000000
00000000000000
00000000000000
00000000000000
00000000000000
00000000000000
00000000000000
00000000000000
00000000000000
00000000000000
00000000000000
00000000000000
00000000000000
00000000000000
00000000000000
00000000000000
00000000000000
00000000000000
00000000000000
00000000000000
00000000000000
00000000000000
00000000000000
00000000000000
00000000000000
00000000000000
ENDCHAR
STARTCHAR U+00A2
ENCODING 162
SWIDTH 1000 0
DWIDTH 51 0
BBX 51 60 0 -12
BITMAP
00000000000000
00000000000000
00000000000000
00000000000000
00000000000000
00000000000000
00000000000000
00000000000000
00000000000000
00000000000000
00000000000000
00000000000000
00003FE0000000
00003FE0000000
00003FE0000000
00003FE0000000
00003FE0000000
00003FE0000000
03FFFFFFFE0000
03FFFFFFFE0000
03FFFFFFFE0000
03FFFFFFFE0000
03FFFFFFFE0000
03FFFFFFFE0000
FF803FE00FF800
FF803FE00FF800
FF803FE00FF800
FF803FE00FF800
FF803FE00FF800
FF803FE00FF800
FF803FE0000000
FF803FE0000000
FF803FE0000000
FF803FE0000000
FF803FE0000000
FF803FE0000000
FF803FE00FF800
FF803FE00FF800
FF803FE00FF800
FF803FE00FF800
FF803FE00FF800
FF803FE00FF800
03FFFFFFFE0000
03FFFFFFFE0000
03FFFFFFFE0000
03FFFFFFFE0000
03FFFFFFFE0000
03FFFFFFFE0000
00003FE0000000
00003FE0000000
00003FE0000000
00003FE0000000
00003FE0000000
00003FE0000000
00000000000000
00000000000000
00000000000000
00000000000000
00000000000000
00000000000000
ENDCHAR
STARTCHAR U+00A1
ENCODING 161
SWIDTH 1000 0
DWIDTH 51 0
BBX 51 60 0 -12
BITMAP
00000000000000
00000000000000
00000000000000
00000000000000
00000000000000
00000000000000
00003FE0000000
00003FE0000000
00003FE0000000
00003FE0000000
00003FE0000000
00003FE0000000
00000000000000
00000000000000
00000000000000
00000000000000
00000000000000
00000000000000
00003FE0000000
00003FE0000000
00003FE0000000
00003FE0000000
00003FE0000000
00003FE0000000
00003FE0000000
00003FE0000000
00003FE0000000
00003FE0000000
00003FE0000000
00003FE0000000
00003FE0000000
00003FE0000000
00003FE0000000
00003FE0000000
00003FE0000000
00003FE0000000
00003FE0000000
00003FE0000000
00003FE0000000
00003FE0000000
00003FE0000000
00003FE0000000
00003FE0000000
00003FE0000000
00003FE0000000
00003FE0000000
00003FE0000000
00003FE0000000
00000000000000
00000000000000
00000000000000
00000000000000
00000000000000
00000000000000
00000000000000
00000000000000
00000000000000
00000000000000
00000000000000
00000000000000
ENDCHAR
STARTCHAR U+201F
ENCODING 8223
SWIDTH 1000 0
DWIDTH 51 0
BBX 51 60 0 -12
BITMAP
00000000000000
00000000000000
00000000000000
00000000000000
00000000000000
00000000000000
03FFF8FFFE0000
03FFF8FFFE0000
03FFF8FFFE0000
03FFF8FFFE0000
03FFF8FFFE0000
03FFF8FFFE0000
03FE00FF800000
03FE00FF800000
03FE00FF800000
03FE00FF800000
03FE00FF800000
03FE00FF800000
000FF803FE0000
000FF803FE0000
000FF803FE0000
000FF803FE0000
000FF803FE0000
000FF803FE0000
00000000000000
00000000000000
00000000000000
00000000000000
00000000000000
00000000000000
00000000000000
00000000000000
00000000000000
00000000000000
00000000000000
00000000000000
00000000000000
00000000000000
00000000000000
00000000000000
00000000000000
00000000000000
00000000000000
00000000000000
00000000000000
00000000000000
00000000000000
00000000000000
00000000000000
00000000000000
00000000000000
00000000000000
00000000000000
00000000000000
00000000000000
00000000000000
00000000000000
00000000000000
00000000000000
00000000000000
ENDCHAR
STARTCHAR U+201E
ENCODING 8222
SWIDTH 1000 0
DWIDTH 51 0
BBX 51 60 0 -12
BITMAP
00000000000000
00000000000000
00000000000000
00000000000000
00000000000000
00000000000000
00000000000000
00000000000000
00000000000000
00000000000000
00000000000000
00000000000000
00000000000000
00000000000000
00000000000000
00000000000000
00000000000000
00000000000000
00000000000000
00000000000000
00000000000000
00000000000000
00000000000000
00000000000000
00000000000000
00000000000000
00000000000000
00000000000000
00000000000000
00000000000000
00000000000000
00000000000000
00000000000000
00000000000000
00000000000000
00000000000000
00000000000000
00000000000000
00000000000000
00000000000000
00000000000000
00000000000000
03FE00FF800000
03FE00FF800000
03FE00FF800000
03FE00FF800000
03FE00FF800000
03FE00FF800000
03FE00FF800000
03FE00FF800000
03FE00FF800000
03FE00FF800000
03FE00FF800000
03FE00FF800000
00000000000000
00000000000000
00000000000000
00000000000000
00000000000000
00000000000000
ENDCHAR
STARTCHAR U+201D
ENCODING 8221
SWIDTH 1000 0
DWIDTH 51 0
BBX 51 60 0 -12
BITMAP
00000000000000
00000000000000
00000000000000
00000000000000
00000000000000
00000000000000
03FFF803FFF800
03FFF803FFF800
03FFF803FFF800
03FFF803FFF800
03FFF803FFF800
03FFF803FFF800
000FF8000FF800
000FF8000FF800
000FF8000FF800
000FF8000FF800
000FF8000FF800
000FF8000FF800
03FE0003FE0000
03FE0003FE0000
03FE0003FE0000
03FE0003FE0000
03FE0003FE0000
03FE0003FE0000
00000000000000
00000000000000
00000000000000
00000000000000
00000000000000
00000000000000
00000000000000
00000000000000
00000000000000
00000000000000
00000000000000
00000000000000
00000000000000
00000000000000
00000000000000
00000000000000
00000000000000
00000000000000
00000000000000
00000000000000
00000000000000
00000000000000
00000000000000
00000000000000
00000000000000
00000000000000
00000000000000
00000000000000
00000000000000
00000000000000
00000000000000
00000000000000
00000000000000
00000000000000
00000000000000
00000000000000
ENDCHAR
STARTCHAR U+201C
ENCODING 8220
SWIDTH 1000 0
DWIDTH 51 0
BBX 51 60 0 -12
BITMAP
00000000000000
00000000000000
00000000000000
00000000000000
00000000000000
00000000000000
000FF8000FF800
000FF8000FF800
000FF8000FF800
000FF8000FF800
000FF8000FF800
000FF8000FF800
03FE0003FE0000
03FE0003FE0000
03FE0003FE0000
03FE0003FE0000
03FE0003FE0000
03FE0003FE0000
03FFF803FFF800
03FFF803FFF800
03FFF803FFF800
03FFF803FFF800
03FFF803FFF800
03FFF803FFF800
00000000000000
00000000000000
00000000000000
00000000000000
00000000000000
00000000000000
00000000000000
00000000000000
00000000000000
00000000000000
00000000000000
00000000000000
00000000000000
00000000000000
00000000000000
00000000000000
00000000000000
00000000000000
00000000000000
00000000000000
00000000000000
00000000000000
00000000000000
00000000000000
00000000000000
00000000000000
00000000000000
00000000000000
00000000000000
00000000000000
00000000000000
00000000000000
00000000000000
00000000000000
00000000000000
00000000000000
ENDCHAR
STARTCHAR U+201B
ENCODING 8219
SWIDTH 1000 0
DWIDTH 51 0
BBX 51 60 0 -12
BITMAP
00000000000000
00000000000000
00000000000000
00000000000000
00000000000000
00000000000000
00003FE0000000
00003FE0000000
00003FE0000000
00003FE0000000
00003FE0000000
00003FE0000000
00003FE0000000
00003FE0000000
00003FE0000000
00003FE0000000
00003FE0000000
00003FE0000000
00003FE0000000
00003FE0000000
00003FE0000000
00003FE0000000
00003FE0000000
00003FE0000000
00000000000000
00000000000000
00000000000000
00000000000000
00000000000000
00000000000000
00000000000000
00000000000000
00000000000000
00000000000000
00000000000000
00000000000000
00000000000000
00000000000000
00000000000000
00000000000000
00000000000000
00000000000000
00000000000000
00000000000000
00000000000000
00000000000000
00000000000000
00000000000000
00000000000000
00000000000000
00000000000000
00000000000000
00000000000000
00000000000000
00000000000000
00000000000000
00000000000000
00000000000000
00000000000000
00000000000000
ENDCHAR
STARTCHAR U+201A
ENCODING 8218
SWIDTH 1000 0
DWIDTH 51 0
BBX 51 60 0 -12
BITMAP
00000000000000
00000000000000
00000000000000
00000000000000
00000000000000
00000000000000
00000000000000
00000000000000
00000000000000
00000000000000
00000000000000
00000000000000
00000000000000
00000000000000
00000000000000
00000000000000
00000000000000
00000000000000
00000000000000
00000000000000
00000000000000
00000000000000
00000000000000
00000000000000
00000000000000
00000000000000
00000000000000
00000000000000
00000000000000
00000000000000
00003FE0000000
00003FE0000000
00003FE0000000
00003FE0000000
00003FE0000000
00003FE0000000
00003FE0000000
00003FE0000000
00003FE0000000
00003FE0000000
00003FE0000000
00003FE0000000
00003FE0000000
00003FE0000000
00003FE0000000
00003FE0000000
00003FE0000000
00003FE0000000
00000000000000
00000000000000
00000000000000
00000000000000
00000000000000
00000000000000
00000000000000
00000000000000
00000000000000
00000000000000
00000000000000
00000000000000
ENDCHAR
STARTCHAR U+2019
ENCODING 8217
SWIDTH 1000 0
DWIDTH 51 0
BBX 51 60 0 -12
BITMAP
00000000000000
00000000000000
00000000000000
00000000000000
00000000000000
00000000000000
03FFF800000000
03FFF800000000
03FFF800000000
03FFF800000000
03FFF800000000
03FFF800000000
000FF800000000
000FF800000000
000FF800000000
000FF800000000
000FF800000000
000FF800000000
03FE0000000000
03FE0000000000
03FE0000000000
03FE0000000000
03FE0000000000
03FE0000000000
00000000000000
00000000000000
00000000000000
00000000000000
00000000000000
00000000000000
00000000000000
00000000000000
00000000000000
00000000000000
00000000000000
00000000000000
00000000000000
00000000000000
00000000000000
00000000000000
00000000000000
00000000000000
00000000000000
00000000000000
00000000000000
00000000000000
00000000000000
00000000000000
00000000000000
00000000000000
00000000000000
00000000000000
00000000000000
00000000000000
00000000000000
00000000000000
00000000000000
00000000000000
00000000000000
00000000000000
ENDCHAR
STARTCHAR U+2018
ENCODING 8216
SWIDTH 1000 0
DWIDTH 51 0
BBX 51 60 0 -12
BITMAP
00000000000000
00000000000000
00000000000000
00000000000000
00000000000000
00000000000000
000000000FF800
000000000FF800
000000000FF800
000000000FF800
000000000FF800
000000000FF800
00000003FE0000
00000003FE0000
00000003FE0000
00000003FE0000
00000003FE0000
00000003FE0000
00000003FFF800
00000003FFF800
00000003FFF800
00000003FFF800
00000003FFF800
00000003FFF800
00000000000000
00000000000000
00000000000000
00000000000000
00000000000000
00000000000000
00000000000000
00000000000000
00000000000000
00000000000000
00000000000000
00000000000000
00000000000000
00000000000000
00000000000000
00000000000000
00000000000000
00000000000000
00000000000000
00000000000000
00000000000000
00000000000000
00000000000000
00000000000000
00000000000000
00000000000000
00000000000000
00000000000000
00000000000000
00000000000000
00000000000000
00000000000000
00000000000000
00000000000000
00000000000000
00000000000000
ENDCHAR
STARTCHAR U+2017
ENCODING 8215
SWIDTH 1000 0
DWIDTH 51 0
BBX 51 60 0 -12
BITMAP
00000000000000
00000000000000
00000000000000
00000000000000
00000000000000
00000000000000
00000000000000
00000000000000
00000000000000
00000000000000
00000000000000
00000000000000
00000000000000
00000000000000
00000000000000
00000000000000
00000000000000
00000000000000
00000000000000
00000000000000
00000000000000
00000000000000
00000000000000
00000000000000
00000000000000
00000000000000
00000000000000
00000000000000
00000000000000
00000000000000
00000000000000
00000000000000
00000000000000
00000000000000
00000000000000
00000000000000
00000000000000
00000000000000
00000000000000
00000000000000
00000000000000
00000000000000
FFFFFFFFFFF800
FFFFFFFFFFF800
FFFFFFFFFFF800
FFFFFFFFFFF800
FFFFFFFFFFF800
FFFFFFFFFFF800
00000000000000
00000000000000
00000000000000
00000000000000
00000000000000
00000000000000
FFFFFFFFFFF800
FFFFFFFFFFF800
FFFFFFFFFFF800
FFFFFFFFFFF800
FFFFFFFFFFF800
FFFFFFFFFFF800
ENDCHAR
STARTCHAR U+2016
ENCODING 8214
SWIDTH 1000 0
DWIDTH 51 0
BBX 51 60 0 -12
BITMAP
00000000000000
00000000000000
00000000000000
00000000000000
00000000000000
00000000000000
00003FE3FE0000
00003FE3FE0000
00003FE3FE0000
00003FE3FE0000
00003FE3FE0000
00003FE3FE0000
00003FE3FE0000
00003FE3FE0000
00003FE3FE0000
00003FE3FE0000
00003FE3FE0000
00003FE3FE0000
00003FE3FE0000
00003FE3FE0000
00003FE3FE0000
00003FE3FE0000
00003FE3FE0000
00003FE3FE0000
00003FE3FE0000
00003FE3FE0000
00003FE3FE0000
00003FE3FE0000
00003FE3FE0000
00003FE3FE0000
00003FE3FE0000
00003FE3FE0000
00003FE3FE0000
00003FE3FE0000
00003FE3FE0000
00003FE3FE0000
00003FE3FE0000
00003FE3FE0000
00003FE3FE0000
00003FE3FE0000
00003FE3FE0000
00003FE3FE0000
00003FE3FE0000
00003FE3FE0000
00003FE3FE0000
00003FE3FE0000
00003FE3FE0000
00003FE3FE0000
00000000000000
00000000000000
00000000000000
00000000000000
00000000000000
00000000000000
00000000000000
00000000000000
00000000000000
00000000000000
00000000000000
00000000000000
ENDCHAR
STARTCHAR U+2015
ENCODING 8213
SWIDTH 1000 0
DWIDTH 51 0
BBX 51 60 0 -12
BITMAP
00000000000000
00000000000000
00000000000000
00000000000000
00000000000000
00000000000000
00000000000000
00000000000000
00000000000000
00000000000000
00000000000000
00000000000000
00000000000000
00000000000000
00000000000000
00000000000000
00000000000000
00000000000000
00000000000000
00000000000000
00000000000000
00000000000000
00000000000000
00000000000000
FFFFFFFFFFFFE0
FFFFFFFFFFFFE0
FFFFFFFFFFFFE0
FFFFFFFFFFFFE0
FFFFFFFFFFFFE0
FFFFFFFFFFFFE0
00000000000000
00000000000000
00000000000000
00000000000000
00000000000000
00000000000000
00000000000000
00000000000000
00000000000000
00000000000000
00000000000000
00000000000000
00000000000000
00000000000000
00000000000000
00000000000000
00000000000000
00000000000000
00000000000000
00000000000000
00000000000000
00000000000000
00000000000000
00000000000000
00000000000000
00000000000000
00000000000000
00000000000000
00000000000000
00000000000000
ENDCHAR
STARTCHAR U+2014
ENCODING 8212
SWIDTH 1000 0
DWIDTH 51 0
BBX 51 60 0 -12
BITMAP
00000000000000
00000000000000
00000000000000
00000000000000
00000000000000
00000000000000
00000000000000
00000000000000
00000000000000
00000000000000
00000000000000
00000000000000
00000000000000
00000000000000
00000000000000
00000000000000
00000000000000
00000000000000
00000000000000
00000000000000
00000000000000
00000000000000
00000000000000
00000000000000
FFFFFFFFFFF800
FFFFFFFFFFF800
FFFFFFFFFFF800
FFFFFFFFFFF800
FFFFFFFFFFF800
FFFFFFFFFFF800
00000000000000
00000000000000
00000000000000
00000000000000
00000000000000
00000000000000
00000000000000
00000000000000
00000000000000
00000000000000
00000000000000
00000000000000
00000000000000
00000000000000
00000000000000
00000000000000
00000000000000
00000000000000
00000000000000
00000000000000
00000000000000
00000000000000
00000000000000
00000000000000
00000000000000
00000000000000
00000000000000
00000000000000
00000000000000
00000000000000
ENDCHAR
STARTCHAR U+2013
ENCODING 8211
SWIDTH 1000 0
DWIDTH 51 0
BBX 51 60 0 -12
BITMAP
00000000000000
00000000000000
00000000000000
00000000000000
00000000000000
00000000000000
00000000000000
00000000000000
00000000000000
00000000000000
00000000000000
00000000000000
00000000000000
00000000000000
00000000000000
00000000000000
00000000000000
00000000000000
00000000000000
00000000000000
00000000000000
00000000000000
00000000000000
00000000000000
000FFFFFFE0000
000FFFFFFE0000
000FFFFFFE0000
000FFFFFFE0000
000FFFFFFE0000
000FFFFFFE0000
00000000000000
00000000000000
00000000000000
00000000000000
00000000000000
00000000000000
00000000000000
00000000000000
00000000000000
00000000000000
00000000000000
00000000000000
00000000000000
00000000000000
00000000000000
00000000000000
00000000000000
00000000000000
00000000000000
00000000000000
00000000000000
00000000000000
00000000000000
00000000000000
00000000000000
00000000000000
00000000000000
00000000000000
00000000000000
00000000000000
ENDCHAR
STARTCHAR U+2012
ENCODING 8210
SWIDTH 1000 0
DWIDTH 51 0
BBX 51 60 0 -12
BITMAP
00000000000000
00000000000000
00000000000000
00000000000000
00000000000000
00000000000000
00000000000000
00000000000000
00000000000000
00000000000000
00000000000000
00000000000000
00000000000000
00000000000000
00000000000000
00000000000000
00000000000000
00000000000000
00000000000000
00000000000000
00000000000000
00000000000000
00000000000000
00000000000000
03FFFFFFFE0000
03FFFFFFFE0000
03FFFFFFFE0000
03FFFFFFFE0000
03FFFFFFFE0000
03FFFFFFFE0000
00000000000000
00000000000000
00000000000000
00000000000000
00000000000000
00000000000000
00000000000000
00000000000000
00000000000000
00000000000000
00000000000000
00000000000000
00000000000000
00000000000000
00000000000000
00000000000000
00000000000000
00000000000000
00000000000000
00000000000000
00000000000000
00000000000000
00000000000000
00000000000000
00000000000000
00000000000000
00000000000000
00000000000000
00000000000000
00000000000000
ENDCHAR
STARTCHAR U+2011
ENCODING 8209
SWIDTH 1000 0
DWIDTH 51 0
BBX 51 60 0 -12
BITMAP
00000000000000
00000000000000
00000000000000
00000000000000
00000000000000
00000000000000
00000000000000
00000000000000
00000000000000
00000000000000
00000000000000
00000000000000
00000000000000
00000000000000
00000000000000
00000000000000
00000000000000
00000000000000
00000000000000
00000000000000
00000000000000
00000000000000
00000000000000
00000000000000
000FFFFF800000
000FFFFF800000
000FFFFF800000
000FFFFF800000
000FFFFF800000
000FFFFF800000
00000000000000
00000000000000
00000000000000
00000000000000
00000000000000
00000000000000
00000000000000
00000000000000
00000000000000
00000000000000
00000000000000
00000000000000
00000000000000
00000000000000
00000000000000
00000000000000
00000000000000
00000000000000
00000000000000
00000000000000
00000000000000
00000000000000
00000000000000
00000000000000
00000000000000
00000000000000
00000000000000
00000000000000
00000000000000
00000000000000
ENDCHAR
STARTCHAR U+2010
ENCODING 8208
SWIDTH 1000 0
DWIDTH 51 0
BBX 51 60 0 -12
BITMAP
00000000000000
00000000000000
00000000000000
00000000000000
00000000000000
00000000000000
00000000000000
00000000000000
00000000000000
00000000000000
00000000000000
00000000000000
00000000000000
00000000000000
00000000000000
00000000000000
00000000000000
00000000000000
00000000000000
00000000000000
00000000000000
00000000000000
00000000000000
00000000000000
000FFFFF800000
000FFFFF800000
000FFFFF800000
000FFFFF800000
000FFFFF800000
000FFFFF800000
00000000000000
00000000000000
00000000000000
00000000000000
00000000000000
00000000000000
00000000000000
00000000000000
00000000000000
00000000000000
00000000000000
00000000000000
00000000000000
00000000000000
00000000000000
00000000000000
00000000000000
00000000000000
00000000000000
00000000000000
00000000000000
00000000000000
00000000000000
00000000000000
00000000000000
00000000000000
00000000000000
00000000000000
00000000000000
00000000000000
ENDCHAR
STARTCHAR U+007F
ENCODING 127
SWIDTH 1000 0
DWIDTH 51 0
BBX 51 60 0 -12
BITMAP
00000000000000
00000000000000
00000000000000
00000000000000
00000000000000
00000000000000
FFFFF800000000
FFFFF800000000
FFFFF800000000
FFFFF800000000
FFFFF800000000
FFFFF800000000
FF803FE0000000
FF803FE0000000
FF803FE0000000
FF803FE0000000
FF803FE0000000
FF803FE0000000
FF803FE0000000
FF803FE0000000
FF803FE0000000
FF803FE0000000
FF803FE0000000
FF803FE0000000
FF803FE0000000
FF803FE0000000
FF803FE0000000
FF803FE0000000
FF803FE0000000
FF803FE0000000
FFFFFFFF800000
FFFFFFFF800000
FFFFFFFF800000
FFFFFFFF800000
FFFFFFFF800000
FFFFFFFF800000
000FF800000000
000FF800000000
000FF800000000
000FF800000000
000FF800000000
000FF800000000
000FF800000000
000FF800000000
000FF800000000
000FF800000000
000FF800000000
000FF800000000
000FF800000000
000FF800000000
000FF800000000
000FF800000000
000FF800000000
000FF800000000
000FF800000000
000FF800000000
000FF800000000
000FF800000000
000FF800000000
000FF800000000
ENDCHAR
STARTCHAR U+007E
ENCODING 126
SWIDTH 1000 0
DWIDTH 51 0
BBX 51 60 0 -12
BITMAP
00000000000000
00000000000000
00000000000000
00000000000000
00000000000000
00000000000000
03FFF8000FF800
03FFF8000FF800
03FFF8000FF800
03FFF8000FF800
03FFF8000FF800
03FFF8000FF800
FF803FE00FF800
FF803FE00FF800
FF803FE00FF800
FF803FE00FF800
FF803FE00FF800
FF803FE00FF800
FF8000FFFE0000
FF8000FFFE0000
FF8000FFFE0000
FF8000FFFE0000
FF8000FFFE0000
FF8000FFFE0000
00000000000000
00000000000000
00000000000000
00000000000000
00000000000000
00000000000000
00000000000000
00000000000000
00000000000000
00000000000000
00000000000000
00000000000000
00000000000000
00000000000000
00000000000000
00000000000000
00000000000000
00000000000000
00000000000000
00000000000000
00000000000000
00000000000000
00000000000000
00000000000000
00000000000000
00000000000000
00000000000000
00000000000000
00000000000000
00000000000000
00000000000000
00000000000000
00000000000000
00000000000000
00000000000000
00000000000000
ENDCHAR
STARTCHAR U+007D
ENCODING 125
SWIDTH 1000 0
DWIDTH 51 0
BBX 51 60 0 -12
BITMAP
00000000000000
00000000000000
00000000000000
00000000000000
00000000000000
00000000000000
FFFFF800000000
FFFFF800000000
FFFFF800000000
FFFFF800000000
FFFFF800000000
FFFFF800000000
00003FE0000000
00003FE0000000
00003FE0000000
00003FE0000000
00003FE0000000
00003FE0000000
000FF800000000
000FF800000000
000FF800000000
000FF800000000
000FF800000000
000FF800000000
00003FFF800000
00003FFF800000
00003FFF800000
00003FFF800000
00003FFF800000
00003FFF800000
000FF800000000
000FF800000000
000FF800000000
000FF800000000
000FF800000000
000FF800000000
00003FE0000000
00003FE0000000
00003FE0000000
00003FE0000000
00003FE0000000
00003FE0000000
FFFFF800000000
FFFFF800000000
FFFFF800000000
FFFFF800000000
FFFFF800000000
FFFFF800000000
00000000000000
00000000000000
00000000000000
00000000000000
00000000000000
00000000000000
00000000000000
00000000000000
00000000000000
00000000000000
00000000000000
00000000000000
ENDCHAR
STARTCHAR U+007C
ENCODING 124
SWIDTH 1000 0
DWIDTH 51 0
BBX 51 60 0 -12
BITMAP
00000000000000
00000000000000
00000000000000
00000000000000
00000000000000
00000000000000
00003FE0000000
00003FE0000000
00003FE0000000
00003FE0000000
00003FE0000000
00003FE0000000
00003FE0000000
00003FE0000000
00003FE0000000
00003FE0000000
00003FE0000000
00003FE0000000
00003FE0000000
00003FE0000000
00003FE0000000
00003FE0000000
00003FE0000000
00003FE0000000
00003FE0000000
00003FE0000000
00003FE0000000
00003FE0000000
00003FE0000000
00003FE0000000
00003FE0000000
00003FE0000000
00003FE0000000
00003FE0000000
00003FE0000000
00003FE0000000
00003FE0000000
00003FE0000000
00003FE0000000
00003FE0000000
00003FE0000000
00003FE0000000
00003FE0000000
00003FE0000000
00003FE0000000
00003FE0000000
00003FE0000000
00003FE0000000
00000000000000
00000000000000
00000000000000
00000000000000
00000000000000
00000000000000
00000000000000
00000000000000
00000000000000
00000000000000
00000000000000
00000000000000
ENDCHAR
STARTCHAR U+007B
ENCODING 123
SWIDTH 1000 0
DWIDTH 51 0
BBX 51 60 0 -12
BITMAP
00000000000000
00000000000000
00000000000000
00000000000000
00000000000000
00000000000000
000000FFFFF800
000000FFFFF800
000000FFFFF800
000000FFFFF800
000000FFFFF800
000000FFFFF800
00003FE0000000
00003FE0000000
00003FE0000000
00003FE0000000
00003FE0000000
00003FE0000000
000000FF800000
000000FF800000
000000FF800000
000000FF800000
000000FF800000
000000FF800000
000FFFE0000000
000FFFE0000000
000FFFE0000000
000FFFE0000000
000FFFE0000000
000FFFE0000000
000000FF800000
000000FF800000
000000FF800000
000000FF800000
000000FF800000
000000FF800000
00003FE0000000
00003FE0000000
00003FE0000000
00003FE0000000
00003FE0000000
00003FE0000000
000000FFFFF800
000000FFFFF800
000000FFFFF800
000000FFFFF800
000000FFFFF800
000000FFFFF800
00000000000000
00000000000000
00000000000000
00000000000000
00000000000000
00000000000000
00000000000000
00000000000000
00000000000000
00000000000000
00000000000000
00000000000000
ENDCHAR
STARTCHAR U+007A
ENCODING 122
SWIDTH 1000 0
DWIDTH 51 0
BBX 51 60 0 -12
BITMAP
00000000000000
00000000000000
00000000000000
00000000000000
00000000000000
00000000000000
00000000000000
00000000000000
00000000000000
00000000000000
00000000000000
00000000000000
00000000000000
00000000000000
00000000000000
00000000000000
00000000000000
00000000000000
FFFFFFFFFFF800
FFFFFFFFFFF800
FFFFFFFFFFF800
FFFFFFFFFFF800
FFFFFFFFFFF800
FFFFFFFFFFF800
00000003FE0000
00000003FE0000
00000003FE0000
00000003FE0000
00000003FE0000
00000003FE0000
00003FFF800000
00003FFF800000
00003FFF800000
00003FFF800000
00003FFF800000
00003FFF800000
000FF800000000
000FF800000000
000FF800000000
000FF800000000
000FF800000000
000FF800000000
FFFFFFFFFFF800
FFFFFFFFFFF800
FFFFFFFFFFF800
FFFFFFFFFFF800
FFFFFFFFFFF800
FFFFFFFFFFF800
00000000000000
00000000000000
00000000000000
00000000000000
00000000000000
00000000000000
00000000000000
00000000000000
00000000000000
00000000000000
00000000000000
00000000000000
ENDCHAR
STARTCHAR U+0079
ENCODING 121
SWIDTH 1000 0
DWIDTH 51 0
BBX 51 60 0 -12
BITMAP
00000000000000
00000000000000
00000000000000
00000000000000
00000000000000
00000000000000
00000000000000
00000000000000
00000000000000
00000000000000
00000000000000
00000000000000
00000000000000
00000000000000
00000000000000
00000000000000
00000000000000
00000000000000
FF800003FE0000
FF800003FE0000
FF800003FE0000
FF800003FE0000
FF800003FE0000
FF800003FE0000
FF800003FE0000
FF800003FE0000
FF800003FE0000
FF800003FE0000
FF800003FE0000
FF800003FE0000
FF8000FFFE0000
FF8000FFFE0000
FF8000FFFE0000
FF8000FFFE0000
FF8000FFFE0000
FF8000FFFE0000
03FFFFE3FE0000
03FFFFE3FE0000
03FFFFE3FE0000
03FFFFE3FE0000
03FFFFE3FE0000
03FFFFE3FE0000
00000003FE0000
00000003FE0000
00000003FE0000
00000003FE0000
00000003FE0000
00000003FE0000
FF800003FE0000
FF800003FE0000
FF800003FE0000
FF800003FE0000
FF800003FE0000
FF800003FE0000
03FFFFFF800000
03FFFFFF800000
03FFFFFF800000
03FFFFFF800000
03FFFFFF800000
03FFFFFF800000
ENDCHAR
STARTCHAR U+0078
ENCODING 120
SWIDTH 1000 0
DWIDTH 51 0
BBX 51 60 0 -12
BITMAP
00000000000000
00000000000000
00000000000000
00000000000000
00000000000000
00000000000000
00000000000000
00000000000000
00000000000000
00000000000000
00000000000000
00000000000000
00000000000000
00000000000000
00000000000000
00000000000000
00000000000000
00000000000000
FF800003FE0000
FF800003FE0000
FF800003FE0000
FF800003FE0000
FF800003FE0000
FF800003FE0000
03FE00FF800000
03FE00FF800000
03FE00FF800000
03FE00FF800000
03FE00FF800000
03FE00FF800000
000FFFE0000000
000FFFE0000000
000FFFE0000000
000FFFE0000000
000FFFE0000000
000FFFE0000000
03FE00FF800000
03FE00FF800000
03FE00FF800000
03FE00FF800000
03FE00FF800000
03FE00FF800000
FF800003FE0000
FF800003FE0000
FF800003FE0000
FF800003FE0000
FF800003FE0000
FF800003FE0000
00000000000000
00000000000000
00000000000000
00000000000000
00000000000000
00000000000000
00000000000000
00000000000000
00000000000000
00000000000000
00000000000000
00000000000000
ENDCHAR
STARTCHAR U+0077
ENCODING 119
SWIDTH 1000 0
DWIDTH 51 0
BBX 51 60 0 -12
BITMAP
00000000000000
00000000000000
00000000000000
00000000000000
00000000000000
00000000000000
00000000000000
00000000000000
00000000000000
00000000000000
00000000000000
00000000000000
00000000000000
00000000000000
00000000000000
00000000000000
00000000000000
00000000000000
FF8000000FF800
FF8000000FF800
FF8000000FF800
FF8000000FF800
FF8000000FF800
FF8000000FF800
FF8000000FF800
FF8000000FF800
FF8000000FF800
FF8000000FF800
FF8000000FF800
FF8000000FF800
FF803FE00FF800
FF803FE00FF800
FF803FE00FF800
FF803FE00FF800
FF803FE00FF800
FF803FE00FF800
FF8FF8FF8FF800
FF8FF8FF8FF800
FF8FF8FF8FF800
FF8FF8FF8FF800
FF8FF8FF8FF800
FF8FF8FF8FF800
03FE0003FE0000
03FE0003FE0000
03FE0003FE0000
03FE0003FE0000
03FE0003FE0000
03FE0003FE0000
00000000000000
00000000000000
00000000000000
00000000000000
00000000000000
00000000000000
00000000000000
00000000000000
00000000000000
00000000000000
00000000000000
00000000000000
ENDCHAR
STARTCHAR U+0076
ENCODING 118
SWIDTH 1000 0
DWIDTH 51 0
BBX 51 60 0 -12
BITMAP
00000000000000
00000000000000
00000000000000
00000000000000
00000000000000
00000000000000
00000000000000
00000000000000
00000000000000
00000000000000
00000000000000
00000000000000
00000000000000
00000000000000
00000000000000
00000000000000
00000000000000
00000000000000
FF8000000FF800
FF8000000FF800
FF8000000FF800
FF8000000FF800
FF8000000FF800
FF8000000FF800
FF8000000FF800
FF8000000FF800
FF8000000FF800
FF8000000FF800
FF8000000FF800
FF8000000FF800
03FE0003FE0000
03FE0003FE0000
03FE0003FE0000
03FE0003FE0000
03FE0003FE0000
03FE0003FE0000
000FF8FF800000
000FF8FF800000
000FF8FF800000
000FF8FF800000
000FF8FF800000
000FF8FF800000
00003FE0000000
00003FE0000000
00003FE0000000
00003FE0000000
00003FE0000000
00003FE0000000
00000000000000
00000000000000
00000000000000
00000000000000
00000000000000
00000000000000
00000000000000
00000000000000
00000000000000
00000000000000
00000000000000
00000000000000
ENDCHAR
STARTCHAR U+0075
ENCODING 117
SWIDTH 1000 0
DWIDTH 51 0
BBX 51 60 0 -12
BITMAP
00000000000000
00000000000000
00000000000000
00000000000000
00000000000000
00000000000000
00000000000000
00000000000000
00000000000000
00000000000000
00000000000000
00000000000000
00000000000000
00000000000000
00000000000000
00000000000000
00000000000000
00000000000000
FF800003FE0000
FF800003FE0000
FF800003FE0000
FF800003FE0000
FF800003FE0000
FF800003FE0000
FF800003FE0000
FF800003FE0000
FF800003FE0000
FF800003FE0000
FF800003FE0000
FF800003FE0000
FF800003FE0000
FF800003FE0000
FF800003FE0000
FF800003FE0000
FF800003FE0000
FF800003FE0000
FF800003FE0000
FF800003FE0000
FF800003FE0000
FF800003FE0000
FF800003FE0000
FF800003FE0000
03FFFFFF8FF800
03FFFFFF8FF800
03FFFFFF8FF800
03FFFFFF8FF800
03FFFFFF8FF800
03FFFFFF8FF800
00000000000000
00000000000000
00000000000000
00000000000000
00000000000000
00000000000000
00000000000000
00000000000000
00000000000000
00000000000000
00000000000000
00000000000000
ENDCHAR
STARTCHAR U+0074
ENCODING 116
SWIDTH 1000 0
DWIDTH 51 0
BBX 51 60 0 -12
BITMAP
00000000000000
00000000000000
00000000000000
00000000000000
00000000000000
00000000000000
000FF800000000
000FF800000000
000FF800000000
000FF800000000
000FF800000000
000FF800000000
000FF800000000
000FF800000000
000FF800000000
000FF800000000
000FF800000000
000FF800000000
FFFFFFFF800000
FFFFFFFF800000
FFFFFFFF800000
FFFFFFFF800000
FFFFFFFF800000
FFFFFFFF800000
000FF800000000
000FF800000000
000FF800000000
000FF800000000
000FF800000000
000FF800000000
000FF800000000
000FF800000000
000FF800000000
000FF800000000
000FF800000000
000FF800000000
000FF803FE0000
000FF803FE0000
000FF803FE0000
000FF803FE0000
000FF803FE0000
000FF803FE0000
00003FFF800000
00003FFF800000
00003FFF800000
00003FFF800000
00003FFF800000
00003FFF800000
00000000000000
00000000000000
00000000000000
00000000000000
00000000000000
00000000000000
00000000000000
00000000000000
00000000000000
00000000000000
00000000000000
00000000000000
ENDCHAR
STARTCHAR U+0073
ENCODING 115
SWIDTH 1000 0
DWIDTH 51 0
BBX 51 60 0 -12
BITMAP
00000000000000
00000000000000
00000000000000
00000000000000
00000000000000
00000000000000
00000000000000
00000000000000
00000000000000
00000000000000
00000000000000
00000000000000
00000000000000
00000000000000
00000000000000
00000000000000
00000000000000
00000000000000
03FFFFFFFE0000
03FFFFFFFE0000
03FFFFFFFE0000
03FFFFFFFE0000
03FFFFFFFE0000
03FFFFFFFE0000
FF800000000000
FF800000000000
FF800000000000
FF800000000000
FF800000000000
FF800000000000
03FFFFFFFE0000
03FFFFFFFE0000
03FFFFFFFE0000
03FFFFFFFE0000
03FFFFFFFE0000
03FFFFFFFE0000
000000000FF800
000000000FF800
000000000FF800
000000000FF800
000000000FF800
000000000FF800
FFFFFFFFFE0000
FFFFFFFFFE0000
FFFFFFFFFE0000
FFFFFFFFFE0000
FFFFFFFFFE0000
FFFFFFFFFE0000
00000000000000
00000000000000
00000000000000
00000000000000
00000000000000
00000000000000
00000000000000
00000000000000
00000000000000
00000000000000
00000000000000
00000000000000
ENDCHAR
STARTCHAR U+0072
ENCODING 114
SWIDTH 1000 0
DWIDTH 51 0
BBX 51 60 0 -12
BITMAP
00000000000000
00000000000000
00000000000000
00000000000000
00000000000000
00000000000000
00000000000000
00000000000000
00000000000000
00000000000000
00000000000000
00000000000000
00000000000000
00000000000000
00000000000000
00000000000000
00000000000000
00000000000000
FF803FFFFE0000
FF803FFFFE0000
FF803FFFFE0000
FF803FFFFE0000
FF803FFFFE0000
FF803FFFFE0000
03FFF8000FF800
03FFF8000FF800
03FFF8000FF800
03FFF8000FF800
03FFF8000FF800
03FFF8000FF800
03FE0000000000
03FE0000000000
03FE0000000000
03FE0000000000
03FE0000000000
03FE0000000000
03FE0000000000
03FE0000000000
03FE0000000000
03FE0000000000
03FE0000000000
03FE0000000000
03FE0000000000
03FE0000000000
03FE0000000000
03FE0000000000
03FE0000000000
03FE0000000000
00000000000000
00000000000000
00000000000000
00000000000000
00000000000000
00000000000000
00000000000000
00000000000000
00000000000000
00000000000000
00000000000000
00000000000000
ENDCHAR
STARTCHAR U+0071
ENCODING 113
SWIDTH 1000 0
DWIDTH 51 0
BBX 51 60 0 -12
BITMAP
00000000000000
00000000000000
00000000000000
00000000000000
00000000000000
00000000000000
00000000000000
00000000000000
00000000000000
00000000000000
00000000000000
00000000000000
00000000000000
00000000000000
00000000000000
00000000000000
00000000000000
00000000000000
03FFFFFF8FF800
03FFFFFF8FF800
03FFFFFF8FF800
03FFFFFF8FF800
03FFFFFF8FF800
03FFFFFF8FF800
FF800003FFF800
FF800003FFF800
FF800003FFF800
FF800003FFF800
FF800003FFF800
FF800003FFF800
FF800003FFF800
FF800003FFF800
FF800003FFF800
FF800003FFF800
FF800003FFF800
FF800003FFF800
03FFFFFF8FF800
03FFFFFF8FF800
03FFFFFF8FF800
03FFFFFF8FF800
03FFFFFF8FF800
03FFFFFF8FF800
000000000FF800
000000000FF800
000000000FF800
000000000FF800
000000000FF800
000000000FF800
000000000FF800
000000000FF800
000000000FF800
000000000FF800
000000000FF800
000000000FF800
000000000FF800
000000000FF800
000000000FF800
000000000FF800
000000000FF800
000000000FF800
ENDCHAR
STARTCHAR U+0070
ENCODING 112
SWIDTH 1000 0
DWIDTH 51 0
BBX 51 60 0 -12
BITMAP
00000000000000
00000000000000
00000000000000
00000000000000
00000000000000
00000000000000
00000000000000
00000000000000
00000000000000
00000000000000
00000000000000
00000000000000
00000000000000
00000000000000
00000000000000
00000000000000
00000000000000
00000000000000
FF8FFFFFFE0000
FF8FFFFFFE0000
FF8FFFFFFE0000
FF8FFFFFFE0000
FF8FFFFFFE0000
FF8FFFFFFE0000
FFFE00000FF800
FFFE00000FF800
FFFE00000FF800
FFFE00000FF800
FFFE00000FF800
FFFE00000FF800
FFFE00000FF800
FFFE00000FF800
FFFE00000FF800
FFFE00000FF800
FFFE00000FF800
FFFE00000FF800
FF8FFFFFFE0000
FF8FFFFFFE0000
FF8FFFFFFE0000
FF8FFFFFFE0000
FF8FFFFFFE0000
FF8FFFFFFE0000
FF800000000000
FF800000000000
FF800000000000
FF800000000000
FF800000000000
FF800000000000
FF800000000000
FF800000000000
FF800000000000
FF800000000000
FF800000000000
FF800000000000
FF800000000000
FF800000000000
FF800000000000
FF800000000000
FF800000000000
FF800000000000
ENDCHAR
STARTCHAR U+006f
ENCODING 111
SWIDTH 1000 0
DWIDTH 51 0
BBX 51 60 0 -12
BITMAP
00000000000000
00000000000000
00000000000000
00000000000000
00000000000000
00000000000000
00000000000000
00000000000000
00000000000000
00000000000000
00000000000000
00000000000000
00000000000000
00000000000000
00000000000000
00000000000000
00000000000000
00000000000000
03FFFFFFFE0000
03FFFFFFFE0000
03FFFFFFFE0000
03FFFFFFFE0000
03FFFFFFFE0000
03FFFFFFFE0000
FF8000000FF800
FF8000000FF800
FF8000000FF800
FF8000000FF800
FF8000000FF800
FF8000000FF800
FF8000000FF800
FF8000000FF800
FF8000000FF800
FF8000000FF800
FF8000000FF800
FF8000000FF800
FF8000000FF800
FF8000000FF800
FF8000000FF800
FF8000000FF800
FF8000000FF800
FF8000000FF800
03FFFFFFFE0000
03FFFFFFFE0000
03FFFFFFFE0000
03FFFFFFFE0000
03FFFFFFFE0000
03FFFFFFFE0000
00000000000000
00000000000000
00000000000000
00000000000000
00000000000000
00000000000000
00000000000000
00000000000000
00000000000000
00000000000000
00000000000000
00000000000000
ENDCHAR
STARTCHAR U+006e
ENCODING 110
SWIDTH 1000 0
DWIDTH 51 0
BBX 51 60 0 -12
BITMAP
00000000000000
00000000000000
00000000000000
00000000000000
00000000000000
00000000000000
00000000000000
00000000000000
00000000000000
00000000000000
00000000000000
00000000000000
00000000000000
00000000000000
00000000000000
00000000000000
00000000000000
00000000000000
FF8FFFFFFE0000
FF8FFFFFFE0000
FF8FFFFFFE0000
FF8FFFFFFE0000
FF8FFFFFFE0000
FF8FFFFFFE0000
FFFE00000FF800
FFFE00000FF800
FFFE00000FF800
FFFE00000FF800
FFFE00000FF800
FFFE00000FF800
FF8000000FF800
FF8000000FF800
FF8000000FF800
FF8000000FF800
FF8000000FF800
FF8000000FF800
FF8000000FF800
FF8000000FF800
FF8000000FF800
FF8000000FF800
FF8000000FF800
FF8000000FF800
FF8000000FF800
FF8000000FF800
FF8000000FF800
FF8000000FF800
FF8000000FF800
FF8000000FF800
00000000000000
00000000000000
00000000000000
00000000000000
00000000000000
00000000000000
00000000000000
00000000000000
00000000000000
00000000000000
00000000000000
00000000000000
ENDCHAR
STARTCHAR U+006d
ENCODING 109
SWIDTH 1000 0
DWIDTH 51 0
BBX 51 60 0 -12
BITMAP
00000000000000
00000000000000
00000000000000
00000000000000
00000000000000
00000000000000
00000000000000
00000000000000
00000000000000
00000000000000
00000000000000
00000000000000
00000000000000
00000000000000
00000000000000
00000000000000
00000000000000
00000000000000
FFFE0003FE0000
FFFE0003FE0000
FFFE0003FE0000
FFFE0003FE0000
FFFE0003FE0000
FFFE0003FE0000
FF8FF8FF8FF800
FF8FF8FF8FF800
FF8FF8FF8FF800
FF8FF8FF8FF800
FF8FF8FF8FF800
FF8FF8FF8FF800
FF803FE00FF800
FF803FE00FF800
FF803FE00FF800
FF803FE00FF800
FF803FE00FF800
FF803FE00FF800
FF803FE00FF800
FF803FE00FF800
FF803FE00FF800
FF803FE00FF800
FF803FE00FF800
FF803FE00FF800
FF8000000FF800
FF8000000FF800
FF8000000FF800
FF8000000FF800
FF8000000FF800
FF8000000FF800
00000000000000
00000000000000
00000000000000
00000000000000
00000000000000
00000000000000
00000000000000
00000000000000
00000000000000
00000000000000
00000000000000
00000000000000
ENDCHAR
STARTCHAR U+006c
ENCODING 108
SWIDTH 1000 0
DWIDTH 51 0
BBX 51 60 0 -12
BITMAP
00000000000000
00000000000000
00000000000000
00000000000000
00000000000000
00000000000000
000FFFE0000000
000FFFE0000000
000FFFE0000000
000FFFE0000000
000FFFE0000000
000FFFE0000000
00003FE0000000
00003FE0000000
00003FE0000000
00003FE0000000
00003FE0000000
00003FE0000000
00003FE0000000
00003FE0000000
00003FE0000000
00003FE0000000
00003FE0000000
00003FE0000000
00003FE0000000
00003FE0000000
00003FE0000000
00003FE0000000
00003FE0000000
00003FE0000000
00003FE0000000
00003FE0000000
00003FE0000000
00003FE0000000
00003FE0000000
00003FE0000000
00003FE0000000
00003FE0000000
00003FE0000000
00003FE0000000
00003FE0000000
00003FE0000000
000FFFFF800000
000FFFFF800000
000FFFFF800000
000FFFFF800000
000FFFFF800000
000FFFFF800000
00000000000000
00000000000000
00000000000000
00000000000000
00000000000000
00000000000000
00000000000000
00000000000000
00000000000000
00000000000000
00000000000000
00000000000000
ENDCHAR
STARTCHAR U+006b
ENCODING 107
SWIDTH 1000 0
DWIDTH 51 0
BBX 51 60 0 -12
BITMAP
00000000000000
00000000000000
00000000000000
00000000000000
00000000000000
00000000000000
FF800000000000
FF800000000000
FF800000000000
FF800000000000
FF800000000000
FF800000000000
FF800000000000
FF800000000000
FF800000000000
FF800000000000
FF800000000000
FF800000000000
FF8000FF800000
FF8000FF800000
FF8000FF800000
FF8000FF800000
FF8000FF800000
FF8000FF800000
FF803FE0000000
FF803FE0000000
FF803FE0000000
FF803FE0000000
FF803FE0000000
FF803FE0000000
FFFFF800000000
FFFFF800000000
FFFFF800000000
FFFFF800000000
FFFFF800000000
FFFFF800000000
FF8000FF800000
FF8000FF800000
FF8000FF800000
FF8000FF800000
FF8000FF800000
FF8000FF800000
FF8000000FF800
FF8000000FF800
FF8000000FF800
FF8000000FF800
FF8000000FF800
FF8000000FF800
00000000000000
00000000000000
00000000000000
00000000000000
00000000000000
00000000000000
00000000000000
00000000000000
00000000000000
00000000000000
00000000000000
00000000000000
ENDCHAR
STARTCHAR U+006a
ENCODING 106
SWIDTH 1000 0
DWIDTH 51 0
BBX 51 60 0 -12
BITMAP
00000000000000
00000000000000
00000000000000
00000000000000
00000000000000
00000000000000
00000003FE0000
00000003FE0000
00000003FE0000
00000003FE0000
00000003FE0000
00000003FE0000
00000000000000
00000000000000
00000000000000
00000000000000
00000000000000
00000000000000
00000003FE0000
00000003FE0000
00000003FE0000
00000003FE0000
00000003FE0000
00000003FE0000
00000003FE0000
00000003FE0000
00000003FE0000
00000003FE0000
00000003FE0000
00000003FE0000
00000003FE0000
00000003FE0000
00000003FE0000
00000003FE0000
00000003FE0000
00000003FE0000
00000003FE0000
00000003FE0000
00000003FE0000
00000003FE0000
00000003FE0000
00000003FE0000
FF800003FE0000
FF800003FE0000
FF800003FE0000
FF800003FE0000
FF800003FE0000
FF800003FE0000
FF800003FE0000
FF800003FE0000
FF800003FE0000
FF800003FE0000
FF800003FE0000
FF800003FE0000
03FFFFFF800000
03FFFFFF800000
03FFFFFF800000
03FFFFFF800000
03FFFFFF800000
03FFFFFF800000
ENDCHAR
STARTCHAR U+0069
ENCODING 105
SWIDTH 1000 0
DWIDTH 51 0
BBX 51 60 0 -12
BITMAP
00000000000000
00000000000000
00000000000000
00000000000000
00000000000000
00000000000000
00003FE0000000
00003FE0000000
00003FE0000000
00003FE0000000
00003FE0000000
00003FE0000000
00000000000000
00000000000000
00000000000000
00000000000000
00000000000000
00000000000000
000FFFE0000000
000FFFE0000000
000FFFE0000000
000FFFE0000000
000FFFE0000000
000FFFE0000000
00003FE0000000
00003FE0000000
00003FE0000000
00003FE0000000
00003FE0000000
00003FE0000000
00003FE0000000
00003FE0000000
00003FE0000000
00003FE0000000
00003FE0000000
00003FE0000000
00003FE0000000
00003FE0000000
00003FE0000000
00003FE0000000
00003FE0000000
00003FE0000000
03FFFFFFFE0000
03FFFFFFFE0000
03FFFFFFFE0000
03FFFFFFFE0000
03FFFFFFFE0000
03FFFFFFFE0000
00000000000000
00000000000000
00000000000000
00000000000000
00000000000000
00000000000000
00000000000000
00000000000000
00000000000000
00000000000000
00000000000000
00000000000000
ENDCHAR
STARTCHAR U+0068
ENCODING 104
SWIDTH 1000 0
DWIDTH 51 0
BBX 51 60 0 -12
BITMAP
00000000000000
00000000000000
00000000000000
00000000000000
00000000000000
00000000000000
FF800000000000
FF800000000000
FF800000000000
FF800000000000
FF800000000000
FF800000000000
FF800000000000
FF800000000000
FF800000000000
FF800000000000
FF800000000000
FF800000000000
FF8FFFFFFE0000
FF8FFFFFFE0000
FF8FFFFFFE0000
FF8FFFFFFE0000
FF8FFFFFFE0000
FF8FFFFFFE0000
FFFE00000FF800
FFFE00000FF800
FFFE00000FF800
FFFE00000FF800
FFFE00000FF800
FFFE00000FF800
FF8000000FF800
FF8000000FF800
FF8000000FF800
FF8000000FF800
FF8000000FF800
FF8000000FF800
FF8000000FF800
FF8000000FF800
FF8000000FF800
FF8000000FF800
FF8000000FF800
FF8000000FF800
FF8000000FF800
FF8000000FF800
FF8000000FF800
FF8000000FF800
FF8000000FF800
FF8000000FF800
00000000000000
00000000000000
00000000000000
00000000000000
00000000000000
00000000000000
00000000000000
00000000000000
00000000000000
00000000000000
00000000000000
00000000000000
ENDCHAR
STARTCHAR U+0067
ENCODING 103
SWIDTH 1000 0
DWIDTH 51 0
BBX 51 60 0 -12
BITMAP
00000000000000
00000000000000
00000000000000
00000000000000
00000000000000
00000000000000
00000000000000
00000000000000
00000000000000
00000000000000
00000000000000
00000000000000
00000000000000
00000000000000
00000000000000
00000000000000
00000000000000
00000000000000
03FFFFFF8FF800
03FFFFFF8FF800
03FFFFFF8FF800
03FFFFFF8FF800
03FFFFFF8FF800
03FFFFFF8FF800
FF800003FE0000
FF800003FE0000
FF800003FE0000
FF800003FE0000
FF800003FE0000
FF800003FE0000
03FFFFFF800000
03FFFFFF800000
03FFFFFF800000
03FFFFFF800000
03FFFFFF800000
03FFFFFF800000
FF800000000000
FF800000000000
FF800000000000
FF800000000000
FF800000000000
FF800000000000
03FFFFFFFE0000
03FFFFFFFE0000
03FFFFFFFE0000
03FFFFFFFE0000
03FFFFFFFE0000
03FFFFFFFE0000
FF8000000FF800
FF8000000FF800
FF8000000FF800
FF8000000FF800
FF8000000FF800
FF8000000FF800
03FFFFFFFE0000
03FFFFFFFE0000
03FFFFFFFE0000
03FFFFFFFE0000
03FFFFFFFE0000
03FFFFFFFE0000
ENDCHAR
STARTCHAR U+0066
ENCODING 102
SWIDTH 1000 0
DWIDTH 51 0
BBX 51 60 0 -12
BITMAP
00000000000000
00000000000000
00000000000000
00000000000000
00000000000000
00000000000000
00003FFFFE0000
00003FFFFE0000
00003FFFFE0000
00003FFFFE0000
00003FFFFE0000
00003FFFFE0000
000FF8000FF800
000FF8000FF800
000FF8000FF800
000FF8000FF800
000FF8000FF800
000FF8000FF800
000FF800000000
000FF800000000
000FF800000000
000FF800000000
000FF800000000
000FF800000000
FFFFFFFF800000
FFFFFFFF800000
FFFFFFFF800000
FFFFFFFF800000
FFFFFFFF800000
FFFFFFFF800000
000FF800000000
000FF800000000
000FF800000000
000FF800000000
000FF800000000
000FF800000000
000FF800000000
000FF800000000
000FF800000000
000FF800000000
000FF800000000
000FF800000000
000FF800000000
000FF800000000
000FF800000000
000FF800000000
000FF800000000
000FF800000000
00000000000000
00000000000000
00000000000000
00000000000000
00000000000000
00000000000000
00000000000000
00000000000000
00000000000000
00000000000000
00000000000000
00000000000000
ENDCHAR
STARTCHAR U+0065
ENCODING 101
SWIDTH 1000 0
DWIDTH 51 0
BBX 51 60 0 -12
BITMAP
00000000000000
00000000000000
00000000000000
00000000000000
00000000000000
00000000000000
00000000000000
00000000000000
00000000000000
00000000000000
00000000000000
00000000000000
00000000000000
00000000000000
00000000000000
00000000000000
00000000000000
00000000000000
03FFFFFFFE0000
03FFFFFFFE0000
03FFFFFFFE0000
03FFFFFFFE0000
03FFFFFFFE0000
03FFFFFFFE0000
FF8000000FF800
FF8000000FF800
FF8000000FF800
FF8000000FF800
FF8000000FF800
FF8000000FF800
FFFFFFFFFFF800
FFFFFFFFFFF800
FFFFFFFFFFF800
FFFFFFFFFFF800
FFFFFFFFFFF800
FFFFFFFFFFF800
FF800000000000
FF800000000000
FF800000000000
FF800000000000
FF800000000000
FF800000000000
03FFFFFFFE0000
03FFFFFFFE0000
03FFFFFFFE0000
03FFFFFFFE0000
03FFFFFFFE0000
03FFFFFFFE0000
00000000000000
00000000000000
00000000000000
00000000000000
00000000000000
00000000000000
00000000000000
00000000000000
00000000000000
00000000000000
00000000000000
00000000000000
ENDCHAR
STARTCHAR U+0064
ENCODING 100
SWIDTH 1000 0
DWIDTH 51 0
BBX 51 60 0 -12
BITMAP
00000000000000
00000000000000
00000000000000
00000000000000
00000000000000
00000000000000
000000000FF800
000000000FF800
000000000FF800
000000000FF800
000000000FF800
000000000FF800
000000000FF800
000000000FF800
000000000FF800
000000000FF800
000000000FF800
000000000FF800
03FFFFFF8FF800
03FFFFFF8FF800
03FFFFFF8FF800
03FFFFFF8FF800
03FFFFFF8FF800
03FFFFFF8FF800
FF800003FFF800
FF800003FFF800
FF800003FFF800
FF800003FFF800
FF800003FFF800
FF800003FFF800
FF8000000FF800
FF8000000FF800
FF8000000FF800
FF8000000FF800
FF8000000FF800
FF8000000FF800
FF800003FFF800
FF800003FFF800
FF800003FFF800
FF800003FFF800
FF800003FFF800
FF800003FFF800
03FFFFFF8FF800
03FFFFFF8FF800
03FFFFFF8FF800
03FFFFFF8FF800
03FFFFFF8FF800
03FFFFFF8FF800
00000000000000
00000000000000
00000000000000
00000000000000
00000000000000
00000000000000
00000000000000
00000000000000
00000000000000
00000000000000
00000000000000
00000000000000
ENDCHAR
STARTCHAR U+0063
ENCODING 99
SWIDTH 1000 0
DWIDTH 51 0
BBX 51 60 0 -12
BITMAP
00000000000000
00000000000000
00000000000000
00000000000000
00000000000000
00000000000000
00000000000000
00000000000000
00000000000000
00000000000000
00000000000000
00000000000000
00000000000000
00000000000000
00000000000000
00000000000000
00000000000000
00000000000000
03FFFFFFFE0000
03FFFFFFFE0000
03FFFFFFFE0000
03FFFFFFFE0000
03FFFFFFFE0000
03FFFFFFFE0000
FF8000000FF800
FF8000000FF800
FF8000000FF800
FF8000000FF800
FF8000000FF800
FF8000000FF800
FF800000000000
FF800000000000
FF800000000000
FF800000000000
FF800000000000
FF800000000000
FF800000000000
FF800000000000
FF800000000000
FF800000000000
FF800000000000
FF800000000000
03FFFFFFFFF800
03FFFFFFFFF800
03FFFFFFFFF800
03FFFFFFFFF800
03FFFFFFFFF800
03FFFFFFFFF800
00000000000000
00000000000000
00000000000000
00000000000000
00000000000000
00000000000000
00000000000000
00000000000000
00000000000000
00000000000000
00000000000000
00000000000000
ENDCHAR
STARTCHAR U+0062
ENCODING 98
SWIDTH 1000 0
DWIDTH 51 0
BBX 51 60 0 -12
BITMAP
00000000000000
00000000000000
00000000000000
00000000000000
00000000000000
00000000000000
FF800000000000
FF800000000000
FF800000000000
FF800000000000
FF800000000000
FF800000000000
FF800000000000
FF800000000000
FF800000000000
FF800000000000
FF800000000000
FF800000000000
FF8FFFFFFE0000
FF8FFFFFFE0000
FF8FFFFFFE0000
FF8FFFFFFE0000
FF8FFFFFFE0000
FF8FFFFFFE0000
FFFE00000FF800
FFFE00000FF800
FFFE00000FF800
FFFE00000FF800
FFFE00000FF800
FFFE00000FF800
FF8000000FF800
FF8000000FF800
FF8000000FF800
FF8000000FF800
FF8000000FF800
FF8000000FF800
FFFE00000FF800
FFFE00000FF800
FFFE00000FF800
FFFE00000FF800
FFFE00000FF800
FFFE00000FF800
FF8FFFFFFE0000
FF8FFFFFFE0000
FF8FFFFFFE0000
FF8FFFFFFE0000
FF8FFFFFFE0000
FF8FFFFFFE0000
00000000000000
00000000000000
00000000000000
00000000000000
00000000000000
00000000000000
00000000000000
00000000000000
00000000000000
00000000000000
00000000000000
00000000000000
ENDCHAR
STARTCHAR U+0061
ENCODING 97
SWIDTH 1000 0
DWIDTH 51 0
BBX 51 60 0 -12
BITMAP
00000000000000
00000000000000
00000000000000
00000000000000
00000000000000
00000000000000
00000000000000
00000000000000
00000000000000
00000000000000
00000000000000
00000000000000
00000000000000
00000000000000
00000000000000
00000000000000
00000000000000
00000000000000
03FFFFFFFE0000
03FFFFFFFE0000
03FFFFFFFE0000
03FFFFFFFE0000
03FFFFFFFE0000
03FFFFFFFE0000
000000000FF800
000000000FF800
000000000FF800
000000000FF800
000000000FF800
000000000FF800
03FFFFFFFFF800
03FFFFFFFFF800
03FFFFFFFFF800
03FFFFFFFFF800
03FFFFFFFFF800
03FFFFFFFFF800
FF800003FFF800
FF800003FFF800
FF800003FFF800
FF800003FFF800
FF800003FFF800
FF800003FFF800
03FFFFFF8FF800
03FFFFFF8FF800
03FFFFFF8FF800
03FFFFFF8FF800
03FFFFFF8FF800
03FFFFFF8FF800
00000000000000
00000000000000
00000000000000
00000000000000
00000000000000
00000000000000
00000000000000
00000000000000
00000000000000
00000000000000
00000000000000
00000000000000
ENDCHAR
STARTCHAR U+0060
ENCODING 96
SWIDTH 1000 0
DWIDTH 51 0
BBX 51 60 0 -12
BITMAP
00000000000000
00000000000000
00000000000000
00000000000000
00000000000000
00000000000000
000FFFE0000000
000FFFE0000000
000FFFE0000000
000FFFE0000000
000FFFE0000000
000FFFE0000000
00003FE0000000
00003FE0000000
00003FE0000000
00003FE0000000
00003FE0000000
00003FE0000000
000000FF800000
000000FF800000
000000FF800000
000000FF800000
000000FF800000
000000FF800000
00000000000000
00000000000000
00000000000000
00000000000000
00000000000000
00000000000000
00000000000000
00000000000000
00000000000000
00000000000000
00000000000000
00000000000000
00000000000000
00000000000000
00000000000000
00000000000000
00000000000000
00000000000000
00000000000000
00000000000000
00000000000000
00000000000000
00000000000000
00000000000000
00000000000000
00000000000000
00000000000000
00000000000000
00000000000000
00000000000000
00000000000000
00000000000000
00000000000000
00000000000000
00000000000000
00000000000000
ENDCHAR
STARTCHAR U+005F
ENCODING 95
SWIDTH 1000 0
DWIDTH 51 0
BBX 51 60 0 -12
BITMAP
00000000000000
00000000000000
00000000000000
00000000000000
00000000000000
00000000000000
00000000000000
00000000000000
00000000000000
00000000000000
00000000000000
00000000000000
00000000000000
00000000000000
00000000000000
00000000000000
00000000000000
00000000000000
00000000000000
00000000000000
00000000000000
00000000000000
00000000000000
00000000000000
00000000000000
00000000000000
00000000000000
00000000000000
00000000000000
00000000000000
00000000000000
00000000000000
00000000000000
00000000000000
00000000000000
00000000000000
00000000000000
00000000000000
00000000000000
00000000000000
00000000000000
00000000000000
FFFFFFFFFFF800
FFFFFFFFFFF800
FFFFFFFFFFF800
FFFFFFFFFFF800
FFFFFFFFFFF800
FFFFFFFFFFF800
00000000000000
00000000000000
00000000000000
00000000000000
00000000000000
00000000000000
00000000000000
00000000000000
00000000000000
00000000000000
00000000000000
00000000000000
ENDCHAR
STARTCHAR U+005E
ENCODING 94
SWIDTH 1000 0
DWIDTH 51 0
BBX 51 60 0 -12
BITMAP
00000000000000
00000000000000
00000000000000
00000000000000
00000000000000
00000000000000
00003FE0000000
00003FE0000000
00003FE0000000
00003FE0000000
00003FE0000000
00003FE0000000
000FF8FF800000
000FF8FF800000
000FF8FF800000
000FF8FF800000
000FF8FF800000
000FF8FF800000
03FE0003FE0000
03FE0003FE0000
03FE0003FE0000
03FE0003FE0000
03FE0003FE0000
03FE0003FE0000
FF8000000FF800
FF8000000FF800
FF8000000FF800
FF8000000FF800
FF8000000FF800
FF8000000FF800
00000000000000
00000000000000
00000000000000
00000000000000
00000000000000
00000000000000
00000000000000
00000000000000
00000000000000
00000000000000
00000000000000
00000000000000
00000000000000
00000000000000
00000000000000
00000000000000
00000000000000
00000000000000
00000000000000
00000000000000
00000000000000
00000000000000
00000000000000
00000000000000
00000000000000
00000000000000
00000000000000
00000000000000
00000000000000
00000000000000
ENDCHAR
STARTCHAR U+005D
ENCODING 93
SWIDTH 1000 0
DWIDTH 51 0
BBX 51 60 0 -12
BITMAP
00000000000000
00000000000000
00000000000000
00000000000000
00000000000000
00000000000000
03FFFFFF800000
03FFFFFF800000
03FFFFFF800000
03FFFFFF800000
03FFFFFF800000
03FFFFFF800000
000000FF800000
000000FF800000
000000FF800000
000000FF800000
000000FF800000
000000FF800000
000000FF800000
000000FF800000
000000FF800000
000000FF800000
000000FF800000
000000FF800000
000000FF800000
000000FF800000
000000FF800000
000000FF800000
000000FF800000
000000FF800000
000000FF800000
000000FF800000
000000FF800000
000000FF800000
000000FF800000
000000FF800000
000000FF800000
000000FF800000
000000FF800000
000000FF800000
000000FF800000
000000FF800000
03FFFFFF800000
03FFFFFF800000
03FFFFFF800000
03FFFFFF800000
03FFFFFF800000
03FFFFFF800000
00000000000000
00000000000000
00000000000000
00000000000000
00000000000000
00000000000000
00000000000000
00000000000000
00000000000000
00000000000000
00000000000000
00000000000000
ENDCHAR
STARTCHAR U+005C
ENCODING 92
SWIDTH 1000 0
DWIDTH 51 0
BBX 51 60 0 -12
BITMAP
00000000000000
00000000000000
00000000000000
00000000000000
00000000000000
00000000000000
FF800000000000
FF800000000000
FF800000000000
FF800000000000
FF800000000000
FF800000000000
03FE0000000000
03FE0000000000
03FE0000000000
03FE0000000000
03FE0000000000
03FE0000000000
000FF800000000
000FF800000000
000FF800000000
000FF800000000
000FF800000000
000FF800000000
00003FE0000000
00003FE0000000
00003FE0000000
00003FE0000000
00003FE0000000
00003FE0000000
000000FF800000
000000FF800000
000000FF800000
000000FF800000
000000FF800000
000000FF800000
00000003FE0000
00000003FE0000
00000003FE0000
00000003FE0000
00000003FE0000
00000003FE0000
000000000FF800
000000000FF800
000000000FF800
000000000FF800
000000000FF800
000000000FF800
00000000000000
00000000000000
00000000000000
00000000000000
00000000000000
00000000000000
00000000000000
00000000000000
00000000000000
00000000000000
00000000000000
00000000000000
ENDCHAR
STARTCHAR U+005B
ENCODING 91
SWIDTH 1000 0
DWIDTH 51 0
BBX 51 60 0 -12
BITMAP
00000000000000
00000000000000
00000000000000
00000000000000
00000000000000
00000000000000
000FFFFFFE0000
000FFFFFFE0000
000FFFFFFE0000
000FFFFFFE0000
000FFFFFFE0000
000FFFFFFE0000
000FF800000000
000FF800000000
000FF800000000
000FF800000000
000FF800000000
000FF800000000
000FF800000000
000FF800000000
000FF800000000
000FF800000000
000FF800000000
000FF800000000
000FF800000000
000FF800000000
000FF800000000
000FF800000000
000FF800000000
000FF800000000
000FF800000000
000FF800000000
000FF800000000
000FF800000000
000FF800000000
000FF800000000
000FF800000000
000FF800000000
000FF800000000
000FF800000000
000FF800000000
000FF800000000
000FFFFFFE0000
000FFFFFFE0000
000FFFFFFE0000
000FFFFFFE0000
000FFFFFFE0000
000FFFFFFE0000
00000000000000
00000000000000
00000000000000
00000000000000
00000000000000
00000000000000
00000000000000
00000000000000
00000000000000
00000000000000
00000000000000
00000000000000
ENDCHAR
STARTCHAR U+005A
ENCODING 90
SWIDTH 1000 0
DWIDTH 51 0
BBX 51 60 0 -12
BITMAP
00000000000000
00000000000000
00000000000000
00000000000000
00000000000000
00000000000000
FFFFFFFFFFF800
FFFFFFFFFFF800
FFFFFFFFFFF800
FFFFFFFFFFF800
FFFFFFFFFFF800
FFFFFFFFFFF800
00000003FE0000
00000003FE0000
00000003FE0000
00000003FE0000
00000003FE0000
00000003FE0000
000000FF800000
000000FF800000
000000FF800000
000000FF800000
000000FF800000
000000FF800000
00003FE0000000
00003FE0000000
00003FE0000000
00003FE0000000
00003FE0000000
00003FE0000000
000FF800000000
000FF800000000
000FF800000000
000FF800000000
000FF800000000
000FF800000000
03FE0000000000
03FE0000000000
03FE0000000000
03FE0000000000
03FE0000000000
03FE0000000000
FFFFFFFFFFF800
FFFFFFFFFFF800
FFFFFFFFFFF800
FFFFFFFFFFF800
FFFFFFFFFFF800
FFFFFFFFFFF800
00000000000000
00000000000000
00000000000000
00000000000000
00000000000000
00000000000000
00000000000000
00000000000000
00000000000000
00000000000000
00000000000000
00000000000000
ENDCHAR
STARTCHAR U+0059
ENCODING 89
SWIDTH 1000 0
DWIDTH 51 0
BBX 51 60 0 -12
BITMAP
00000000000000
00000000000000
00000000000000
00000000000000
00000000000000
00000000000000
FF8000000FF800
FF8000000FF800
FF8000000FF800
FF8000000FF800
FF8000000FF800
FF8000000FF800
03FE0003FE0000
03FE0003FE0000
03FE0003FE0000
03FE0003FE0000
03FE0003FE0000
03FE0003FE0000
000FF8FF800000
000FF8FF800000
000FF8FF800000
000FF8FF800000
000FF8FF800000
000FF8FF800000
00003FE0000000
00003FE0000000
00003FE0000000
00003FE0000000
00003FE0000000
00003FE0000000
00003FE0000000
00003FE0000000
00003FE0000000
00003FE0000000
00003FE0000000
00003FE0000000
00003FE0000000
00003FE0000000
00003FE0000000
00003FE0000000
00003FE0000000
00003FE0000000
00003FE0000000
00003FE0000000
00003FE0000000
00003FE0000000
00003FE0000000
00003FE0000000
00000000000000
00000000000000
00000000000000
00000000000000
00000000000000
00000000000000
00000000000000
00000000000000
00000000000000
00000000000000
00000000000000
00000000000000
ENDCHAR
STARTCHAR U+0058
ENCODING 88
SWIDTH 1000 0
DWIDTH 51 0
BBX 51 60 0 -12
BITMAP
00000000000000
00000000000000
00000000000000
00000000000000
00000000000000
00000000000000
FF8000000FF800
FF8000000FF800
FF8000000FF800
FF8000000FF800
FF8000000FF800
FF8000000FF800
03FE0003FE0000
03FE0003FE0000
03FE0003FE0000
03FE0003FE0000
03FE0003FE0000
03FE0003FE0000
000FF8FF800000
000FF8FF800000
000FF8FF800000
000FF8FF800000
000FF8FF800000
000FF8FF800000
00003FE0000000
00003FE0000000
00003FE0000000
00003FE0000000
00003FE0000000
00003FE0000000
000FF8FF800000
000FF8FF800000
000FF8FF800000
000FF8FF800000
000FF8FF800000
000FF8FF800000
03FE0003FE0000
03FE0003FE0000
03FE0003FE0000
03FE0003FE0000
03FE0003FE0000
03FE0003FE0000
FF8000000FF800
FF8000000FF800
FF8000000FF800
FF8000000FF800
FF8000000FF800
FF8000000FF800
00000000000000
00000000000000
00000000000000
00000000000000
00000000000000
00000000000000
00000000000000
00000000000000
00000000000000
00000000000000
00000000000000
00000000000000
ENDCHAR
STARTCHAR U+0057
ENCODING 87
SWIDTH 1000 0
DWIDTH 51 0
BBX 51 60 0 -12
BITMAP
00000000000000
00000000000000
00000000000000
00000000000000
00000000000000
00000000000000
FF8000000FF800
FF8000000FF800
FF8000000FF800
FF8000000FF800
FF8000000FF800
FF8000000FF800
FF8000000FF800
FF8000000FF800
FF8000000FF800
FF8000000FF800
FF8000000FF800
FF8000000FF800
FF8000000FF800
FF8000000FF800
FF8000000FF800
FF8000000FF800
FF8000000FF800
FF8000000FF800
FF803FE00FF800
FF803FE00FF800
FF803FE00FF800
FF803FE00FF800
FF803FE00FF800
FF803FE00FF800
FF803FE00FF800
FF803FE00FF800
FF803FE00FF800
FF803FE00FF800
FF803FE00FF800
FF803FE00FF800
FF8FF8FF8FF800
FF8FF8FF8FF800
FF8FF8FF8FF800
FF8FF8FF8FF800
FF8FF8FF8FF800
FF8FF8FF8FF800
03FE0003FE0000
03FE0003FE0000
03FE0003FE0000
03FE0003FE0000
03FE0003FE0000
03FE0003FE0000
00000000000000
00000000000000
00000000000000
00000000000000
00000000000000
00000000000000
00000000000000
00000000000000
00000000000000
00000000000000
00000000000000
00000000000000
ENDCHAR
STARTCHAR U+0056
ENCODING 86
SWIDTH 1000 0
DWIDTH 51 0
BBX 51 60 0 -12
BITMAP
00000000000000
00000000000000
00000000000000
00000000000000
00000000000000
00000000000000
FF8000000FF800
FF8000000FF800
FF8000000FF800
FF8000000FF800
FF8000000FF800
FF8000000FF800
FF8000000FF800
FF8000000FF800
FF8000000FF800
FF8000000FF800
FF8000000FF800
FF8000000FF800
03FE0003FE0000
03FE0003FE0000
03FE0003FE0000
03FE0003FE0000
03FE0003FE0000
03FE0003FE0000
03FE0003FE0000
03FE0003FE0000
03FE0003FE0000
03FE0003FE0000
03FE0003FE0000
03FE0003FE0000
000FF8FF800000
000FF8FF800000
000FF8FF800000
000FF8FF800000
000FF8FF800000
000FF8FF800000
000FF8FF800000
000FF8FF800000
000FF8FF800000
000FF8FF800000
000FF8FF800000
000FF8FF800000
00003FE0000000
00003FE0000000
00003FE0000000
00003FE0000000
00003FE0000000
00003FE0000000
00000000000000
00000000000000
00000000000000
00000000000000
00000000000000
00000000000000
00000000000000
00000000000000
00000000000000
00000000000000
00000000000000
00000000000000
ENDCHAR
STARTCHAR U+0055
ENCODING 85
SWIDTH 1000 0
DWIDTH 51 0
BBX 51 60 0 -12
BITMAP
00000000000000
00000000000000
00000000000000
00000000000000
00000000000000
00000000000000
FF8000000FF800
FF8000000FF800
FF8000000FF800
FF8000000FF800
FF8000000FF800
FF8000000FF800
FF8000000FF800
FF8000000FF800
FF8000000FF800
FF8000000FF800
FF8000000FF800
FF8000000FF800
FF8000000FF800
FF8000000FF800
FF8000000FF800
FF8000000FF800
FF8000000FF800
FF8000000FF800
FF8000000FF800
FF8000000FF800
FF8000000FF800
FF8000000FF800
FF8000000FF800
FF8000000FF800
FF8000000FF800
FF8000000FF800
FF8000000FF800
FF8000000FF800
FF8000000FF800
FF8000000FF800
FF8000000FF800
FF8000000FF800
FF8000000FF800
FF8000000FF800
FF8000000FF800
FF8000000FF800
03FFFFFFFE0000
03FFFFFFFE0000
03FFFFFFFE0000
03FFFFFFFE0000
03FFFFFFFE0000
03FFFFFFFE0000
00000000000000
00000000000000
00000000000000
00000000000000
00000000000000
00000000000000
00000000000000
00000000000000
00000000000000
00000000000000
00000000000000
00000000000000
ENDCHAR
STARTCHAR U+0054
ENCODING 84
SWIDTH 1000 0
DWIDTH 51 0
BBX 51 60 0 -12
BITMAP
00000000000000
00000000000000
00000000000000
00000000000000
00000000000000
00000000000000
FFFFFFFFFFF800
FFFFFFFFFFF800
FFFFFFFFFFF800
FFFFFFFFFFF800
FFFFFFFFFFF800
FFFFFFFFFFF800
00003FE0000000
00003FE0000000
00003FE0000000
00003FE0000000
00003FE0000000
00003FE0000000
00003FE0000000
00003FE0000000
00003FE0000000
00003FE0000000
00003FE0000000
00003FE0000000
00003FE0000000
00003FE0000000
00003FE0000000
00003FE0000000
00003FE0000000
00003FE0000000
00003FE0000000
00003FE0000000
00003FE0000000
00003FE0000000
00003FE0000000
00003FE0000000
00003FE0000000
00003FE0000000
00003FE0000000
00003FE0000000
00003FE0000000
00003FE0000000
00003FE0000000
00003FE0000000
00003FE0000000
00003FE0000000
00003FE0000000
00003FE0000000
00000000000000
00000000000000
00000000000000
00000000000000
00000000000000
00000000000000
00000000000000
00000000000000
00000000000000
00000000000000
00000000000000
00000000000000
ENDCHAR
STARTCHAR U+0053
ENCODING 83
SWIDTH 1000 0
DWIDTH 51 0
BBX 51 60 0 -12
BITMAP
00000000000000
00000000000000
00000000000000
00000000000000
00000000000000
00000000000000
03FFFFFFFE0000
03FFFFFFFE0000
03FFFFFFFE0000
03FFFFFFFE0000
03FFFFFFFE0000
03FFFFFFFE0000
FF8000000FF800
FF8000000FF800
FF8000000FF800
FF8000000FF800
FF8000000FF800
FF8000000FF800
FF800000000000
FF800000000000
FF800000000000
FF800000000000
FF800000000000
FF800000000000
03FFFFFFFE0000
03FFFFFFFE0000
03FFFFFFFE0000
03FFFFFFFE0000
03FFFFFFFE0000
03FFFFFFFE0000
000000000FF800
000000000FF800
000000000FF800
000000000FF800
000000000FF800
000000000FF800
FF8000000FF800
FF8000000FF800
FF8000000FF800
FF8000000FF800
FF8000000FF800
FF8000000FF800
03FFFFFFFE0000
03FFFFFFFE0000
03FFFFFFFE0000
03FFFFFFFE0000
03FFFFFFFE0000
03FFFFFFFE0000
00000000000000
00000000000000
00000000000000
00000000000000
00000000000000
00000000000000
00000000000000
00000000000000
00000000000000
00000000000000
00000000000000
00000000000000
ENDCHAR
STARTCHAR U+0052
ENCODING 82
SWIDTH 1000 0
DWIDTH 51 0
BBX 51 60 0 -12
BITMAP
00000000000000
00000000000000
00000000000000
00000000000000
00000000000000
00000000000000
FFFFFFFFFE0000
FFFFFFFFFE0000
FFFFFFFFFE0000
FFFFFFFFFE0000
FFFFFFFFFE0000
FFFFFFFFFE0000
FF8000000FF800
FF8000000FF800
FF8000000FF800
FF8000000FF800
FF8000000FF800
FF8000000FF800
FF8000000FF800
FF8000000FF800
FF8000000FF800
FF8000000FF800
FF8000000FF800
FF8000000FF800
FFFFFFFFFE0000
FFFFFFFFFE0000
FFFFFFFFFE0000
FFFFFFFFFE0000
FFFFFFFFFE0000
FFFFFFFFFE0000
FF8000FF800000
FF8000FF800000
FF8000FF800000
FF8000FF800000
FF8000FF800000
FF8000FF800000
FF800003FE0000
FF800003FE0000
FF800003FE0000
FF800003FE0000
FF800003FE0000
FF800003FE0000
FF8000000FF800
FF8000000FF800
FF8000000FF800
FF8000000FF800
FF8000000FF800
FF8000000FF800
00000000000000
00000000000000
00000000000000
00000000000000
00000000000000
00000000000000
00000000000000
00000000000000
00000000000000
00000000000000
00000000000000
00000000000000
ENDCHAR
STARTCHAR U+0051
ENCODING 81
SWIDTH 1000 0
DWIDTH 51 0
BBX 51 60 0 -12
BITMAP
00000000000000
00000000000000
00000000000000
00000000000000
00000000000000
00000000000000
03FFFFFFFE0000
03FFFFFFFE0000
03FFFFFFFE0000
03FFFFFFFE0000
03FFFFFFFE0000
03FFFFFFFE0000
FF8000000FF800
FF8000000FF800
FF8000000FF800
FF8000000FF800
FF8000000FF800
FF8000000FF800
FF8000000FF800
FF8000000FF800
FF8000000FF800
FF8000000FF800
FF8000000FF800
FF8000000FF800
FF8000000FF800
FF8000000FF800
FF8000000FF800
FF8000000FF800
FF8000000FF800
FF8000000FF800
FF8000FF8FF800
FF8000FF8FF800
FF8000FF8FF800
FF8000FF8FF800
FF8000FF8FF800
FF8000FF8FF800
FF800003FE0000
FF800003FE0000
FF800003FE0000
FF800003FE0000
FF800003FE0000
FF800003FE0000
03FFFFFF8FF800
03FFFFFF8FF800
03FFFFFF8FF800
03FFFFFF8FF800
03FFFFFF8FF800
03FFFFFF8FF800
00000000000000
00000000000000
00000000000000
00000000000000
00000000000000
00000000000000
00000000000000
00000000000000
00000000000000
00000000000000
00000000000000
00000000000000
ENDCHAR
STARTCHAR U+0050
ENCODING 80
SWIDTH 1000 0
DWIDTH 51 0
BBX 51 60 0 -12
BITMAP
00000000000000
00000000000000
00000000000000
00000000000000
00000000000000
00000000000000
FFFFFFFFFE0000
FFFFFFFFFE0000
FFFFFFFFFE0000
FFFFFFFFFE0000
FFFFFFFFFE0000
FFFFFFFFFE0000
FF8000000FF800
FF8000000FF800
FF8000000FF800
FF8000000FF800
FF8000000FF800
FF8000000FF800
FF8000000FF800
FF8000000FF800
FF8000000FF800
FF8000000FF800
FF8000000FF800
FF8000000FF800
FFFFFFFFFE0000
FFFFFFFFFE0000
FFFFFFFFFE0000
FFFFFFFFFE0000
FFFFFFFFFE0000
FFFFFFFFFE0000
FF800000000000
FF800000000000
FF800000000000
FF800000000000
FF800000000000
FF800000000000
FF800000000000
FF800000000000
FF800000000000
FF800000000000
FF800000000000
FF800000000000
FF800000000000
FF800000000000
FF800000000000
FF800000000000
FF800000000000
FF800000000000
00000000000000
00000000000000
00000000000000
00000000000000
00000000000000
00000000000000
00000000000000
00000000000000
00000000000000
00000000000000
00000000000000
00000000000000
ENDCHAR
STARTCHAR U+004F
ENCODING 79
SWIDTH 1000 0
DWIDTH 51 0
BBX 51 60 0 -12
BITMAP
00000000000000
00000000000000
00000000000000
00000000000000
00000000000000
00000000000000
03FFFFFFFE0000
03FFFFFFFE0000
03FFFFFFFE0000
03FFFFFFFE0000
03FFFFFFFE0000
03FFFFFFFE0000
FF8000000FF800
FF8000000FF800
FF8000000FF800
FF8000000FF800
FF8000000FF800
FF8000000FF800
FF8000000FF800
FF8000000FF800
FF8000000FF800
FF8000000FF800
FF8000000FF800
FF8000000FF800
FF8000000FF800
FF8000000FF800
FF8000000FF800
FF8000000FF800
FF8000000FF800
FF8000000FF800
FF8000000FF800
FF8000000FF800
FF8000000FF800
FF8000000FF800
FF8000000FF800
FF8000000FF800
FF8000000FF800
FF8000000FF800
FF8000000FF800
FF8000000FF800
FF8000000FF800
FF8000000FF800
03FFFFFFFE0000
03FFFFFFFE0000
03FFFFFFFE0000
03FFFFFFFE0000
03FFFFFFFE0000
03FFFFFFFE0000
00000000000000
00000000000000
00000000000000
00000000000000
00000000000000
00000000000000
00000000000000
00000000000000
00000000000000
00000000000000
00000000000000
00000000000000
ENDCHAR
STARTCHAR U+004E
ENCODING 78
SWIDTH 1000 0
DWIDTH 51 0
BBX 51 60 0 -12
BITMAP
00000000000000
00000000000000
00000000000000
00000000000000
00000000000000
00000000000000
FF8000000FF800
FF8000000FF800
FF8000000FF800
FF8000000FF800
FF8000000FF800
FF8000000FF800
FFFE00000FF800
FFFE00000FF800
FFFE00000FF800
FFFE00000FF800
FFFE00000FF800
FFFE00000FF800
FF8FF8000FF800
FF8FF8000FF800
FF8FF8000FF800
FF8FF8000FF800
FF8FF8000FF800
FF8FF8000FF800
FF803FE00FF800
FF803FE00FF800
FF803FE00FF800
FF803FE00FF800
FF803FE00FF800
FF803FE00FF800
FF8000FF8FF800
FF8000FF8FF800
FF8000FF8FF800
FF8000FF8FF800
FF8000FF8FF800
FF8000FF8FF800
FF800003FFF800
FF800003FFF800
FF800003FFF800
FF800003FFF800
FF800003FFF800
FF800003FFF800
FF8000000FF800
FF8000000FF800
FF8000000FF800
FF8000000FF800
FF8000000FF800
FF8000000FF800
00000000000000
00000000000000
00000000000000
00000000000000
00000000000000
00000000000000
00000000000000
00000000000000
00000000000000
00000000000000
00000000000000
00000000000000
ENDCHAR
STARTCHAR U+004D
ENCODING 77
SWIDTH 1000 0
DWIDTH 51 0
BBX 51 60 0 -12
BITMAP
00000000000000
00000000000000
00000000000000
00000000000000
00000000000000
00000000000000
FF8000000FF800
FF8000000FF800
FF8000000FF800
FF8000000FF800
FF8000000FF800
FF8000000FF800
FFFE0003FFF800
FFFE0003FFF800
FFFE0003FFF800
FFFE0003FFF800
FFFE0003FFF800
FFFE0003FFF800
FF8FF8FF8FF800
FF8FF8FF8FF800
FF8FF8FF8FF800
FF8FF8FF8FF800
FF8FF8FF8FF800
FF8FF8FF8FF800
FF803FE00FF800
FF803FE00FF800
FF803FE00FF800
FF803FE00FF800
FF803FE00FF800
FF803FE00FF800
FF8000000FF800
FF8000000FF800
FF8000000FF800
FF8000000FF800
FF8000000FF800
FF8000000FF800
FF8000000FF800
FF8000000FF800
FF8000000FF800
FF8000000FF800
FF8000000FF800
FF8000000FF800
FF8000000FF800
FF8000000FF800
FF8000000FF800
FF8000000FF800
FF8000000FF800
FF8000000FF800
00000000000000
00000000000000
00000000000000
00000000000000
00000000000000
00000000000000
00000000000000
00000000000000
00000000000000
00000000000000
00000000000000
00000000000000
ENDCHAR
STARTCHAR U+004C
ENCODING 76
SWIDTH 1000 0
DWIDTH 51 0
BBX 51 60 0 -12
BITMAP
00000000000000
00000000000000
00000000000000
00000000000000
00000000000000
00000000000000
FF800000000000
FF800000000000
FF800000000000
FF800000000000
FF800000000000
FF800000000000
FF800000000000
FF800000000000
FF800000000000
FF800000000000
FF800000000000
FF800000000000
FF800000000000
FF800000000000
FF800000000000
FF800000000000
FF800000000000
FF800000000000
FF800000000000
FF800000000000
FF800000000000
FF800000000000
FF800000000000
FF800000000000
FF800000000000
FF800000000000
FF800000000000
FF800000000000
FF800000000000
FF800000000000
FF800000000000
FF800000000000
FF800000000000
FF800000000000
FF800000000000
FF800000000000
FFFFFFFFFFF800
FFFFFFFFFFF800
FFFFFFFFFFF800
FFFFFFFFFFF800
FFFFFFFFFFF800
FFFFFFFFFFF800
00000000000000
00000000000000
00000000000000
00000000000000
00000000000000
00000000000000
00000000000000
00000000000000
00000000000000
00000000000000
00000000000000
00000000000000
ENDCHAR
STARTCHAR U+004B
ENCODING 75
SWIDTH 1000 0
DWIDTH 51 0
BBX 51 60 0 -12
BITMAP
00000000000000
00000000000000
00000000000000
00000000000000
00000000000000
00000000000000
FF8000000FF800
FF8000000FF800
FF8000000FF800
FF8000000FF800
FF8000000FF800
FF8000000FF800
FF8000FFFE0000
FF8000FFFE0000
FF8000FFFE0000
FF8000FFFE0000
FF8000FFFE0000
FF8000FFFE0000
FF8FFFE0000000
FF8FFFE0000000
FF8FFFE0000000
FF8FFFE0000000
FF8FFFE0000000
FF8FFFE0000000
FFFE0000000000
FFFE0000000000
FFFE0000000000
FFFE0000000000
FFFE0000000000
FFFE0000000000
FF8FFFE0000000
FF8FFFE0000000
FF8FFFE0000000
FF8FFFE0000000
FF8FFFE0000000
FF8FFFE0000000
FF8000FFFE0000
FF8000FFFE0000
FF8000FFFE0000
FF8000FFFE0000
FF8000FFFE0000
FF8000FFFE0000
FF8000000FF800
FF8000000FF800
FF8000000FF800
FF8000000FF800
FF8000000FF800
FF8000000FF800
00000000000000
00000000000000
00000000000000
00000000000000
00000000000000
00000000000000
00000000000000
00000000000000
00000000000000
00000000000000
00000000000000
00000000000000
ENDCHAR
STARTCHAR U+004A
ENCODING 74
SWIDTH 1000 0
DWIDTH 51 0
BBX 51 60 0 -12
BITMAP
00000000000000
00000000000000
00000000000000
00000000000000
00000000000000
00000000000000
000000FFFFF800
000000FFFFF800
000000FFFFF800
000000FFFFF800
000000FFFFF800
000000FFFFF800
00000003FE0000
00000003FE0000
00000003FE0000
00000003FE0000
00000003FE0000
00000003FE0000
00000003FE0000
00000003FE0000
00000003FE0000
00000003FE0000
00000003FE0000
00000003FE0000
00000003FE0000
00000003FE0000
00000003FE0000
00000003FE0000
00000003FE0000
00000003FE0000
00000003FE0000
00000003FE0000
00000003FE0000
00000003FE0000
00000003FE0000
00000003FE0000
FF800003FE0000
FF800003FE0000
FF800003FE0000
FF800003FE0000
FF800003FE0000
FF800003FE0000
03FFFFFF800000
03FFFFFF800000
03FFFFFF800000
03FFFFFF800000
03FFFFFF800000
03FFFFFF800000
00000000000000
00000000000000
00000000000000
00000000000000
00000000000000
00000000000000
00000000000000
00000000000000
00000000000000
00000000000000
00000000000000
00000000000000
ENDCHAR
STARTCHAR U+0049
ENCODING 73
SWIDTH 1000 0
DWIDTH 51 0
BBX 51 60 0 -12
BITMAP
00000000000000
00000000000000
00000000000000
00000000000000
00000000000000
00000000000000
03FFFFFFFE0000
03FFFFFFFE0000
03FFFFFFFE0000
03FFFFFFFE0000
03FFFFFFFE0000
03FFFFFFFE0000
00003FE0000000
00003FE0000000
00003FE0000000
00003FE0000000
00003FE0000000
00003FE0000000
00003FE0000000
00003FE0000000
00003FE0000000
00003FE0000000
00003FE0000000
00003FE0000000
00003FE0000000
00003FE0000000
00003FE0000000
00003FE0000000
00003FE0000000
00003FE0000000
00003FE0000000
00003FE0000000
00003FE0000000
00003FE0000000
00003FE0000000
00003FE0000000
00003FE0000000
00003FE0000000
00003FE0000000
00003FE0000000
00003FE0000000
00003FE0000000
03FFFFFFFE0000
03FFFFFFFE0000
03FFFFFFFE0000
03FFFFFFFE0000
03FFFFFFFE0000
03FFFFFFFE0000
00000000000000
00000000000000
00000000000000
00000000000000
00000000000000
00000000000000
00000000000000
00000000000000
00000000000000
00000000000000
00000000000000
00000000000000
ENDCHAR
STARTCHAR U+0048
ENCODING 72
SWIDTH 1000 0
DWIDTH 51 0
BBX 51 60 0 -12
BITMAP
00000000000000
00000000000000
00000000000000
00000000000000
00000000000000
00000000000000
FF8000000FF800
FF8000000FF800
FF8000000FF800
FF8000000FF800
FF8000000FF800
FF8000000FF800
FF8000000FF800
FF8000000FF800
FF8000000FF800
FF8000000FF800
FF8000000FF800
FF8000000FF800
FF8000000FF800
FF8000000FF800
FF8000000FF800
FF8000000FF800
FF8000000FF800
FF8000000FF800
FFFFFFFFFFF800
FFFFFFFFFFF800
FFFFFFFFFFF800
FFFFFFFFFFF800
FFFFFFFFFFF800
FFFFFFFFFFF800
FF8000000FF800
FF8000000FF800
FF8000000FF800
FF8000000FF800
FF8000000FF800
FF8000000FF800
FF8000000FF800
FF8000000FF800
FF8000000FF800
FF8000000FF800
FF8000000FF800
FF8000000FF800
FF8000000FF800
FF8000000FF800
FF8000000FF800
FF8000000FF800
FF8000000FF800
FF8000000FF800
00000000000000
00000000000000
00000000000000
00000000000000
00000000000000
00000000000000
00000000000000
00000000000000
00000000000000
00000000000000
00000000000000
00000000000000
ENDCHAR
STARTCHAR U+0047
ENCODING 71
SWIDTH 1000 0
DWIDTH 51 0
BBX 51 60 0 -12
BITMAP
00000000000000
00000000000000
00000000000000
00000000000000
00000000000000
00000000000000
000FFFFFFE0000
000FFFFFFE0000
000FFFFFFE0000
000FFFFFFE0000
000FFFFFFE0000
000FFFFFFE0000
03FE00000FF800
03FE00000FF800
03FE00000FF800
03FE00000FF800
03FE00000FF800
03FE00000FF800
FF800000000000
FF800000000000
FF800000000000
FF800000000000
FF800000000000
FF800000000000
FF800000000000
FF800000000000
FF800000000000
FF800000000000
FF800000000000
FF800000000000
FF8000FFFFF800
FF8000FFFFF800
FF8000FFFFF800
FF8000FFFFF800
FF8000FFFFF800
FF8000FFFFF800
03FE00000FF800
03FE00000FF800
03FE00000FF800
03FE00000FF800
03FE00000FF800
03FE00000FF800
000FFFFFFE0000
000FFFFFFE0000
000FFFFFFE0000
000FFFFFFE0000
000FFFFFFE0000
000FFFFFFE0000
00000000000000
00000000000000
00000000000000
00000000000000
00000000000000
00000000000000
00000000000000
00000000000000
00000000000000
00000000000000
00000000000000
00000000000000
ENDCHAR
STARTCHAR U+0046
ENCODING 70
SWIDTH 1000 0
DWIDTH 51 0
BBX 51 60 0 -12
BITMAP
00000000000000
00000000000000
00000000000000
00000000000000
00000000000000
00000000000000
FFFFFFFFFFF800
FFFFFFFFFFF800
FFFFFFFFFFF800
FFFFFFFFFFF800
FFFFFFFFFFF800
FFFFFFFFFFF800
FF800000000000
FF800000000000
FF800000000000
FF800000000000
FF800000000000
FF800000000000
FF800000000000
FF800000000000
FF800000000000
FF800000000000
FF800000000000
FF800000000000
FFFFFFFF800000
FFFFFFFF800000
FFFFFFFF800000
FFFFFFFF800000
FFFFFFFF800000
FFFFFFFF800000
FF800000000000
FF800000000000
FF800000000000
FF800000000000
FF800000000000
FF800000000000
FF800000000000
FF800000000000
FF800000000000
FF800000000000
FF800000000000
FF800000000000
FF800000000000
FF800000000000
FF800000000000
FF800000000000
FF800000000000
FF800000000000
00000000000000
00000000000000
00000000000000
00000000000000
00000000000000
00000000000000
00000000000000
00000000000000
00000000000000
00000000000000
00000000000000
00000000000000
ENDCHAR
STARTCHAR U+0045
ENCODING 69
SWIDTH 1000 0
DWIDTH 51 0
BBX 51 60 0 -12
BITMAP
00000000000000
00000000000000
00000000000000
00000000000000
00000000000000
00000000000000
FFFFFFFFFFF800
FFFFFFFFFFF800
FFFFFFFFFFF800
FFFFFFFFFFF800
FFFFFFFFFFF800
FFFFFFFFFFF800
FF800000000000
FF800000000000
FF800000000000
FF800000000000
FF800000000000
FF800000000000
FF800000000000
FF800000000000
FF800000000000
FF800000000000
FF800000000000
FF800000000000
FFFFFFFF800000
FFFFFFFF800000
FFFFFFFF800000
FFFFFFFF800000
FFFFFFFF800000
FFFFFFFF800000
FF800000000000
FF800000000000
FF800000000000
FF800000000000
FF800000000000
FF800000000000
FF800000000000
FF800000000000
FF800000000000
FF800000000000
FF800000000000
FF800000000000
FFFFFFFFFFF800
FFFFFFFFFFF800
FFFFFFFFFFF800
FFFFFFFFFFF800
FFFFFFFFFFF800
FFFFFFFFFFF800
00000000000000
00000000000000
00000000000000
00000000000000
00000000000000
00000000000000
00000000000000
00000000000000
00000000000000
00000000000000
00000000000000
00000000000000
ENDCHAR
STARTCHAR U+0044
ENCODING 68
SWIDTH 1000 0
DWIDTH 51 0
BBX 51 60 0 -12
BITMAP
00000000000000
00000000000000
00000000000000
00000000000000
00000000000000
00000000000000
FFFFFFFF800000
FFFFFFFF800000
FFFFFFFF800000
FFFFFFFF800000
FFFFFFFF800000
FFFFFFFF800000
03FE0003FE0000
03FE0003FE0000
03FE0003FE0000
03FE0003FE0000
03FE0003FE0000
03FE0003FE0000
03FE00000FF800
03FE00000FF800
03FE00000FF800
03FE00000FF800
03FE00000FF800
03FE00000FF800
03FE00000FF800
03FE00000FF800
03FE00000FF800
03FE00000FF800
03FE00000FF800
03FE00000FF800
03FE00000FF800
03FE00000FF800
03FE00000FF800
03FE00000FF800
03FE00000FF800
03FE00000FF800
03FE0003FE0000
03FE0003FE0000
03FE0003FE0000
03FE0003FE0000
03FE0003FE0000
03FE0003FE0000
FFFFFFFF800000
FFFFFFFF800000
FFFFFFFF800000
FFFFFFFF800000
FFFFFFFF800000
FFFFFFFF800000
00000000000000
00000000000000
00000000000000
00000000000000
00000000000000
00000000000000
00000000000000
00000000000000
00000000000000
00000000000000
00000000000000
00000000000000
ENDCHAR
STARTCHAR U+0043
ENCODING 67
SWIDTH 1000 0
DWIDTH 51 0
BBX 51 60 0 -12
BITMAP
00000000000000
00000000000000
00000000000000
00000000000000
00000000000000
00000000000000
000FFFFFFE0000
000FFFFFFE0000
000FFFFFFE0000
000FFFFFFE0000
000FFFFFFE0000
000FFFFFFE0000
03FE00000FF800
03FE00000FF800
03FE00000FF800
03FE00000FF800
03FE00000FF800
03FE00000FF800
FF800000000000
FF800000000000
FF800000000000
FF800000000000
FF800000000000
FF800000000000
FF800000000000
FF800000000000
FF800000000000
FF800000000000
FF800000000000
FF800000000000
FF800000000000
FF800000000000
FF800000000000
FF800000000000
FF800000000000
FF800000000000
03FE00000FF800
03FE00000FF800
03FE00000FF800
03FE00000FF800
03FE00000FF800
03FE00000FF800
000FFFFFFE0000
000FFFFFFE0000
000FFFFFFE0000
000FFFFFFE0000
000FFFFFFE0000
000FFFFFFE0000
00000000000000
00000000000000
00000000000000
00000000000000
00000000000000
00000000000000
00000000000000
00000000000000
00000000000000
00000000000000
00000000000000
00000000000000
ENDCHAR
STARTCHAR U+0042
ENCODING 66
SWIDTH 1000 0
DWIDTH 51 0
BBX 51 60 0 -12
BITMAP
00000000000000
00000000000000
00000000000000
00000000000000
00000000000000
00000000000000
FFFFFFFFFE0000
FFFFFFFFFE0000
FFFFFFFFFE0000
FFFFFFFFFE0000
FFFFFFFFFE0000
FFFFFFFFFE0000
03FE00000FF800
03FE00000FF800
03FE00000FF800
03FE00000FF800
03FE00000FF800
03FE00000FF800
03FE00000FF800
03FE00000FF800
03FE00000FF800
03FE00000FF800
03FE00000FF800
03FE00000FF800
03FFFFFFFE0000
03FFFFFFFE0000
03FFFFFFFE0000
03FFFFFFFE0000
03FFFFFFFE0000
03FFFFFFFE0000
03FE00000FF800
03FE00000FF800
03FE00000FF800
03FE00000FF800
03FE00000FF800
03FE00000FF800
03FE00000FF800
03FE00000FF800
03FE00000FF800
03FE00000FF800
03FE00000FF800
03FE00000FF800
FFFFFFFFFE0000
FFFFFFFFFE0000
FFFFFFFFFE0000
FFFFFFFFFE0000
FFFFFFFFFE0000
FFFFFFFFFE0000
00000000000000
00000000000000
00000000000000
00000000000000
00000000000000
00000000000000
00000000000000
00000000000000
00000000000000
00000000000000
00000000000000
00000000000000
ENDCHAR
STARTCHAR U+0041
ENCODING 65
SWIDTH 1000 0
DWIDTH 51 0
BBX 51 60 0 -12
BITMAP
00000000000000
00000000000000
00000000000000
00000000000000
00000000000000
00000000000000
00003FE0000000
00003FE0000000
00003FE0000000
00003FE0000000
00003FE0000000
00003FE0000000
000FF8FF800000
000FF8FF800000
000FF8FF800000
000FF8FF800000
000FF8FF800000
000FF8FF800000
03FE0003FE0000
03FE0003FE0000
03FE0003FE0000
03FE0003FE0000
03FE0003FE0000
03FE0003FE0000
FF8000000FF800
FF8000000FF800
FF8000000FF800
FF8000000FF800
FF8000000FF800
FF8000000FF800
FFFFFFFFFFF800
FFFFFFFFFFF800
FFFFFFFFFFF800
FFFFFFFFFFF800
FFFFFFFFFFF800
FFFFFFFFFFF800
FF8000000FF800
FF8000000FF800
FF8000000FF800
FF8000000FF800
FF8000000FF800
FF8000000FF800
FF8000000FF800
FF8000000FF800
FF8000000FF800
FF8000000FF800
FF8000000FF800
FF8000000FF800
00000000000000
00000000000000
00000000000000
00000000000000
00000000000000
00000000000000
00000000000000
00000000000000
00000000000000
00000000000000
00000000000000
00000000000000
ENDCHAR
STARTCHAR U+0040
ENCODING 64
SWIDTH 1000 0
DWIDTH 51 0
BBX 51 60 0 -12
BITMAP
00000000000000
00000000000000
00000000000000
00000000000000
00000000000000
00000000000000
03FFFFFFFE0000
03FFFFFFFE0000
03FFFFFFFE0000
03FFFFFFFE0000
03FFFFFFFE0000
03FFFFFFFE0000
FF8000000FF800
FF8000000FF800
FF8000000FF800
FF8000000FF800
FF8000000FF800
FF8000000FF800
FF803FFFFFF800
FF803FFFFFF800
FF803FFFFFF800
FF803FFFFFF800
FF803FFFFFF800
FF803FFFFFF800
FF8FF803FFF800
FF8FF803FFF800
FF8FF803FFF800
FF8FF803FFF800
FF8FF803FFF800
FF8FF803FFF800
FF803FFF8FF800
FF803FFF8FF800
FF803FFF8FF800
FF803FFF8FF800
FF803FFF8FF800
FF803FFF8FF800
FF800000000000
FF800000000000
FF800000000000
FF800000000000
FF800000000000
FF800000000000
03FFFFFFFE0000
03FFFFFFFE0000
03FFFFFFFE0000
03FFFFFFFE0000
03FFFFFFFE0000
03FFFFFFFE0000
00000000000000
00000000000000
00000000000000
00000000000000
00000000000000
00000000000000
00000000000000
00000000000000
00000000000000
00000000000000
00000000000000
00000000000000
ENDCHAR
STARTCHAR U+003F
ENCODING 63
SWIDTH 1000 0
DWIDTH 51 0
BBX 51 60 0 -12
BITMAP
00000000000000
00000000000000
00000000000000
00000000000000
00000000000000
00000000000000
03FFFFFFFE0000
03FFFFFFFE0000
03FFFFFFFE0000
03FFFFFFFE0000
03FFFFFFFE0000
03FFFFFFFE0000
FF8000000FF800
FF8000000FF800
FF8000000FF800
FF8000000FF800
FF8000000FF800
FF8000000FF800
000000FFFE0000
000000FFFE0000
000000FFFE0000
000000FFFE0000
000000FFFE0000
000000FFFE0000
00003FE0000000
00003FE0000000
00003FE0000000
00003FE0000000
00003FE0000000
00003FE0000000
00003FE0000000
00003FE0000000
00003FE0000000
00003FE0000000
00003FE0000000
00003FE0000000
00000000000000
00000000000000
00000000000000
00000000000000
00000000000000
00000000000000
00003FE0000000
00003FE0000000
00003FE0000000
00003FE0000000
00003FE0000000
00003FE0000000
00000000000000
00000000000000
00000000000000
00000000000000
00000000000000
00000000000000
00000000000000
00000000000000
00000000000000
00000000000000
00000000000000
00000000000000
ENDCHAR
STARTCHAR U+003E
ENCODING 62
SWIDTH 1000 0
DWIDTH 51 0
BBX 51 60 0 -12
BITMAP
00000000000000
00000000000000
00000000000000
00000000000000
00000000000000
00000000000000
FF800000000000
FF800000000000
FF800000000000
FF800000000000
FF800000000000
FF800000000000
000FF800000000
000FF800000000
000FF800000000
000FF800000000
000FF800000000
000FF800000000
000000FF800000
000000FF800000
000000FF800000
000000FF800000
000000FF800000
000000FF800000
000000000FF800
000000000FF800
000000000FF800
000000000FF800
000000000FF800
000000000FF800
000000FF800000
000000FF800000
000000FF800000
000000FF800000
000000FF800000
000000FF800000
000FF800000000
000FF800000000
000FF800000000
000FF800000000
000FF800000000
000FF800000000
FF800000000000
FF800000000000
FF800000000000
FF800000000000
FF800000000000
FF800000000000
00000000000000
00000000000000
00000000000000
00000000000000
00000000000000
00000000000000
00000000000000
00000000000000
00000000000000
00000000000000
00000000000000
00000000000000
ENDCHAR
STARTCHAR U+003D
ENCODING 61
SWIDTH 1000 0
DWIDTH 51 0
BBX 51 60 0 -12
BITMAP
00000000000000
00000000000000
00000000000000
00000000000000
00000000000000
00000000000000
00000000000000
00000000000000
00000000000000
00000000000000
00000000000000
00000000000000
00000000000000
00000000000000
00000000000000
00000000000000
00000000000000
00000000000000
FFFFFFFFFFF800
FFFFFFFFFFF800
FFFFFFFFFFF800
FFFFFFFFFFF800
FFFFFFFFFFF800
FFFFFFFFFFF800
00000000000000
00000000000000
00000000000000
00000000000000
00000000000000
00000000000000
FFFFFFFFFFF800
FFFFFFFFFFF800
FFFFFFFFFFF800
FFFFFFFFFFF800
FFFFFFFFFFF800
FFFFFFFFFFF800
00000000000000
00000000000000
00000000000000
00000000000000
00000000000000
00000000000000
00000000000000
00000000000000
00000000000000
00000000000000
00000000000000
00000000000000
00000000000000
00000000000000
00000000000000
00000000000000
00000000000000
00000000000000
00000000000000
00000000000000
00000000000000
00000000000000
00000000000000
00000000000000
ENDCHAR
STARTCHAR U+003C
ENCODING 60
SWIDTH 1000 0
DWIDTH 51 0
BBX 51 60 0 -12
BITMAP
00000000000000
00000000000000
00000000000000
00000000000000
00000000000000
00000000000000
000000000FF800
000000000FF800
000000000FF800
000000000FF800
000000000FF800
000000000FF800
000000FF800000
000000FF800000
000000FF800000
000000FF800000
000000FF800000
000000FF800000
000FF800000000
000FF800000000
000FF800000000
000FF800000000
000FF800000000
000FF800000000
FF800000000000
FF800000000000
FF800000000000
FF800000000000
FF800000000000
FF800000000000
000FF800000000
000FF800000000
000FF800000000
000FF800000000
000FF800000000
000FF800000000
000000FF800000
000000FF800000
000000FF800000
000000FF800000
000000FF800000
000000FF800000
000000000FF800
000000000FF800
000000000FF800
000000000FF800
000000000FF800
000000000FF800
00000000000000
00000000000000
00000000000000
00000000000000
00000000000000
00000000000000
00000000000000
00000000000000
00000000000000
00000000000000
00000000000000
00000000000000
ENDCHAR
STARTCHAR U+003B
ENCODING 59
SWIDTH 1000 0
DWIDTH 51 0
BBX 51 60 0 -12
BITMAP
00000000000000
00000000000000
00000000000000
00000000000000
00000000000000
00000000000000
00000000000000
00000000000000
00000000000000
00000000000000
00000000000000
00000000000000
000FFFE0000000
000FFFE0000000
000FFFE0000000
000FFFE0000000
000FFFE0000000
000FFFE0000000
000FFFE0000000
000FFFE0000000
000FFFE0000000
000FFFE0000000
000FFFE0000000
000FFFE0000000
00000000000000
00000000000000
00000000000000
00000000000000
00000000000000
00000000000000
00000000000000
00000000000000
00000000000000
00000000000000
00000000000000
00000000000000
000FFFE0000000
000FFFE0000000
000FFFE0000000
000FFFE0000000
000FFFE0000000
000FFFE0000000
000FF800000000
000FF800000000
000FF800000000
000FF800000000
000FF800000000
000FF800000000
03FE0000000000
03FE0000000000
03FE0000000000
03FE0000000000
03FE0000000000
03FE0000000000
00000000000000
00000000000000
00000000000000
00000000000000
00000000000000
00000000000000
ENDCHAR
STARTCHAR U+003A
ENCODING 58
SWIDTH 1000 0
DWIDTH 51 0
BBX 51 60 0 -12
BITMAP
00000000000000
00000000000000
00000000000000
00000000000000
00000000000000
00000000000000
00000000000000
00000000000000
00000000000000
00000000000000
00000000000000
00000000000000
000FFFE0000000
000FFFE0000000
000FFFE0000000
000FFFE0000000
000FFFE0000000
000FFFE0000000
000FFFE0000000
000FFFE0000000
000FFFE0000000
000FFFE0000000
000FFFE0000000
000FFFE0000000
00000000000000
00000000000000
00000000000000
00000000000000
00000000000000
00000000000000
00000000000000
00000000000000
00000000000000
00000000000000
00000000000000
00000000000000
000FFFE0000000
000FFFE0000000
000FFFE0000000
000FFFE0000000
000FFFE0000000
000FFFE0000000
000FFFE0000000
000FFFE0000000
000FFFE0000000
000FFFE0000000
000FFFE0000000
000FFFE0000000
00000000000000
00000000000000
00000000000000
00000000000000
00000000000000
00000000000000
00000000000000
00000000000000
00000000000000
00000000000000
00000000000000
00000000000000
ENDCHAR
STARTCHAR U+0039
ENCODING 57
SWIDTH 1000 0
DWIDTH 51 0
BBX 51 60 0 -12
BITMAP
00000000000000
00000000000000
00000000000000
00000000000000
00000000000000
00000000000000
03FFFFFFFE0000
03FFFFFFFE0000
03FFFFFFFE0000
03FFFFFFFE0000
03FFFFFFFE0000
03FFFFFFFE0000
FF8000000FF800
FF8000000FF800
FF8000000FF800
FF8000000FF800
FF8000000FF800
FF8000000FF800
FF800003FFF800
FF800003FFF800
FF800003FFF800
FF800003FFF800
FF800003FFF800
FF800003FFF800
03FFFFFF8FF800
03FFFFFF8FF800
03FFFFFF8FF800
03FFFFFF8FF800
03FFFFFF8FF800
03FFFFFF8FF800
000000000FF800
000000000FF800
000000000FF800
000000000FF800
000000000FF800
000000000FF800
00000003FE0000
00000003FE0000
00000003FE0000
00000003FE0000
00000003FE0000
00000003FE0000
03FFFFFF800000
03FFFFFF800000
03FFFFFF800000
03FFFFFF800000
03FFFFFF800000
03FFFFFF800000
00000000000000
00000000000000
00000000000000
00000000000000
00000000000000
00000000000000
00000000000000
00000000000000
00000000000000
00000000000000
00000000000000
00000000000000
ENDCHAR
STARTCHAR U+0038
ENCODING 56
SWIDTH 1000 0
DWIDTH 51 0
BBX 51 60 0 -12
BITMAP
00000000000000
00000000000000
00000000000000
00000000000000
00000000000000
00000000000000
03FFFFFFFE0000
03FFFFFFFE0000
03FFFFFFFE0000
03FFFFFFFE0000
03FFFFFFFE0000
03FFFFFFFE0000
FF8000000FF800
FF8000000FF800
FF8000000FF800
FF8000000FF800
FF8000000FF800
FF8000000FF800
FF8000000FF800
FF8000000FF800
FF8000000FF800
FF8000000FF800
FF8000000FF800
FF8000000FF800
03FFFFFFFE0000
03FFFFFFFE0000
03FFFFFFFE0000
03FFFFFFFE0000
03FFFFFFFE0000
03FFFFFFFE0000
FF8000000FF800
FF8000000FF800
FF8000000FF800
FF8000000FF800
FF8000000FF800
FF8000000FF800
FF8000000FF800
FF8000000FF800
FF8000000FF800
FF8000000FF800
FF8000000FF800
FF8000000FF800
03FFFFFFFE0000
03FFFFFFFE0000
03FFFFFFFE0000
03FFFFFFFE0000
03FFFFFFFE0000
03FFFFFFFE0000
00000000000000
00000000000000
00000000000000
00000000000000
00000000000000
00000000000000
00000000000000
00000000000000
00000000000000
00000000000000
00000000000000
00000000000000
ENDCHAR
STARTCHAR U+0037
ENCODING 55
SWIDTH 1000 0
DWIDTH 51 0
BBX 51 60 0 -12
BITMAP
00000000000000
00000000000000
00000000000000
00000000000000
00000000000000
00000000000000
FFFFFFFFFFF800
FFFFFFFFFFF800
FFFFFFFFFFF800
FFFFFFFFFFF800
FFFFFFFFFFF800
FFFFFFFFFFF800
000000000FF800
000000000FF800
000000000FF800
000000000FF800
000000000FF800
000000000FF800
00000003FE0000
00000003FE0000
00000003FE0000
00000003FE0000
00000003FE0000
00000003FE0000
000000FF800000
000000FF800000
000000FF800000
000000FF800000
000000FF800000
000000FF800000
00003FE0000000
00003FE0000000
00003FE0000000
00003FE0000000
00003FE0000000
00003FE0000000
000FF800000000
000FF800000000
000FF800000000
000FF800000000
000FF800000000
000FF800000000
000FF800000000
000FF800000000
000FF800000000
000FF800000000
000FF800000000
000FF800000000
00000000000000
00000000000000
00000000000000
00000000000000
00000000000000
00000000000000
00000000000000
00000000000000
00000000000000
00000000000000
00000000000000
00000000000000
ENDCHAR
STARTCHAR U+0036
ENCODING 54
SWIDTH 1000 0
DWIDTH 51 0
BBX 51 60 0 -12
BITMAP
00000000000000
00000000000000
00000000000000
00000000000000
00000000000000
00000000000000
000FFFFFFE0000
000FFFFFFE0000
000FFFFFFE0000
000FFFFFFE0000
000FFFFFFE0000
000FFFFFFE0000
03FE0000000000
03FE0000000000
03FE0000000000
03FE0000000000
03FE0000000000
03FE0000000000
FF800000000000
FF800000000000
FF800000000000
FF800000000000
FF800000000000
FF800000000000
FF8FFFFFFE0000
FF8FFFFFFE0000
FF8FFFFFFE0000
FF8FFFFFFE0000
FF8FFFFFFE0000
FF8FFFFFFE0000
FFFE00000FF800
FFFE00000FF800
FFFE00000FF800
FFFE00000FF800
FFFE00000FF800
FFFE00000FF800
FF8000000FF800
FF8000000FF800
FF8000000FF800
FF8000000FF800
FF8000000FF800
FF8000000FF800
03FFFFFFFE0000
03FFFFFFFE0000
03FFFFFFFE0000
03FFFFFFFE0000
03FFFFFFFE0000
03FFFFFFFE0000
00000000000000
00000000000000
00000000000000
00000000000000
00000000000000
00000000000000
00000000000000
00000000000000
00000000000000
00000000000000
00000000000000
00000000000000
ENDCHAR
STARTCHAR U+0035
ENCODING 53
SWIDTH 1000 0
DWIDTH 51 0
BBX 51 60 0 -12
BITMAP
00000000000000
00000000000000
00000000000000
00000000000000
00000000000000
00000000000000
FFFFFFFFFFF800
FFFFFFFFFFF800
FFFFFFFFFFF800
FFFFFFFFFFF800
FFFFFFFFFFF800
FFFFFFFFFFF800
FF800000000000
FF800000000000
FF800000000000
FF800000000000
FF800000000000
FF800000000000
FF8FFFFFFE0000
FF8FFFFFFE0000
FF8FFFFFFE0000
FF8FFFFFFE0000
FF8FFFFFFE0000
FF8FFFFFFE0000
FFFE00000FF800
FFFE00000FF800
FFFE00000FF800
FFFE00000FF800
FFFE00000FF800
FFFE00000FF800
000000000FF800
000000000FF800
000000000FF800
000000000FF800
000000000FF800
000000000FF800
FF8000000FF800
FF8000000FF800
FF8000000FF800
FF8000000FF800
FF8000000FF800
FF8000000FF800
03FFFFFFFE0000
03FFFFFFFE0000
03FFFFFFFE0000
03FFFFFFFE0000
03FFFFFFFE0000
03FFFFFFFE0000
00000000000000
00000000000000
00000000000000
00000000000000
00000000000000
00000000000000
00000000000000
00000000000000
00000000000000
00000000000000
00000000000000
00000000000000
ENDCHAR
STARTCHAR U+0034
ENCODING 52
SWIDTH 1000 0
DWIDTH 51 0
BBX 51 60 0 -12
BITMAP
00000000000000
00000000000000
00000000000000
00000000000000
00000000000000
00000000000000
000000FF800000
000000FF800000
000000FF800000
000000FF800000
000000FF800000
000000FF800000
00003FFF800000
00003FFF800000
00003FFF800000
00003FFF800000
00003FFF800000
00003FFF800000
000FF8FF800000
000FF8FF800000
000FF8FF800000
000FF8FF800000
000FF8FF800000
000FF8FF800000
03FE00FF800000
03FE00FF800000
03FE00FF800000
03FE00FF800000
03FE00FF800000
03FE00FF800000
FFFFFFFFFFF800
FFFFFFFFFFF800
FFFFFFFFFFF800
FFFFFFFFFFF800
FFFFFFFFFFF800
FFFFFFFFFFF800
000000FF800000
000000FF800000
000000FF800000
000000FF800000
000000FF800000
000000FF800000
000000FF800000
000000FF800000
000000FF800000
000000FF800000
000000FF800000
000000FF800000
00000000000000
00000000000000
00000000000000
00000000000000
00000000000000
00000000000000
00000000000000
00000000000000
00000000000000
00000000000000
00000000000000
00000000000000
ENDCHAR
STARTCHAR U+0033
ENCODING 51
SWIDTH 1000 0
DWIDTH 51 0
BBX 51 60 0 -12
BITMAP
00000000000000
00000000000000
00000000000000
00000000000000
00000000000000
00000000000000
FFFFFFFFFFF800
FFFFFFFFFFF800
FFFFFFFFFFF800
FFFFFFFFFFF800
FFFFFFFFFFF800
FFFFFFFFFFF800
00000003FE0000
00000003FE0000
00000003FE0000
00000003FE0000
00000003FE0000
00000003FE0000
000000FF800000
000000FF800000
000000FF800000
000000FF800000
000000FF800000
000000FF800000
00003FFFFE0000
00003FFFFE0000
00003FFFFE0000
00003FFFFE0000
00003FFFFE0000
00003FFFFE0000
000000000FF800
000000000FF800
000000000FF800
000000000FF800
000000000FF800
000000000FF800
FF8000000FF800
FF8000000FF800
FF8000000FF800
FF8000000FF800
FF8000000FF800
FF8000000FF800
03FFFFFFFE0000
03FFFFFFFE0000
03FFFFFFFE0000
03FFFFFFFE0000
03FFFFFFFE0000
03FFFFFFFE0000
00000000000000
00000000000000
00000000000000
00000000000000
00000000000000
00000000000000
00000000000000
00000000000000
00000000000000
00000000000000
00000000000000
00000000000000
ENDCHAR
STARTCHAR U+0032
ENCODING 50
SWIDTH 1000 0
DWIDTH 51 0
BBX 51 60 0 -12
BITMAP
00000000000000
00000000000000
00000000000000
00000000000000
00000000000000
00000000000000
03FFFFFFFE0000
03FFFFFFFE0000
03FFFFFFFE0000
03FFFFFFFE0000
03FFFFFFFE0000
03FFFFFFFE0000
FF8000000FF800
FF8000000FF800
FF8000000FF800
FF8000000FF800
FF8000000FF800
FF8000000FF800
000000000FF800
000000000FF800
000000000FF800
000000000FF800
000000000FF800
000000000FF800
00003FFFFE0000
00003FFFFE0000
00003FFFFE0000
00003FFFFE0000
00003FFFFE0000
00003FFFFE0000
03FFF800000000
03FFF800000000
03FFF800000000
03FFF800000000
03FFF800000000
03FFF800000000
FF800000000000
FF800000000000
FF800000000000
FF800000000000
FF800000000000
FF800000000000
FFFFFFFFFFF800
FFFFFFFFFFF800
FFFFFFFFFFF800
FFFFFFFFFFF800
FFFFFFFFFFF800
FFFFFFFFFFF800
00000000000000
00000000000000
00000000000000
00000000000000
00000000000000
00000000000000
00000000000000
00000000000000
00000000000000
00000000000000
00000000000000
00000000000000
ENDCHAR
STARTCHAR U+0031
ENCODING 49
SWIDTH 1000 0
DWIDTH 51 0
BBX 51 60 0 -12
BITMAP
00000000000000
00000000000000
00000000000000
00000000000000
00000000000000
00000000000000
00003FE0000000
00003FE0000000
00003FE0000000
00003FE0000000
00003FE0000000
00003FE0000000
000FFFE0000000
000FFFE0000000
000FFFE0000000
000FFFE0000000
000FFFE0000000
000FFFE0000000
03FE3FE0000000
03FE3FE0000000
03FE3FE0000000
03FE3FE0000000
03FE3FE0000000
03FE3FE0000000
00003FE0000000
00003FE0000000
00003FE0000000
00003FE0000000
00003FE0000000
00003FE0000000
00003FE0000000
00003FE0000000
00003FE0000000
00003FE0000000
00003FE0000000
00003FE0000000
00003FE0000000
00003FE0000000
00003FE0000000
00003FE0000000
00003FE0000000
00003FE0000000
03FFFFFFFE0000
03FFFFFFFE0000
03FFFFFFFE0000
03FFFFFFFE0000
03FFFFFFFE0000
03FFFFFFFE0000
00000000000000
00000000000000
00000000000000
00000000000000
00000000000000
00000000000000
00000000000000
00000000000000
00000000000000
00000000000000
00000000000000
00000000000000
ENDCHAR
STARTCHAR U+0030
ENCODING 48
SWIDTH 1000 0
DWIDTH 51 0
BBX 51 60 0 -12
BITMAP
00000000000000
00000000000000
00000000000000
00000000000000
00000000000000
00000000000000
000FFFFF800000
000FFFFF800000
000FFFFF800000
000FFFFF800000
000FFFFF800000
000FFFFF800000
03FE0003FE0000
03FE0003FE0000
03FE0003FE0000
03FE0003FE0000
03FE0003FE0000
03FE0003FE0000
FF8000000FF800
FF8000000FF800
FF8000000FF800
FF8000000FF800
FF8000000FF800
FF8000000FF800
FF8000000FF800
FF8000000FF800
FF8000000FF800
FF8000000FF800
FF8000000FF800
FF8000000FF800
FF8000000FF800
FF8000000FF800
FF8000000FF800
FF8000000FF800
FF8000000FF800
FF8000000FF800
03FE0003FE0000
03FE0003FE0000
03FE0003FE0000
03FE0003FE0000
03FE0003FE0000
03FE0003FE0000
000FFFFF800000
000FFFFF800000
000FFFFF800000
000FFFFF800000
000FFFFF800000
000FFFFF800000
00000000000000
00000000000000
00000000000000
00000000000000
00000000000000
00000000000000
00000000000000
00000000000000
00000000000000
00000000000000
00000000000000
00000000000000
ENDCHAR
STARTCHAR U+002F
ENCODING 47
SWIDTH 1000 0
DWIDTH 51 0
BBX 51 60 0 -12
BITMAP
00000000000000
00000000000000
00000000000000
00000000000000
00000000000000
00000000000000
000000000FF800
000000000FF800
000000000FF800
000000000FF800
000000000FF800
000000000FF800
00000003FE0000
00000003FE0000
00000003FE0000
00000003FE0000
00000003FE0000
00000003FE0000
000000FF800000
000000FF800000
000000FF800000
000000FF800000
000000FF800000
000000FF800000
00003FE0000000
00003FE0000000
00003FE0000000
00003FE0000000
00003FE0000000
00003FE0000000
000FF800000000
000FF800000000
000FF800000000
000FF800000000
000FF800000000
000FF800000000
03FE0000000000
03FE0000000000
03FE0000000000
03FE0000000000
03FE0000000000
03FE0000000000
FF800000000000
FF800000000000
FF800000000000
FF800000000000
FF800000000000
FF800000000000
00000000000000
00000000000000
00000000000000
00000000000000
00000000000000
00000000000000
00000000000000
00000000000000
00000000000000
00000000000000
00000000000000
00000000000000
ENDCHAR
STARTCHAR U+002E
ENCODING 46
SWIDTH 1000 0
DWIDTH 51 0
BBX 51 60 0 -12
BITMAP
00000000000000
00000000000000
00000000000000
00000000000000
00000000000000
00000000000000
00000000000000
00000000000000
00000000000000
00000000000000
00000000000000
00000000000000
00000000000000
00000000000000
00000000000000
00000000000000
00000000000000
00000000000000
00000000000000
00000000000000
00000000000000
00000000000000
00000000000000
00000000000000
00000000000000
00000000000000
00000000000000
00000000000000
00000000000000
00000000000000
00000000000000
00000000000000
00000000000000
00000000000000
00000000000000
00000000000000
000FFFE0000000
000FFFE0000000
000FFFE0000000
000FFFE0000000
000FFFE0000000
000FFFE0000000
000FFFE0000000
000FFFE0000000
000FFFE0000000
000FFFE0000000
000FFFE0000000
000FFFE0000000
00000000000000
00000000000000
00000000000000
00000000000000
00000000000000
00000000000000
00000000000000
00000000000000
00000000000000
00000000000000
00000000000000
00000000000000
ENDCHAR
STARTCHAR U+002D
ENCODING 45
SWIDTH 1000 0
DWIDTH 51 0
BBX 51 60 0 -12
BITMAP
00000000000000
00000000000000
00000000000000
00000000000000
00000000000000
00000000000000
00000000000000
00000000000000
00000000000000
00000000000000
00000000000000
00000000000000
00000000000000
00000000000000
00000000000000
00000000000000
00000000000000
00000000000000
00000000000000
00000000000000
00000000000000
00000000000000
00000000000000
00000000000000
FFFFFFFFFFF800
FFFFFFFFFFF800
FFFFFFFFFFF800
FFFFFFFFFFF800
FFFFFFFFFFF800
FFFFFFFFFFF800
00000000000000
00000000000000
00000000000000
00000000000000
00000000000000
00000000000000
00000000000000
00000000000000
00000000000000
00000000000000
00000000000000
00000000000000
00000000000000
00000000000000
00000000000000
00000000000000
00000000000000
00000000000000
00000000000000
00000000000000
00000000000000
00000000000000
00000000000000
00000000000000
00000000000000
00000000000000
00000000000000
00000000000000
00000000000000
00000000000000
ENDCHAR
STARTCHAR U+002C
ENCODING 44
SWIDTH 1000 0
DWIDTH 51 0
BBX 51 60 0 -12
BITMAP
00000000000000
00000000000000
00000000000000
00000000000000
00000000000000
00000000000000
00000000000000
00000000000000
00000000000000
00000000000000
00000000000000
00000000000000
00000000000000
00000000000000
00000000000000
00000000000000
00000000000000
00000000000000
00000000000000
00000000000000
00000000000000
00000000000000
00000000000000
00000000000000
00000000000000
00000000000000
00000000000000
00000000000000
00000000000000
00000000000000
00000000000000
00000000000000
00000000000000
00000000000000
00000000000000
00000000000000
000FFFE0000000
000FFFE0000000
000FFFE0000000
000FFFE0000000
000FFFE0000000
000FFFE0000000
000FF800000000
000FF800000000
000FF800000000
000FF800000000
000FF800000000
000FF800000000
03FE0000000000
03FE0000000000
03FE0000000000
03FE0000000000
03FE0000000000
03FE0000000000
00000000000000
00000000000000
00000000000000
00000000000000
00000000000000
00000000000000
ENDCHAR
STARTCHAR U+002B
ENCODING 43
SWIDTH 1000 0
DWIDTH 51 0
BBX 51 60 0 -12
BITMAP
00000000000000
00000000000000
00000000000000
00000000000000
00000000000000
00000000000000
00000000000000
00000000000000
00000000000000
00000000000000
00000000000000
00000000000000
00003FE0000000
00003FE0000000
00003FE0000000
00003FE0000000
00003FE0000000
00003FE0000000
00003FE0000000
00003FE0000000
00003FE0000000
00003FE0000000
00003FE0000000
00003FE0000000
FFFFFFFFFFF800
FFFFFFFFFFF800
FFFFFFFFFFF800
FFFFFFFFFFF800
FFFFFFFFFFF800
FFFFFFFFFFF800
00003FE0000000
00003FE0000000
00003FE0000000
00003FE0000000
00003FE0000000
00003FE0000000
00003FE0000000
00003FE0000000
00003FE0000000
00003FE0000000
00003FE0000000
00003FE0000000
00000000000000
00000000000000
00000000000000
00000000000000
00000000000000
00000000000000
00000000000000
00000000000000
00000000000000
00000000000000
00000000000000
00000000000000
00000000000000
00000000000000
00000000000000
00000000000000
00000000000000
00000000000000
ENDCHAR
STARTCHAR U+002A
ENCODING 42
SWIDTH 1000 0
DWIDTH 51 0
BBX 51 60 0 -12
BITMAP
00000000000000
00000000000000
00000000000000
00000000000000
00000000000000
00000000000000
00000000000000
00000000000000
00000000000000
00000000000000
00000000000000
00000000000000
03FE0003FE0000
03FE0003FE0000
03FE0003FE0000
03FE0003FE0000
03FE0003FE0000
03FE0003FE0000
000FF8FF800000
000FF8FF800000
000FF8FF800000
000FF8FF800000
000FF8FF800000
000FF8FF800000
FFFFFFFFFFF800
FFFFFFFFFFF800
FFFFFFFFFFF800
FFFFFFFFFFF800
FFFFFFFFFFF800
FFFFFFFFFFF800
000FF8FF800000
000FF8FF800000
000FF8FF800000
000FF8FF800000
000FF8FF800000
000FF8FF800000
03FE0003FE0000
03FE0003FE0000
03FE0003FE0000
03FE0003FE0000
03FE0003FE0000
03FE0003FE0000
00000000000000
00000000000000
00000000000000
00000000000000
00000000000000
00000000000000
00000000000000
00000000000000
00000000000000
00000000000000
00000000000000
00000000000000
00000000000000
00000000000000
00000000000000
00000000000000
00000000000000
00000000000000
ENDCHAR
STARTCHAR U+0029
ENCODING 41
SWIDTH 1000 0
DWIDTH 51 0
BBX 51 60 0 -12
BITMAP
00000000000000
00000000000000
00000000000000
00000000000000
00000000000000
00000000000000
000FF800000000
000FF800000000
000FF800000000
000FF800000000
000FF800000000
000FF800000000
00003FE0000000
00003FE0000000
00003FE0000000
00003FE0000000
00003FE0000000
00003FE0000000
000000FF800000
000000FF800000
000000FF800000
000000FF800000
000000FF800000
000000FF800000
000000FF800000
000000FF800000
000000FF800000
000000FF800000
000000FF800000
000000FF800000
000000FF800000
000000FF800000
000000FF800000
000000FF800000
000000FF800000
000000FF800000
00003FE0000000
00003FE0000000
00003FE0000000
00003FE0000000
00003FE0000000
00003FE0000000
000FF800000000
000FF800000000
000FF800000000
000FF800000000
000FF800000000
000FF800000000
00000000000000
00000000000000
00000000000000
00000000000000
00000000000000
00000000000000
00000000000000
00000000000000
00000000000000
00000000000000
00000000000000
00000000000000
ENDCHAR
STARTCHAR U+0028
ENCODING 40
SWIDTH 1000 0
DWIDTH 51 0
BBX 51 60 0 -12
BITMAP
00000000000000
00000000000000
00000000000000
00000000000000
00000000000000
00000000000000
000000FF800000
000000FF800000
000000FF800000
000000FF800000
000000FF800000
000000FF800000
00003FE0000000
00003FE0000000
00003FE0000000
00003FE0000000
00003FE0000000
00003FE0000000
000FF800000000
000FF800000000
000FF800000000
000FF800000000
000FF800000000
000FF800000000
000FF800000000
000FF800000000
000FF800000000
000FF800000000
000FF800000000
000FF800000000
000FF800000000
000FF800000000
000FF800000000
000FF800000000
000FF800000000
000FF800000000
00003FE0000000
00003FE0000000
00003FE0000000
00003FE0000000
00003FE0000000
00003FE0000000
000000FF800000
000000FF800000
000000FF800000
000000FF800000
000000FF800000
000000FF800000
00000000000000
00000000000000
00000000000000
00000000000000
00000000000000
00000000000000
00000000000000
00000000000000
00000000000000
00000000000000
00000000000000
00000000000000
ENDCHAR
STARTCHAR U+0027
ENCODING 39
SWIDTH 1000 0
DWIDTH 51 0
BBX 51 60 0 -12
BITMAP
00000000000000
00000000000000
00000000000000
00000000000000
00000000000000
00000000000000
00003FFF800000
00003FFF800000
00003FFF800000
00003FFF800000
00003FFF800000
00003FFF800000
00003FE0000000
00003FE0000000
00003FE0000000
00003FE0000000
00003FE0000000
00003FE0000000
000FF800000000
000FF800000000
000FF800000000
000FF800000000
000FF800000000
000FF800000000
00000000000000
00000000000000
00000000000000
00000000000000
00000000000000
00000000000000
00000000000000
00000000000000
00000000000000
00000000000000
00000000000000
00000000000000
00000000000000
00000000000000
00000000000000
00000000000000
00000000000000
00000000000000
00000000000000
00000000000000
00000000000000
00000000000000
00000000000000
00000000000000
00000000000000
00000000000000
00000000000000
00000000000000
00000000000000
00000000000000
00000000000000
00000000000000
00000000000000
00000000000000
00000000000000
00000000000000
ENDCHAR
STARTCHAR U+0026
ENCODING 38
SWIDTH 1000 0
DWIDTH 51 0
BBX 51 60 0 -12
BITMAP
00000000000000
00000000000000
00000000000000
00000000000000
00000000000000
00000000000000
03FFFFE0000000
03FFFFE0000000
03FFFFE0000000
03FFFFE0000000
03FFFFE0000000
03FFFFE0000000
FF8000FF800000
FF8000FF800000
FF8000FF800000
FF8000FF800000
FF8000FF800000
FF8000FF800000
FF8000FF800000
FF8000FF800000
FF8000FF800000
FF8000FF800000
FF8000FF800000
FF8000FF800000
03FFFFE0000000
03FFFFE0000000
03FFFFE0000000
03FFFFE0000000
03FFFFE0000000
03FFFFE0000000
FF8000FF8FF800
FF8000FF8FF800
FF8000FF8FF800
FF8000FF8FF800
FF8000FF8FF800
FF8000FF8FF800
FF800003FE0000
FF800003FE0000
FF800003FE0000
FF800003FE0000
FF800003FE0000
FF800003FE0000
03FFFFFF8FF800
03FFFFFF8FF800
03FFFFFF8FF800
03FFFFFF8FF800
03FFFFFF8FF800
03FFFFFF8FF800
00000000000000
00000000000000
00000000000000
00000000000000
00000000000000
00000000000000
00000000000000
00000000000000
00000000000000
00000000000000
00000000000000
00000000000000
ENDCHAR
STARTCHAR U+0025
ENCODING 37
SWIDTH 1000 0
DWIDTH 51 0
BBX 51 60 0 -12
BITMAP
00000000000000
00000000000000
00000000000000
00000000000000
00000000000000
00000000000000
03FE00000FF800
03FE00000FF800
03FE00000FF800
03FE00000FF800
03FE00000FF800
03FE00000FF800
FF8FF803FE0000
FF8FF803FE0000
FF8FF803FE0000
FF8FF803FE0000
FF8FF803FE0000
FF8FF803FE0000
03FE00FF800000
03FE00FF800000
03FE00FF800000
03FE00FF800000
03FE00FF800000
03FE00FF800000
00003FE0000000
00003FE0000000
00003FE0000000
00003FE0000000
00003FE0000000
00003FE0000000
000FF803FE0000
000FF803FE0000
000FF803FE0000
000FF803FE0000
000FF803FE0000
000FF803FE0000
03FE00FF8FF800
03FE00FF8FF800
03FE00FF8FF800
03FE00FF8FF800
03FE00FF8FF800
03FE00FF8FF800
FF800003FE0000
FF800003FE0000
FF800003FE0000
FF800003FE0000
FF800003FE0000
FF800003FE0000
00000000000000
00000000000000
00000000000000
00000000000000
00000000000000
00000000000000
00000000000000
00000000000000
00000000000000
00000000000000
00000000000000
00000000000000
ENDCHAR
STARTCHAR U+0024
ENCODING 36
SWIDTH 1000 0
DWIDTH 51 0
BBX 51 60 0 -12
BITMAP
00000000000000
00000000000000
00000000000000
00000000000000
00000000000000
00000000000000
00003FE0000000
00003FE0000000
00003FE0000000
00003FE0000000
00003FE0000000
00003FE0000000
03FFFFFFFE0000
03FFFFFFFE0000
03FFFFFFFE0000
03FFFFFFFE0000
03FFFFFFFE0000
03FFFFFFFE0000
FF803FE0000000
FF803FE0000000
FF803FE0000000
FF803FE0000000
FF803FE0000000
FF803FE0000000
03FFFFFFFE0000
03FFFFFFFE0000
03FFFFFFFE0000
03FFFFFFFE0000
03FFFFFFFE0000
03FFFFFFFE0000
00003FE00FF800
00003FE00FF800
00003FE00FF800
00003FE00FF800
00003FE00FF800
00003FE00FF800
03FFFFFFFE0000
03FFFFFFFE0000
03FFFFFFFE0000
03FFFFFFFE0000
03FFFFFFFE0000
03FFFFFFFE0000
00003FE0000000
00003FE0000000
00003FE0000000
00003FE0000000
00003FE0000000
00003FE0000000
00000000000000
00000000000000
00000000000000
00000000000000
00000000000000
00000000000000
00000000000000
00000000000000
00000000000000
00000000000000
00000000000000
00000000000000
ENDCHAR
STARTCHAR U+0023
ENCODING 35
SWIDTH 1000 0
DWIDTH 51 0
BBX 51 60 0 -12
BITMAP
00000000000000
00000000000000
00000000000000
00000000000000
00000000000000
00000000000000
03FE00FF800000
03FE00FF800000
03FE00FF800000
03FE00FF800000
03FE00FF800000
03FE00FF800000
03FE00FF800000
03FE00FF800000
03FE00FF800000
03FE00FF800000
03FE00FF800000
03FE00FF800000
FFFFFFFFFE0000
FFFFFFFFFE0000
FFFFFFFFFE0000
FFFFFFFFFE0000
FFFFFFFFFE0000
FFFFFFFFFE0000
03FE00FF800000
03FE00FF800000
03FE00FF800000
03FE00FF800000
03FE00FF800000
03FE00FF800000
FFFFFFFFFE0000
FFFFFFFFFE0000
FFFFFFFFFE0000
FFFFFFFFFE0000
FFFFFFFFFE0000
FFFFFFFFFE0000
03FE00FF800000
03FE00FF800000
03FE00FF800000
03FE00FF800000
03FE00FF800000
03FE00FF800000
03FE00FF800000
03FE00FF800000
03FE00FF800000
03FE00FF800000
03FE00FF800000
03FE00FF800000
00000000000000
00000000000000
00000000000000
00000000000000
00000000000000
00000000000000
00000000000000
00000000000000
00000000000000
00000000000000
00000000000000
00000000000000
ENDCHAR
ENDFONT
